<?xml version="1.0" encoding="UTF-8"?>
<svg width="1667px" height="180px" viewBox="0 0 1667 180" version="1.1" xmlns="http://www.w3.org/2000/svg" xmlns:xlink="http://www.w3.org/1999/xlink">
    <title>CEC260A7-CD00-40ED-8BF3-F66015B6E663</title>
    <g id="Page-1" stroke="none" stroke-width="1" fill="none" fill-rule="evenodd">
        <g id="0-0-index-pc" transform="translate(114.000000, -1439.000000)" fill="#FFFFFF">
            <g id="M2" transform="translate(-114.000000, 1439.000000)">
                <g id="pic/index_biglogo">
                    <g id="logo_TXT">
                        <path d="M1659.18277,151.855722 C1664.36026,142.715869 1667,132.515889 1667,121.525305 C1664.61224,80.6834592 1635.20314,73.6159452 1610.53358,66.1770871 C1605.76405,64.6677536 1583.23028,62.3857851 1578.42475,50.1613816 C1576.13298,44.7589259 1578.23277,37.3200679 1581.66443,33.7683426 C1585.08409,30.2106279 1589.60765,28.6414002 1596.26099,28.6414002 C1609.3577,28.6414002 1629.10774,36.2299937 1638.6528,48.5622068 C1645.51612,43.8006189 1654.78521,36.4216551 1658.80481,26.335474 C1660.14268,23.0233255 1659.8727,19.9387748 1657.97089,16.9440655 C1651.51553,6.64825475 1627.4879,0.0658836056 1602.08041,0 C1594.84513,0 1576.66693,0.658836056 1563.82819,6.83392673 C1555.27304,10.9127209 1548.66169,17.0279173 1544.18014,24.9938442 C1539.81857,32.744152 1537.61678,41.0155392 1537.61678,49.5804079 C1537.61678,62.6792666 1541.91236,73.5979769 1550.32953,81.9711842 C1558.34474,90.1108042 1575.65902,97.903038 1597.82683,103.359398 C1613.53928,107.144711 1623.34231,114.613516 1625.4721,124.322364 C1626.93596,131.521645 1623.86426,138.882641 1617.03694,144.524673 C1613.17932,147.411573 1608.2898,148.861012 1602.42238,148.861012 C1584.47215,148.861012 1558.62671,134.797857 1551.15145,121.207866 C1545.72198,126.280904 1534.79706,138.014175 1534.68307,149.717499 C1534.59908,155.575151 1537.33481,160.911723 1542.86027,165.553522 C1554.47512,175.274349 1572.34735,180 1597.53286,180 C1613.16132,180 1628.38782,177.21492 1637.30893,172.740825 C1646.62001,167.967258 1653.97529,160.94167 1659.18277,151.855722" id="Fill-1"></path>
                        <path d="M1447.53904,139.290506 L1429.01696,139.290506 C1425.89896,139.051435 1423.47652,136.493373 1423.3506,133.32568 L1423.3506,46.7460416 C1423.47652,43.3213466 1426.05486,40.7453543 1429.29278,40.7214472 L1447.53904,40.7214472 C1447.93479,40.7214472 1487.50333,41.2832645 1487.50333,89.701161 C1487.50333,130.462802 1455.46594,139.290506 1447.53904,139.290506 M1457.31275,3.25301205 L1396.7817,3.25301205 C1388.26718,4.07780772 1381.76736,11.5069455 1381.76736,20.5139533 L1381.75537,21.2849579 L1381.75537,160.693356 C1382.39096,169.568875 1389.40045,176.507917 1398.05288,176.746988 L1457.28877,176.746988 C1458.3261,176.66929 1526.00455,169.664503 1526.00455,89.3604845 C1526.00455,4.24515756 1457.99032,3.25301205 1457.31275,3.25301205" id="Fill-3"></path>
                        <path d="M1092.16644,139.325282 C1058.47219,139.325282 1049.58107,107.286156 1049.58107,90.356323 C1049.58107,67.6534584 1060.60535,41.1837509 1091.67647,41.1837509 C1125.69935,41.1837509 1134.69205,71.9413115 1134.69205,88.2004192 C1134.69205,107.196327 1125.74118,139.325282 1092.16644,139.325282 M1091.86768,0 L1090.97737,0 C1026.85135,0 1009.74431,56.6643378 1009.74431,90.134744 C1009.74431,123.503344 1027.4668,180 1093.89328,180 C1168.77468,180 1174.60052,110.100808 1174.60052,88.6615431 C1174.60052,48.0646771 1152.92841,0.455135243 1091.86768,0" id="Fill-5"></path>
                        <path d="M309.1054,3.25301205 L282.329561,3.25301205 C274.520692,4.06671471 268.218376,10.5404374 267.462098,18.6894302 L267.462098,116.309817 C267.462098,127.342668 257.07228,142.605576 237.571115,142.605576 C219.054311,142.605576 207.590098,128.958107 207.590098,116.309817 L207.590098,18.6894302 C206.761794,10.576336 200.459478,4.04876539 192.560575,3.25301205 L165.940794,3.25301205 L165.940794,107.38302 C165.940794,150.8144 196.257934,180 241.388517,180 C278.722236,180 309.1054,147.415995 309.1054,107.38302 L309.1054,3.25301205 Z" id="Fill-7"></path>
                        <path d="M475.046194,161.308965 L475.046194,3.25301205 L451.191165,3.25301205 C442.694527,4.07780772 436.22658,11.5129223 436.22658,20.5139533 L436.22658,111.564223 L434.884063,109.245232 L381.3087,17.8722164 C375.514995,9.00865139 368.414573,3.94034177 360.783112,3.25301205 L347.829319,3.25301205 C339.636984,4.07780772 333.216771,11.2439672 332.966168,19.9222521 L332.966168,176.746988 L356.003753,176.746988 C364.721161,176.262869 371.582913,168.696265 371.582913,159.551791 L371.582913,69.2187352 L425.671416,161.177476 C431.715724,170.871813 439.233817,176.262869 447.402285,176.746988 L459.4193,176.746988 C467.557934,176.262869 474.151183,169.754155 475.046194,161.308965" id="Fill-9"></path>
                        <path d="M593.648811,160.059818 L593.648811,103.668896 L593.744794,103.477639 L651.832791,3.25301205 L619.324389,3.25301205 C611.345763,3.97022567 603.895046,9.54058483 597.854087,19.3604347 L572.796402,67.7902847 L548.434597,20.7709548 C542.279657,10.0904486 534.546989,4.0240167 526.040453,3.25301205 L493.48406,3.25301205 L551.752026,103.668896 L551.752026,176.746988 L577.901523,176.746988 C586.438053,176.262869 593.336865,168.911429 593.648811,160.059818" id="Fill-11"></path>
                        <path d="M142.080026,160.429816 L142.080026,3.25301205 L115.283839,3.25301205 C107.065467,4.07783613 100.636291,11.2741274 100.37984,19.9945502 L100.37984,66.2922846 L41.5331949,66.2922846 L41.5331949,3.25301205 L14.9397836,3.25301205 C6.69159171,4.07783613 0.25048739,11.3040123 0,20.048343 L0,176.746988 L25.9910487,176.746988 C34.1259249,176.262852 40.6863089,169.759891 41.5331949,161.266594 L41.5331949,103.869596 L100.37984,103.869596 L100.37984,176.746988 L126.460348,176.746988 C134.899388,176.262852 141.602907,169.251847 142.080026,160.429816" id="Fill-13"></path>
                        <path d="M682.058264,114.755824 L682.333626,113.787585 L703.273084,39.2810431 L724.763266,114.755824 L682.058264,114.755824 Z M711.258573,3.25301205 L696.610529,3.25301205 C687.619372,3.36657087 678.430673,10.5984749 674.276304,20.8127923 L674.258345,20.794862 C673.665719,22.7373155 668.517653,38.6116438 623.633702,176.746988 L650.792743,176.746988 C659.843761,176.227008 667.607763,169.46727 670.068059,159.922352 L673.342469,146.988599 L732.970241,146.988599 L733.113908,147.54444 C734.16148,151.59072 735.729844,157.543593 736.112956,158.894345 L736.130914,158.912276 L736.220706,159.229045 C738.93242,169.509107 746.42106,176.227008 755.735467,176.746988 L784.151594,176.746988 L733.520964,20.7530245 C729.558151,9.25967616 719.327867,3.25301205 711.258573,3.25301205 L711.258573,3.25301205 Z" id="Fill-15"></path>
                        <path d="M1278.75907,139.325282 C1245.08288,139.325282 1236.19337,107.286156 1236.19337,90.356323 C1236.19337,67.6534584 1247.21564,41.1837509 1278.28114,41.1837509 C1312.27395,41.1837509 1321.26503,71.9413115 1321.26503,88.2004192 C1321.26503,107.196327 1312.30383,139.325282 1278.75907,139.325282 M1278.42451,0 L1277.58814,0 C1213.41997,0 1196.29213,56.6643378 1196.29213,90.134744 C1196.29213,123.503344 1214.0353,180 1280.44975,180 C1355.30564,180 1361.14834,110.100808 1361.14834,88.6615431 C1361.14834,48.0646771 1339.47418,0.455135243 1278.42451,0" id="Fill-17"></path>
                        <path d="M988.993247,80.2578483 L918.284725,80.2578483 L918.284725,41.2354503 L972.801463,41.1457986 C981.64753,41.1457986 988.66317,34.0872211 989.13728,24.6917227 L989.13728,3.25301205 L891.332427,3.25301205 C883.272544,4.04792382 876.803032,11.058687 876.340924,19.5337613 L876.340924,176.746988 L902.501037,176.746988 C911.227076,176.256892 918.140691,168.791893 918.284725,159.755002 L918.284725,117.947424 L972.345357,117.947424 C981.425478,117.91754 988.897224,110.225424 988.993247,100.811995 L988.993247,80.2578483 Z" id="Fill-19"></path>
                    </g>
                </g>
            </g>
        </g>
    </g>
</svg>