<?xml version="1.0" encoding="UTF-8"?>
<svg width="130px" height="87px" viewBox="0 0 130 87" version="1.1" xmlns="http://www.w3.org/2000/svg" xmlns:xlink="http://www.w3.org/1999/xlink">
    <title>DD5BD9CD-4D76-485A-B7CC-3517B8F4D581</title>
    <defs>
        <polygon id="path-1" points="0.377677632 0.410124444 11.7324145 0.410124444 11.7324145 17.2 0.377677632 17.2"></polygon>
        <polygon id="path-3" points="0.400381579 0.410124444 11.7551184 0.410124444 11.7551184 17.2 0.400381579 17.2"></polygon>
        <polygon id="path-5" points="0 86 130 86 130 0 0 0"></polygon>
    </defs>
    <g id="Page-1" stroke="none" stroke-width="1" fill="none" fill-rule="evenodd">
        <g id="3-1-cause-pc" transform="translate(-987.000000, -1746.000000)">
            <g id="Group-3" transform="translate(37.000000, 1746.000000)">
                <g id="logo/77-colors-copy-2" transform="translate(950.000000, 0.000000)">
                    <g id="Group-41">
                        <path d="M17.1052632,81.1299052 C16.4400857,84.2898381 14.064242,86 11.1661435,86 C8.50494409,86 6.67582837,84.43227 5.86821774,82.9590052 C5.32148981,81.9614923 5.13157895,81.4627358 5.13157895,77.4002447 C5.13157895,73.3372642 5.32148981,72.8389972 5.86821774,71.8405054 C6.67582837,70.3682195 8.50494409,68.8 11.1661435,68.8 C14.3730919,68.8 16.5830083,71.0568851 17.1052632,73.8130161 L14.3970755,73.8130161 C13.9932702,72.5061666 12.7818542,71.3657323 11.1661435,71.3657323 C9.95423809,71.3657323 9.07516615,71.9359495 8.55242181,72.6011212 C7.88724432,73.4562022 7.69733346,73.9314647 7.69733346,77.4002447 C7.69733346,80.8685353 7.88724432,81.3437978 8.55242181,82.1993683 C9.07516615,82.8640505 9.95423809,83.4342677 11.1661435,83.4342677 C12.5914539,83.4342677 13.6844203,82.6501579 14.3970755,81.1299052 L17.1052632,81.1299052 Z" id="Fill-1" fill="#4D3227"></path>
                        <polygon id="Fill-3" fill="#4D3227" points="29.9033571 79.23825 23.1229587 79.23825 23.1229587 86 20.5263158 86 20.5263158 70.52 23.1229587 70.52 23.1229587 77.1514062 29.9033571 77.1514062 29.9033571 70.52 32.5 70.52 32.5 86 29.9033571 86"></polygon>
                        <g id="Group-7" transform="translate(34.210526, 68.800000)">
                            <mask id="mask-2" fill="white">
                                <use xlink:href="#path-1"></use>
                            </mask>
                            <g id="Clip-6"></g>
                            <path d="M3.59629605,13.4897689 C4.08813816,14.1385911 4.91524342,14.6952022 6.05504605,14.6952022 C7.19484868,14.6952022 8.02241447,14.1385911 8.51425658,13.4897689 C9.14011184,12.6546133 9.31879605,12.1906911 9.31879605,8.80515778 C9.31879605,5.41914667 9.14011184,4.95570222 8.51425658,4.12102444 C8.02241447,3.47124667 7.19484868,2.91463556 6.05504605,2.91463556 C4.91524342,2.91463556 4.08813816,3.47124667 3.59629605,4.12102444 C2.97044079,4.95570222 2.79175658,5.41914667 2.79175658,8.80515778 C2.79175658,12.1906911 2.97044079,12.6546133 3.59629605,13.4897689 M1.07030921,3.37855778 C1.83063816,1.94092444 3.551625,0.410124444 6.05504605,0.410124444 C8.55846711,0.410124444 10.2799145,1.94092444 11.0402434,3.37855778 C11.5541908,4.35274667 11.7324145,4.83960222 11.7324145,8.80515778 C11.7324145,12.7707133 11.5541908,13.2580467 11.0402434,14.2317578 C10.2799145,15.6693911 8.55846711,17.2001911 6.05504605,17.2001911 C3.551625,17.2001911 1.83063816,15.6693911 1.07030921,14.2317578 C0.556361842,13.2580467 0.377677632,12.7707133 0.377677632,8.80515778 C0.377677632,4.83960222 0.556361842,4.35274667 1.07030921,3.37855778" id="Fill-5" fill="#4D3227" mask="url(#mask-2)"></path>
                        </g>
                        <path d="M59.8684211,81.1299052 C59.2032436,84.2898381 56.8273999,86 53.9288119,86 C51.2685914,86 49.4384968,84.43227 48.6313756,82.9590052 C48.0846477,81.9614923 47.8947368,81.4627358 47.8947368,77.4002447 C47.8947368,73.3372642 48.0846477,72.8389972 48.6313756,71.8405054 C49.4384968,70.3682195 51.2685914,68.8 53.9288119,68.8 C57.1362498,68.8 59.3461662,71.0568851 59.8684211,73.8130161 L57.1602334,73.8130161 C56.7564281,72.5061666 55.5445227,71.3657323 53.9288119,71.3657323 C52.7178854,71.3657323 51.838324,71.9359495 51.3155797,72.6011212 C50.6508917,73.4562022 50.4604914,73.9314647 50.4604914,77.4002447 C50.4604914,80.8685353 50.6508917,81.3437978 51.3155797,82.1993683 C51.838324,82.8640505 52.7178854,83.4342677 53.9288119,83.4342677 C55.3541223,83.4342677 56.4475782,82.6501579 57.1602334,81.1299052 L59.8684211,81.1299052 Z" id="Fill-8" fill="#4D3227"></path>
                        <g id="Group-12" transform="translate(61.578947, 68.800000)">
                            <mask id="mask-4" fill="white">
                                <use xlink:href="#path-3"></use>
                            </mask>
                            <g id="Clip-11"></g>
                            <path d="M3.61853947,13.4897689 C4.11038158,14.1385911 4.93748684,14.6952022 6.07775,14.6952022 C7.21755263,14.6952022 8.04465789,14.1385911 8.53696053,13.4897689 C9.16235526,12.6546133 9.34103947,12.1906911 9.34103947,8.80515778 C9.34103947,5.41914667 9.16235526,4.95570222 8.53696053,4.12102444 C8.04465789,3.47124667 7.21755263,2.91463556 6.07775,2.91463556 C4.93748684,2.91463556 4.11038158,3.47124667 3.61853947,4.12102444 C2.99314474,4.95570222 2.81446053,5.41914667 2.81446053,8.80515778 C2.81446053,12.1906911 2.99314474,12.6546133 3.61853947,13.4897689 M1.09255263,3.37855778 C1.85288158,1.94092444 3.57386842,0.410124444 6.07775,0.410124444 C8.58071053,0.410124444 10.3026184,1.94092444 11.0624868,3.37855778 C11.5764342,4.35274667 11.7551184,4.83960222 11.7551184,8.80515778 C11.7551184,12.7707133 11.5764342,13.2580467 11.0624868,14.2317578 C10.3026184,15.6693911 8.58071053,17.2001911 6.07775,17.2001911 C3.57386842,17.2001911 1.85288158,15.6693911 1.09255263,14.2317578 C0.578605263,13.2580467 0.400381579,12.7707133 0.400381579,8.80515778 C0.400381579,4.83960222 0.578605263,4.35274667 1.09255263,3.37855778" id="Fill-10" fill="#4D3227" mask="url(#mask-4)"></path>
                        </g>
                        <polygon id="Fill-13" fill="#4D3227" points="75.2631579 70.52 77.6991766 70.52 77.6991766 83.7819167 85.5263158 83.7819167 85.5263158 86 75.2631579 86"></polygon>
                        <path d="M96.4194662,80.4561354 L94.1014368,73.6943854 L94.056458,73.6943854 L91.7379648,80.4561354 L96.4194662,80.4561354 Z M97.1177964,82.5429792 L91.040562,82.5429792 L89.8024867,86 L87.2368421,86 L93.0664614,70.52 L95.091897,70.52 L100.921053,86 L98.3554081,86 L97.1177964,82.5429792 Z" id="Fill-15" fill="#4D3227"></path>
                        <polygon id="Fill-17" fill="#4D3227" points="103.899348 72.6073521 99.2105263 72.6073521 99.2105263 70.52 111.184211 70.52 111.184211 72.6073521 106.495389 72.6073521 106.495389 86 103.899348 86"></polygon>
                        <polygon id="Fill-19" fill="#4D3227" points="112.894737 70.52 123.157895 70.52 123.157895 72.7376354 115.330756 72.7376354 115.330756 77.1514062 122.007733 77.1514062 122.007733 79.23825 115.330756 79.23825 115.330756 83.7819167 123.157895 83.7819167 123.157895 86 112.894737 86"></polygon>
                        <path d="M8.2499927,58.1140399 L9.47335581,58.1140399 C9.76508451,58.1140399 9.89648101,58.1706634 10.0169673,58.2642153 C10.1545305,58.3681071 10.229953,58.5552108 10.229953,58.7910599 C10.229953,59.1628054 10.017916,59.5596622 9.42165105,59.5596622 L8.2499927,59.5596622 L8.2499927,58.1140399 Z M10.4856307,60.6812996 C11.1710745,60.3267874 11.5861357,59.6251485 11.5861357,58.7910599 C11.5861357,58.1967595 11.3318811,57.6320017 10.8907304,57.2420382 C10.5259509,56.913622 10.0781592,56.76 9.48189421,56.76 L6.84210526,56.76 L6.84210526,63.64 L8.2499927,63.64 L8.2499927,60.9127174 L9.05687159,60.9127174 L10.3271959,63.64 L11.9736842,63.64 L10.4856307,60.6812996 Z" id="Fill-21" fill="#4D3227"></path>
                        <polygon id="Fill-23" fill="#4D3227" points="23.9473684 58.1678099 23.9473684 56.76 18.8157895 56.76 18.8157895 63.64 23.9473684 63.64 23.9473684 62.2321901 20.4552433 62.2321901 20.4552433 60.8499857 23.4342105 60.8499857 23.4342105 59.4958488 20.4552433 59.4958488 20.4552433 58.1678099"></polygon>
                        <path d="M34.4008883,58.9525599 C34.4008883,59.3311987 34.1335279,59.7383955 33.5465642,59.7383955 L32.309638,59.7383955 L32.309638,58.1677092 L33.5091747,58.1677092 C33.7796082,58.1677092 33.9250687,58.202668 34.0858947,58.305575 C34.3005001,58.4434409 34.4008883,58.649255 34.4008883,58.9525599 M35.1046302,57.261241 C34.5514706,56.8451814 34.0449199,56.76 33.4533465,56.76 L30.7894737,56.76 L30.7894737,63.64 L32.309638,63.64 L32.309638,61.1461046 L33.5839536,61.1461046 C35.0467533,61.1461046 35.9210526,60.0446547 35.9210526,58.9796407 C35.9210526,58.2799714 35.6147662,57.6369255 35.1046302,57.261241" id="Fill-25" fill="#4D3227"></path>
                        <path d="M46.4046806,56.76 L46.4046806,61.090169 C46.4046806,61.7683 45.9923664,62.1894447 45.3289474,62.1894447 C44.6655283,62.1894447 44.2532141,61.7683 44.2532141,61.090169 L44.2532141,56.76 L42.7631579,56.76 L42.7631579,61.1971652 C42.7631579,62.6125437 43.8419044,63.64 45.3289474,63.64 C46.8154881,63.64 47.8947368,62.6125437 47.8947368,61.1971652 L47.8947368,56.76 L46.4046806,56.76 Z" id="Fill-27" fill="#4D3227"></path>
                        <path d="M56.248857,60.8048866 L57.534681,60.8048866 C58.2973112,60.8048866 58.3569156,61.3509339 58.3569156,61.5183425 C58.3569156,61.6857511 58.2973112,62.2317985 57.534681,62.2317985 L56.248857,62.2317985 L56.248857,60.8048866 Z M57.4424726,59.4518314 L56.248857,59.4518314 L56.248857,58.1140399 L57.4424726,58.1140399 C57.9508927,58.1140399 58.2550278,58.364168 58.2550278,58.7826895 C58.2550278,59.2081042 57.9585343,59.4518314 57.4424726,59.4518314 L57.4424726,59.4518314 Z M59.08847,60.0702584 C59.5439084,59.7477507 59.7665333,59.3021484 59.7665333,58.7201574 C59.7665333,57.5113691 58.9188268,56.76 57.5540397,56.76 L54.7368421,56.76 L54.7368421,63.64 L57.7761551,63.64 C58.9692612,63.64 59.8684211,62.7547041 59.8684211,61.5808745 C59.8684211,61.0210406 59.6233809,60.403106 59.08847,60.0702584 L59.08847,60.0702584 Z" id="Fill-29" fill="#4D3227"></path>
                        <polygon id="Fill-31" fill="#4D3227" points="66.6394539 62.2321901 66.6394539 56.76 65 56.76 65 63.64 70.1315789 63.64 70.1315789 62.2321901"></polygon>
                        <mask id="mask-6" fill="white">
                            <use xlink:href="#path-5"></use>
                        </mask>
                        <g id="Clip-34"></g>
                        <polygon id="Fill-33" fill="#4D3227" mask="url(#mask-6)" points="76.9736842 63.64 78.6842105 63.64 78.6842105 56.76 76.9736842 56.76"></polygon>
                        <path d="M89.1571358,61.3439194 L89.0898708,61.4835459 C88.8576816,61.9659362 88.5278336,62.2010711 88.0813927,62.2010711 C87.6404326,62.2010711 87.3893096,61.9712691 87.2796925,61.8355211 C87.0853711,61.5921443 87.0051512,61.4913029 87.0051512,60.2002424 C87.0051512,58.9077274 87.0853711,58.8078557 87.2786959,58.5659333 C87.3888114,58.4287309 87.6394361,58.1994137 88.0813927,58.1994137 C88.6075552,58.1994137 88.9608214,58.5698119 89.0779125,58.9373011 L89.1317246,59.1084406 L90.6514174,59.1084406 L90.5956122,58.8209457 C90.355451,57.5880629 89.3449798,56.76 88.0813927,56.76 C86.9498444,56.76 86.1810293,57.4091664 85.8387248,58.0166387 C85.6065356,58.4292157 85.5263158,58.6507758 85.5263158,60.2002424 C85.5263158,61.7492242 85.6065356,61.9707843 85.8387248,62.3838461 C86.1810293,62.9908336 86.9498444,63.64 88.0813927,63.64 C89.364412,63.64 90.3275484,62.8720541 90.5946157,61.6362624 L90.6578947,61.3439194 L89.1571358,61.3439194 Z" id="Fill-35" fill="#4D3227" mask="url(#mask-6)"></path>
                        <path d="M109.424483,61.8341939 C109.312905,61.9709019 109.06073,62.2006877 108.618421,62.2006877 C108.175612,62.2006877 107.923436,61.9709019 107.812859,61.8351635 C107.618223,61.5918038 107.537667,61.4909696 107.537667,60.2 C107.537667,58.9075761 107.618223,58.8077114 107.812359,58.5658061 C107.923436,58.4290981 108.174612,58.1993123 108.618421,58.1993123 C109.06173,58.1993123 109.312905,58.4290981 109.423483,58.5653213 C109.618619,58.8072266 109.699175,58.9070913 109.699175,60.2 C109.699175,61.4919391 109.623622,61.5850169 109.424483,61.8341939 M110.870492,58.0165502 C110.526752,57.4091206 109.754213,56.76 108.618421,56.76 C107.482129,56.76 106.70959,57.4091206 106.36635,58.0165502 C106.133188,58.4295829 106.052632,58.6511274 106.052632,60.2 C106.052632,61.7488726 106.133188,61.9704171 106.36635,62.3834498 C106.70959,62.9908794 107.482129,63.64 108.618421,63.64 C109.754213,63.64 110.526752,62.9908794 110.870492,62.3834498 C111.103154,61.9713867 111.184211,61.7503269 111.184211,60.2 C111.184211,58.6496731 111.103154,58.4286133 110.870492,58.0165502" id="Fill-36" fill="#4D3227" mask="url(#mask-6)"></path>
                        <polygon id="Fill-37" fill="#080200" mask="url(#mask-6)" points="123.157895 58.1678099 123.157895 56.76 118.026316 56.76 118.026316 63.64 119.66577 63.64 119.66577 60.9125222 122.644184 60.9125222 122.644184 59.5593702 119.66577 59.5593702 119.66577 58.1678099"></polygon>
                        <polygon id="Fill-38" fill="#4D3227" mask="url(#mask-6)" points="26.7894657 23.4236978 26.6630913 10.32 0 17.5971932 0 27.9676684 5.50651314 49.88 34.2105263 49.88"></polygon>
                        <polygon id="Fill-39" fill="#4D3227" mask="url(#mask-6)" points="30.8757102 24.4798123 38.2758239 51.6 49.6052632 51.6 41.6622302 22.6960678 41.4512753 12.04 30.7894737 15.3109158"></polygon>
                        <polygon id="Fill-40" fill="#4D3227" mask="url(#mask-6)" points="63.374199 0 44.4736842 6.11196453 44.7850022 21.2603431 52.943875 49.88 123.359329 49.88 129.969102 14.789399 130 0"></polygon>
                    </g>
                </g>
            </g>
        </g>
    </g>
</svg>