<?xml version="1.0" encoding="UTF-8"?>
<svg width="130px" height="111px" viewBox="0 0 130 111" version="1.1" xmlns="http://www.w3.org/2000/svg" xmlns:xlink="http://www.w3.org/1999/xlink">
    <title>33C38270-073F-4E9D-809D-41721AD9390C</title>
    <defs>
        <polygon id="path-1" points="0.000327632191 0.201130952 128.977333 0.201130952 128.977333 25.9510235 0.000327632191 25.9510235"></polygon>
        <polygon id="path-3" points="0.737287994 0.237896825 55.571077 0.237896825 55.571077 50.1246004 0.737287994 50.1246004"></polygon>
    </defs>
    <g id="Page-1" stroke="none" stroke-width="1" fill="none" fill-rule="evenodd">
        <g id="3-1-cause-pc" transform="translate(-984.000000, -494.000000)">
            <g id="Group" transform="translate(37.000000, 370.000000)">
                <g id="logo/77-colors" transform="translate(947.000000, 124.000000)">
                    <g id="Group-9" transform="translate(0.000000, 2.595238)">
                        <path d="M104.03356,3.905915 C102.421016,3.9838182 102.34299,5.22161349 103.886177,5.31682852 C110.761163,5.77126385 109.976565,17.3701848 93.6994073,35.664453 C69.255495,63.142643 27.0302513,69.1585013 32.6871595,40.637274 C33.8228759,34.8724372 39.1373353,27.0301817 45.695881,20.8368772 C47.5121604,19.1230068 46.4458007,18.131905 44.2740681,19.6986249 C32.9602516,27.8654771 24.1606166,38.2612264 22.4223636,48.8690455 C17.7581235,77.3426653 64.7646468,81.2291694 95.0475287,46.3458474 C113.249335,25.3812306 117.198334,3.27836144 104.03356,3.905915" id="Fill-1" fill="#EB6400"></path>
                        <g id="Group-5" transform="translate(0.000000, 81.750000)">
                            <mask id="mask-2" fill="white">
                                <use xlink:href="#path-1"></use>
                            </mask>
                            <g id="Clip-4"></g>
                            <path d="M109.521967,16.148869 C110.1373,15.39625 110.990967,15.0199405 111.909633,14.9204563 C112.3083,14.8685516 112.680967,14.9031548 112.8673,14.9723611 C113.040633,15.0285913 113.144633,15.0977976 113.170633,15.2491865 C113.304967,16.1056151 112.819633,16.8495833 111.7103,17.4983929 C110.830633,17.9958135 109.469967,18.39375 108.598967,18.687877 C108.581633,17.9482341 108.958633,16.8539087 109.521967,16.148869 L109.521967,16.148869 Z M70.7343,16.693869 C69.8589667,17.7492659 69.4343,18.458631 69.4516333,18.8133135 C69.4949667,19.4750992 69.7333,20.1195833 70.1796333,20.7510913 C69.7419667,21.0798214 69.2826333,21.3739484 68.7929667,21.620496 C68.2989667,21.8670437 67.8396333,21.9881548 67.4063,21.9881548 C66.9556333,21.9881548 66.5613,21.7675595 66.2406333,21.3133929 C65.9026333,20.8722024 65.7119667,20.3185516 65.6729667,19.6610913 C65.5949667,18.3418452 65.9806333,17.1091071 66.7476333,16.1315675 C67.6489667,14.9723611 68.4159667,14.3668056 69.6856333,14.3668056 C69.9889667,14.3668056 70.3139667,14.4706151 70.6693,14.6998611 C71.0203,14.9204563 71.2066333,15.1756548 71.2239667,15.461131 C71.2976333,15.8158135 71.1329667,16.2267262 70.7343,16.693869 L70.7343,16.693869 Z M44.6129667,16.693869 C43.7376333,17.7492659 43.3129667,18.458631 43.3346333,18.8133135 C43.3736333,19.4750992 43.6119667,20.1195833 44.0583,20.7510913 C43.6206333,21.0798214 43.1613,21.3739484 42.6759667,21.620496 C42.1863,21.8670437 41.4669667,21.9881548 41.0553,21.9881548 C40.6306333,21.9881548 40.2536333,21.7675595 39.9459667,21.3133929 C39.6209667,20.8722024 39.4433,20.3185516 39.4043,19.6610913 C39.3306333,18.3418452 39.7033,17.1134325 40.4313,16.1315675 C41.2849667,14.9723611 42.0866333,14.3668056 43.3476333,14.3668056 C43.6553,14.3668056 44.1883,14.4706151 44.5479667,14.6998611 C44.8946333,14.9204563 45.0809667,15.1756548 45.0983,15.461131 C45.1676333,15.8158135 45.0029667,16.2267262 44.6129667,16.693869 L44.6129667,16.693869 Z M128.748967,18.8565675 C127.981967,19.5745833 127.513967,20.0027976 127.3623,20.1282341 C126.382967,21.0019643 125.312633,21.5599405 124.688633,21.7502579 C125.065633,21.0106151 125.446967,20.007123 125.5943,19.1593452 C125.745967,18.3202183 125.7763,17.2950992 125.706967,16.1791468 C125.680967,15.7985119 125.650633,15.4351786 125.6203,15.0934722 C125.585633,14.7474405 125.3993,14.1202579 125.251967,13.1989484 C125.2823,12.9783532 125.433967,12.5328373 125.7113,11.8624008 C125.927967,11.3260516 126.027633,10.8805357 126.005967,10.5172024 C125.975633,10.0284325 125.810967,9.64779762 125.511967,9.36664683 C125.208633,9.08549603 124.805633,8.98168651 124.285633,9.04656746 C123.453633,9.14172619 122.9423,9.72132937 122.729967,10.7897024 C122.443967,12.3122421 122.248967,12.8356151 122.140633,12.9956548 C120.636967,15.1150992 118.868967,17.4854167 116.8583,19.440496 C116.134633,20.1152579 115.6363,20.5391468 114.8693,21.0019643 C113.772967,21.6680754 112.9063,21.9924802 111.779633,22.0443849 C110.6313,22.0962897 109.404967,21.6983532 109.1103,21.0927976 C109.881633,20.7208135 112.234633,19.9984722 114.275633,18.6792262 C115.939633,17.6065278 116.602633,16.2180754 116.359967,14.6912103 C116.238633,13.9385913 115.809633,13.3243849 115.0643,12.8529167 C114.327633,12.3814484 113.365633,12.2084325 112.390633,12.2473611 C110.3323,12.3295437 108.503633,13.0648611 107.038967,14.7604167 C105.738967,16.2613294 105.231967,17.913631 105.4183,19.8038294 C105.058633,20.050377 104.759633,20.257996 104.516967,20.4223611 C103.069633,21.3825992 102.159633,21.8800198 101.669967,21.8800198 C101.474967,21.8800198 101.370967,21.6724008 101.4533,21.3133929 C101.487967,21.1663294 101.7653,20.1801389 102.423967,18.372123 C102.8573,17.1480357 103.4553,15.5476389 104.213633,13.5666071 C104.5343,12.736131 104.776967,12.0959722 105.097633,11.2481944 L107.376967,11.2481944 C107.5763,10.9670437 107.7973,10.5258532 107.9013,10.3355357 C108.0833,9.98085317 108.169967,9.68672619 108.152633,9.44882937 C108.143967,9.25418651 108.065967,9.07684524 107.879633,8.96438492 C107.502633,8.7264881 107.0173,8.66593254 106.596967,8.66593254 C106.479967,8.66593254 106.2633,8.68323413 105.933967,8.73513889 L107.623967,5.01097222 C107.684633,4.84228175 107.7063,4.67791667 107.697633,4.52220238 C107.675967,4.17184524 107.554633,3.87339286 107.337967,3.62684524 C107.125633,3.37164683 106.7963,3.25053571 106.4193,3.25053571 C105.738967,3.25053571 105.019633,3.87339286 104.243967,5.12343254 C103.472633,6.36914683 102.982967,7.61486111 102.787967,8.86922619 L99.2433,8.86922619 C98.9573,9.58291667 98.7709667,10.5085516 98.8143,11.2481944 L101.795633,11.2481944 C101.8433,11.8926786 101.760967,12.4030754 101.418633,13.1643452 C101.162967,13.7050198 100.7903,14.3927579 100.3093,15.0458929 C99.1739667,16.5900595 97.6573,18.164504 96.2359667,19.5572817 C95.1483,20.5694246 93.9263,21.5512897 93.4843,21.6724008 C93.2589667,21.7372817 93.0553,21.6464484 93.1679667,21.3739484 C93.2719667,21.1057738 94.9316333,16.7284722 94.9316333,16.7284722 C94.4419667,16.48625 93.9869667,16.3391865 93.3543,16.3175595 C92.9729667,16.3002579 92.4096333,16.3867659 91.9026333,16.5641071 C91.2829667,17.7362897 90.9189667,18.5710913 90.5636333,19.1809722 C89.4066333,21.1533532 88.2756333,21.9881548 87.3613,21.9881548 C87.0623,21.9881548 86.8196333,21.8064881 86.6376333,21.4518056 C86.4513,21.0884722 86.3473,20.6732341 86.3213,20.2060913 C86.2259667,18.5494643 86.9193,17.1480357 88.3796333,16.1618452 C89.6753,15.2881151 91.2179667,14.8469246 93.0163,14.8469246 C93.7356333,14.8469246 94.4593,14.9593849 95.1873,15.1799802 C95.2003,15.0718452 95.2003,14.9031548 95.1873,14.6782341 C95.1526333,14.055377 95.0443,13.21625 94.8146333,12.5760913 C94.3249667,12.4247024 93.6359667,12.3252183 93.3889667,12.3079167 C93.1419667,12.2776389 92.8516333,12.2689881 92.5223,12.2689881 C89.9916333,12.2689881 87.8119667,12.9091468 85.8229667,14.5225198 C83.9466333,16.0407341 82.9369667,17.9568849 82.9413,19.9898214 C82.6899667,20.1931151 82.4819667,20.3618056 82.3129667,20.5002183 C81.0649667,21.4777579 80.3543,21.9665278 80.0943,21.9665278 C80.0293,21.9665278 79.8906333,22.0054563 79.7129667,21.9059722 C79.6653,21.8756944 79.5613,21.7978373 79.5483,21.6810516 C79.4573,20.9760119 79.8343,19.4924008 80.5579667,17.2258929 C81.1213,15.4654563 81.4419667,14.4489881 81.5156333,14.1678373 C82.5036333,12.4376786 83.1623,11.2092659 83.4916333,10.4955754 C84.1633,9.04224206 84.6703,7.69271825 85.0039667,6.44700397 C85.3289667,5.20128968 85.4459667,3.92529762 85.3636333,2.60172619 C85.3289667,2.13025794 85.1989667,1.71934524 84.9693,1.38628968 C84.7353,1.04458333 84.3756333,0.875892857 83.9509667,0.875892857 C83.4656333,1.00998016 83.0539667,1.38196429 82.6899667,1.98319444 C82.6423,2.0480754 82.4213,2.56712302 82.0183,3.5360119 C82.0183,3.5360119 78.9156333,13.6098611 78.5039667,14.8815278 C78.1356333,16.0364087 75.1413,18.7268056 74.5953,19.21125 C74.3656333,19.3669643 74.0753,19.5097024 73.8023,19.4534722 C73.9019667,19.1333929 73.9539667,18.8608929 73.9539667,18.6359722 C73.9496333,18.4024008 73.9453,18.1558532 73.9279667,17.8833532 C73.9149667,17.6800595 73.8846333,17.4335119 73.8543,17.1610119 C73.8499667,17.1177579 73.8456333,17.0485516 73.8413,16.9577183 C73.8369667,16.8668849 73.8369667,16.7500992 73.8543,16.6030357 C73.8629667,16.4473214 73.9539667,16.1877976 74.1229667,15.7985119 C74.2963,15.4092262 74.3786333,15.1107738 74.3656333,14.9074802 C74.3136333,13.9948214 73.8239667,13.1902976 72.9009667,12.4982341 C71.9823,11.8018452 71.0593,11.4514881 70.0236333,11.4514881 C67.7573,11.4514881 65.9633,12.3684722 64.4639667,14.1937897 C63.3849667,15.5087103 62.6786333,16.9620437 62.4749667,18.5537897 C61.8249667,18.9647024 60.5553,19.9595437 60.0526333,20.3099008 C58.3279667,21.5166865 56.7809667,21.9881548 55.7843,21.9881548 C55.1603,21.9881548 54.6446333,21.8151389 54.2373,21.3566468 C53.8299667,20.8981548 53.6046333,20.30125 53.5613,19.6437897 C53.4919667,18.4629563 53.7736333,17.3210516 54.4929667,16.2959325 C55.1126333,15.39625 55.9663,14.8425992 56.9369667,14.8425992 C57.2316333,14.8425992 57.4916333,14.9074802 57.7256333,15.0545437 C57.9553,15.1929563 58.1286333,15.4049008 58.1546333,15.690377 C58.2023,15.9758532 58.1676333,16.170496 58.0376333,16.5208532 C57.9076333,16.8841865 57.7819667,17.1610119 57.6389667,17.3729563 L60.3819667,17.3729563 C60.5943,16.9577183 60.7633,16.5641071 60.8629667,16.2310516 C61.0623,15.5433135 61.1446333,14.7387897 61.0926333,14.3192262 C61.0016333,13.5709325 60.6246333,12.9826786 60.0743,12.627996 C59.4329667,12.1997817 58.6486333,11.9878373 57.7126333,11.9878373 C55.4463,11.9878373 53.7043,12.7577579 52.0533,14.6047024 C50.9439667,15.8460913 50.4023,17.325377 50.2419667,18.8392659 C50.0989667,18.9084722 49.9776333,19.0122817 49.8043,19.1204167 C49.7523,19.1420437 49.3536333,19.3972421 48.9463,19.5226786 C48.6993,19.6005357 48.2876333,19.5226786 47.9279667,19.4534722 C48.0319667,19.1333929 48.0839667,18.8608929 48.0883,18.6359722 C48.0796333,18.4024008 48.0753,18.1558532 48.0579667,17.8833532 C48.0449667,17.6800595 48.0146333,17.4335119 47.9799667,17.1610119 C47.9756333,17.1177579 47.9713,17.0485516 47.9669667,16.9577183 C47.9626333,16.8668849 47.9583,16.7500992 47.9799667,16.6030357 C47.9929667,16.4473214 48.0883,16.1877976 48.2616333,15.7985119 C48.4479667,15.4092262 48.5303,15.1107738 48.5129667,14.9074802 C48.4566333,13.9948214 47.9496333,13.1902976 46.9833,12.4982341 C46.0256333,11.8018452 44.9293,11.4514881 43.8459667,11.4514881 C41.4843,11.4514881 39.5603,12.3684722 38.0566333,14.1937897 C36.8996333,15.6081944 36.1759667,17.1826389 36.0373,18.9127976 C35.7686333,19.0901389 35.5086333,19.2977579 35.3613,19.4275198 C34.7546333,19.9465675 34.2649667,20.4007341 33.7233,20.8159722 C32.8783,21.4604563 32.1416333,21.8194643 31.6606333,21.9405754 C31.4786333,21.9881548 31.2749667,21.9535516 31.3356333,21.8237897 C31.3919667,21.707004 32.9823,17.6627579 33.2813,16.9620437 C34.1999667,14.829623 34.6463,13.4065675 34.5986333,12.6885516 C34.5769667,12.3079167 34.4209667,12.0094643 34.1479667,11.7802183 C33.8706333,11.5639484 33.5543,11.4514881 33.1946333,11.4514881 C32.5836333,11.4514881 32.0246333,11.4385119 30.9326333,12.0483929 C30.0919667,12.5285119 29.2513,13.1210913 28.0293,13.9861706 C27.4703,14.3797817 26.0923,15.4654563 25.3556333,16.1791468 C25.8626333,14.7474405 26.2613,13.7482738 27.4919667,11.0838294 C29.2946333,7.16501984 29.3683,7.07418651 29.4073,7.00930556 C30.2696333,5.01529762 30.6639667,3.62251984 30.6163,2.82232143 C30.5816333,2.34652778 30.4213,1.9139881 30.1309667,1.53767857 C29.8319667,1.15704365 29.4636333,0.971051587 29.0173,0.971051587 C28.6013,0.971051587 28.2459667,1.11811508 27.9643,1.42089286 C27.7693,1.6371627 27.5699667,1.97021825 27.3923,2.42871032 C27.0543,3.2678373 26.7163,4.11561508 26.4043,4.95474206 C25.9969667,5.94958333 25.6503,6.79736111 24.6146333,9.33636905 C24.1509667,10.4739484 24.0556333,10.8113294 23.9169667,11.1962897 C23.9169667,11.1962897 22.5476333,13.3935913 18.5566333,16.9317659 C16.8926333,18.2942659 15.7356333,19.3020833 13.9806333,20.3791071 C12.7673,21.11875 10.6873,22.0616865 9.1533,22.187123 C8.0093,22.2779563 6.3453,21.9492262 5.37896667,21.140377 C4.4343,20.3531548 3.9273,19.1333929 3.77996667,18.0650198 C3.4203,15.4005754 4.81996667,11.7802183 7.90963333,8.26799603 C10.7046333,5.06287698 13.2223,3.40625 15.7919667,3.40625 C16.4289667,3.40625 16.9923,3.55331349 17.4863,3.84744048 C17.9803,4.14589286 18.2359667,4.55248016 18.2663,5.07585317 C18.3659667,6.61569444 17.5599667,8.10363095 15.8483,9.52236111 C14.6133,10.534504 13.0576333,11.4255357 11.1639667,12.1824802 C10.9949667,12.7318056 10.8606333,13.3114087 10.7653,13.9256151 C10.6613,14.5398214 10.6093,15.167004 10.6006333,15.8114881 C13.2483,15.3400198 16.6629667,13.7093452 18.5956333,11.8624008 C20.8966333,9.68240079 21.9409667,6.71950397 21.7546333,4.50490079 C21.6593,3.4105754 21.0829667,2.34220238 19.9129667,1.48577381 C18.7386333,0.633670635 17.4473,0.201130952 16.0476333,0.201130952 C13.2483,0.201130952 10.5096333,1.50740079 7.7753,3.75660714 C5.37896667,5.74628968 3.3683,8.14255952 1.78663333,11.0968056 C0.4303,13.6531151 -0.185033333,16.2224008 0.0489666667,18.3245437 C0.278633333,20.344504 0.9893,22.6456151 2.7053,24.094623 C4.20896667,25.3662897 6.4883,26.0756548 8.5683,25.9329167 C11.4803,25.7339484 13.8289667,24.432004 15.6663,23.2727976 C16.9229667,22.4769246 18.9033,20.6472817 20.1816333,19.2458532 C20.5889667,18.8392659 21.1869667,18.2380357 21.1913,18.2207341 C21.1653,18.4629563 19.6703,21.8410913 19.4319667,22.4120437 C19.2803,22.8878373 19.2153,23.3074008 19.2413,23.6880357 C19.2196333,24.0297421 19.3019667,24.345496 19.4753,24.6439484 C19.6486333,24.9467262 19.8913,25.1500198 20.1816333,25.1500198 C21.5249667,25.1500198 22.5649667,22.4769246 23.4316333,21.140377 C23.7219667,20.6948611 25.0609667,19.4275198 26.3176333,18.415377 C27.8733,17.1696627 29.6889667,15.8201389 30.4299667,15.4870833 C30.4299667,15.4870833 27.6349667,22.6153373 27.5309667,23.1516865 C27.4313,23.6837103 27.6219667,24.0470437 27.9123,24.38875 C28.2113,24.7434325 28.6316333,24.912123 29.0649667,24.912123 L29.4723,24.912123 C30.5989667,24.912123 32.0073,24.5401389 33.2683,23.8048214 C34.0743,23.3333532 35.3179667,22.3298611 36.2496333,21.4950595 C36.4403,22.2390278 36.7479667,22.8835119 37.1596333,23.4198611 C37.9483,24.3974008 39.2049667,24.890496 40.6046333,24.890496 C41.6576333,24.890496 42.9056333,24.6439484 44.0496333,24.159504 C45.1849667,23.6707341 46.0733,23.0781548 46.7449667,22.3255357 C46.9963,22.0487103 47.4253,21.9838294 47.5813,21.9838294 L48.1446333,21.9838294 C48.6689667,21.9838294 49.1673,21.8497421 49.5399667,21.6507738 C49.7869667,21.5253373 50.0513,21.347996 50.2939667,21.1490278 C50.5063,22.3644643 51.0696333,23.29875 51.9233,23.9691865 C52.6729667,24.5531151 53.7866333,24.8645437 55.1559667,24.8645437 C56.5859667,24.8645437 58.3063,24.2157341 59.3679667,23.6188294 C60.6636333,22.8878373 61.7383,21.9665278 62.6179667,21.369623 C62.8086333,22.1698214 63.1206333,22.8532341 63.5583,23.4198611 C64.3469667,24.3974008 65.6036333,24.890496 67.0033,24.890496 C68.0606333,24.890496 69.0009667,24.6439484 70.0929667,24.159504 C71.1763,23.6707341 71.9996333,23.047877 72.6756333,22.3255357 C73.0049667,21.9708532 73.3213,21.9838294 73.4729667,21.9838294 L74.0103,21.9838294 C74.5086333,21.9838294 75.1326333,21.5685913 75.5096333,21.2614881 C75.7046333,21.1057738 75.8736333,20.9500595 76.0296333,20.7943452 C76.2159667,20.6256548 76.4413,20.3747817 76.7099667,20.072004 C76.5366333,20.6343056 76.2159667,21.6810516 76.1206333,22.1914484 C76.0253,22.7148214 75.9516333,23.3160516 75.9559667,23.6577579 C75.9559667,23.9951389 76.2116333,24.367123 76.5886333,24.5660913 C76.9656333,24.7650595 77.5203,24.868869 78.0013,24.890496 C79.1193,24.9424008 80.3153,24.5055357 81.5676333,23.7183135 C82.1743,23.3506548 82.7679667,22.9008135 83.3443,22.3817659 C83.4873,22.75375 83.6606333,23.0868056 83.8686333,23.3766071 C84.5013,24.2503373 85.5153,24.7996627 86.6766333,24.890496 C87.8336333,24.977004 89.4153,24.2200595 90.2559667,23.1214087 C90.2863,23.2208929 90.3036333,23.527996 90.3209667,23.6318056 C90.3686333,23.9821627 90.6199667,24.3714484 90.8583,24.5444643 C91.1963,24.7910119 91.7249667,24.890496 92.2623,24.890496 C93.2026333,24.890496 94.3553,24.0816468 95.4083,23.2468452 C95.9629667,22.8056548 96.5263,22.230377 97.3106333,21.4172024 L98.8099667,19.9076389 C98.8099667,19.9076389 97.7526333,22.9397421 97.7526333,23.2944246 C97.7483,23.778869 98.1339667,24.3022421 98.5283,24.5833929 C98.9226333,24.8645437 99.4599667,24.9294246 99.9323,24.890496 C101.093633,24.890496 102.3633,24.4406548 103.745633,23.6577579 C104.516967,23.2165675 105.292633,22.6672421 106.076967,22.0097817 C106.3933,22.5634325 106.817967,23.069504 107.3553,23.5236706 C108.412633,24.4147024 109.6043,24.7823611 110.804633,24.8775198 C112.212967,24.9899802 113.590967,24.6482738 114.9473,24.0124405 C115.8573,23.57125 116.619967,23.02625 117.2743,22.4423214 C120.0823,20.007123 122.296633,17.1350595 122.296633,17.1350595 C122.322633,17.238869 122.3833,17.3989087 122.430967,17.6800595 C122.452633,17.8660516 122.469967,18.0823214 122.469967,18.2510119 C122.495967,19.0252579 122.3443,20.0893056 121.9673,20.9976389 C121.555633,21.9881548 121.2653,22.4682738 121.013967,22.5288294 C120.753967,22.5807341 118.8213,22.3687897 118.114967,22.5374802 C117.967633,22.5764087 117.837633,22.6196627 117.8203,22.7710516 C117.7943,22.9267659 117.789967,23.1343849 117.8073,23.4025595 C117.8333,23.8394246 118.0803,24.2243849 118.552633,24.5574405 C119.020633,24.8861706 119.527633,25.0505357 120.073633,25.0505357 C122.378967,25.0505357 124.393967,24.6136706 126.131633,23.7356151 C127.266967,23.1560119 128.2203,22.4250198 128.978633,21.5512897 L128.748967,18.8565675 Z" id="Fill-3" fill="#471100" mask="url(#mask-2)"></path>
                        </g>
                        <g id="Group-8" transform="translate(44.200000, 0.000000)">
                            <mask id="mask-4" fill="white">
                                <use xlink:href="#path-3"></use>
                            </mask>
                            <g id="Clip-7"></g>
                            <path d="M29.6864286,3.56975 C28.8441214,6.44613889 31.8205643,8.03355952 35.5782143,8.40121825 C38.3539,8.66506746 41.3652571,7.96867857 43.1764357,7.73510714 C44.2849643,7.59236905 44.7694,8.55260714 44.0012857,9.04137698 C38.8601571,12.2940754 32.4228357,17.2726071 30.0050214,24.7295913 C27.8796143,31.2868929 30.3847143,36.0924087 35.2028857,36.4341151 C39.5409857,36.7368929 42.9276714,33.479869 44.2282286,27.6232817 C45.2538357,23.0470119 45.0879929,19.0546706 45.4240429,16.4378056 C45.9303,12.4195119 47.2483143,10.2654643 51.3114643,7.41935317 C52.4156286,6.64510714 54.27045,5.93574206 55.0298357,5.59836111 C55.9594286,5.19177381 55.6233786,4.19693254 54.5410357,4.20558333 C53.29285,4.20990873 50.8750357,4.05851984 48.1386286,3.42268651 C45.3149357,2.76955159 42.2730286,1.17348016 38.8863429,0.503043651 C35.0414071,-0.266876984 30.5549214,0.598202381 29.6864286,3.56975 M13.3858214,7.99463095 C17.3529571,8.41419444 21.0495071,10.1876071 24.33145,10.7239563 C27.3209857,11.2040754 31.0786357,10.8580437 32.0736929,10.7066548 C33.12985,10.5552659 33.2869643,11.5890357 32.4926643,12.0691548 C31.5237929,12.6530833 28.7175571,14.4957024 27.9145286,15.1964167 C24.2659857,18.3755833 22.3500643,21.0270516 21.1237,26.3170119 C20.4341429,29.2799087 20.3381286,34.5309405 19.1859571,39.8079246 C17.5449857,47.3168135 13.1021429,50.2624087 7.95228571,50.1196706 C2.39655,49.959631 -1.26072143,42.7535198 1.91647857,35.4695516 C5.38608571,27.528123 15.3759357,20.3652659 20.5519786,17.3201865 C21.6779643,16.6540754 21.3637357,15.7024881 19.8624214,16.0658214 C18.0468786,16.5026865 13.0934143,17.5926865 9.47105714,17.3201865 C5.09367857,16.9914563 2.52311429,14.8374087 3.07301429,12.311377 C3.86731429,8.68236905 8.31452143,7.45395635 13.3858214,7.99463095" id="Fill-6" fill="#471100" mask="url(#mask-4)"></path>
                        </g>
                    </g>
                </g>
            </g>
        </g>
    </g>
</svg>