<?xml version="1.0" encoding="UTF-8"?>
<svg width="206px" height="59px" viewBox="0 0 206 59" version="1.1" xmlns="http://www.w3.org/2000/svg" xmlns:xlink="http://www.w3.org/1999/xlink">
    <title>B1589AD2-6D6D-47FA-8AB6-BD7238F4A412</title>
    <defs>
        <polygon id="path-1" points="0 0.423433511 25.666324 0.423433511 25.666324 32.7779008 0 32.7779008"></polygon>
        <polygon id="path-3" points="0.587062533 1.17770802 10.8829796 1.17770802 10.8829796 15.1510747 0.587062533 15.1510747"></polygon>
        <polygon id="path-5" points="0.182219703 0.473418956 8.53181797 0.473418956 8.53181797 6.84017245 0.182219703 6.84017245"></polygon>
        <polygon id="path-7" points="0 50.402953 202.833074 50.402953 202.833074 1.17770802 0 1.17770802"></polygon>
    </defs>
    <g id="Page-1" stroke="none" stroke-width="1" fill="none" fill-rule="evenodd">
        <g id="3-1-cause-pc" transform="translate(-287.000000, -989.000000)">
            <g id="Group-2" transform="translate(166.000000, 989.000000)">
                <g id="logo/77-colors-copy" transform="translate(121.000000, 0.000000)">
                    <g id="Group-30" transform="translate(0.000000, 4.068966)">
                        <polygon id="Fill-1" fill="#AF8F6E" points="86.7744789 18.8708656 77.15954 46.0395077 66.7453238 18.8708656 62.7642857 18.8708656 74.7097612 50.3223082 78.7533719 50.3223082 89.9621429 18.8708656"></polygon>
                        <g id="Group-29">
                            <path d="M150.687599,20.8894424 L150.687599,49.9522768 L154.690703,49.9522768 L154.690703,22.7445169 C168.643028,17.4952338 172.37959,23.4649103 172.37959,29.337469 L172.37959,49.9522768 L176.382694,49.9522768 L176.382694,29.337469 C176.382694,18.7430142 166.445929,13.7494338 150.687599,20.8894424" id="Fill-2" fill="#AF8F6E"></path>
                            <g id="Group-6" transform="translate(0.000000, 17.210764)">
                                <mask id="mask-2" fill="white">
                                    <use xlink:href="#path-1"></use>
                                </mask>
                                <g id="Clip-5"></g>
                                <path d="M9.51191834,16.4301333 L3.85102598,16.4301333 L3.85102598,4.14779423 C13.0628983,1.84032245 17.9391126,5.03414859 17.9391126,9.38232529 C17.9391126,14.3857404 13.4228539,16.4301333 9.51191834,16.4301333 M21.9384801,9.36019717 C21.9384801,3.82816574 15.5165745,-3.03278256 -0.000124552087,2.4181124 L0.0110851358,32.7779008 L3.85102598,32.7779008 L3.85102598,19.2662214 L10.2467757,19.2686801 L21.1201729,32.7692955 L25.666324,32.7692955 L14.2212328,18.538452 C16.7857602,17.9299285 21.9384801,14.8676418 21.9384801,9.36019717" id="Fill-4" fill="#AF8F6E" mask="url(#mask-2)"></path>
                            </g>
                            <path d="M45.692805,17.7038528 C43.9714952,18.5361162 41.8852477,20.9173484 41.8852477,23.9636537 L41.8852477,49.9887882 L45.8310578,49.9887882 L45.8061474,17.7751546 C45.8061474,17.7186049 45.7451169,17.6780367 45.692805,17.7038528" id="Fill-7" fill="#AF8F6E"></path>
                            <g id="Group-11" transform="translate(34.874584, 0.000000)">
                                <mask id="mask-4" fill="white">
                                    <use xlink:href="#path-3"></use>
                                </mask>
                                <g id="Clip-10"></g>
                                <path d="M10.87539,15.1089613 C5.65541207,10.3157634 8.79163362,6.28598584 5.9917027,2.84875031 C5.03016059,1.66981295 2.66242541,0.632249725 0.602333893,1.49770531 C0.581160038,1.50754003 0.582405559,1.53458552 0.603579414,1.5431909 C3.24159262,2.52420447 2.2078103,6.00938427 2.64623364,8.93398488 C3.03857272,11.5537091 4.61540214,14.0627927 10.8542162,15.1507589 C10.8778811,15.1544469 10.8928273,15.1249427 10.87539,15.1089613" id="Fill-9" fill="#AF8F6E" mask="url(#mask-4)"></path>
                            </g>
                            <path d="M44.6486849,3.24115574 C43.283594,4.95977351 42.2772131,10.4954929 45.5516875,14.0765613 C45.5678793,14.0950014 45.5965263,14.0814787 45.5940352,14.0581212 C45.2901281,11.5601017 46.6041526,9.65708285 47.5009277,8.53100712 C48.836126,6.85295759 49.9583403,6.02192354 49.696781,4.04760299 C49.4202753,1.95772445 46.389923,1.04924196 44.6486849,3.24115574" id="Fill-12" fill="#AF8F6E"></path>
                            <path d="M34.3542058,2.98606763 C33.2033445,3.16800999 33.0339536,4.71943747 33.2818123,6.2266087 C33.7015528,8.7725725 36.2374333,11.1906849 38.3797292,12.4483 C38.4033941,12.4630521 38.4283045,12.4323186 38.4096217,12.4114198 C36.4404532,10.3448988 36.3433026,8.28944175 36.3146556,5.87870539 C36.2847631,3.50239056 35.1999144,2.85206953 34.3542058,2.98606763" id="Fill-14" fill="#AF8F6E"></path>
                            <path d="M118.966922,47.2950577 C112.885044,47.2950577 108.325192,42.6444633 108.325192,33.8042771 C108.325192,24.9640909 112.885044,20.3134964 118.966922,20.3134964 C125.048801,20.3134964 129.608653,24.9640909 129.608653,33.8042771 C129.608653,42.6444633 125.048801,47.2950577 118.966922,47.2950577 M118.966922,17.2044948 C110.568375,17.2044948 104.272267,22.927074 104.272267,33.8042771 C104.272267,44.6814802 110.568375,50.40283 118.966922,50.40283 C127.36547,50.40283 133.661578,44.6814802 133.661578,33.8042771 C133.661578,22.927074 127.36547,17.2044948 118.966922,17.2044948" id="Fill-16" fill="#AF8F6E"></path>
                            <path d="M189.540751,27.2391081 C190.119918,26.6809875 190.577024,26.2076915 191.006729,25.6335896 L191.006729,32.3420997 L192.116488,32.3420997 L192.116488,25.3606761 C192.536228,25.7208728 192.977143,26.115491 193.411829,26.6084565 L193.819115,27.0670004 L193.8926,25.6508004 L193.821606,25.5745813 C193.22251,24.934095 192.795297,24.5702102 192.089086,24.1030609 C192.675727,23.1945784 193.449195,21.8091119 193.551328,20.1347504 C193.565028,19.9110104 193.471614,19.5717125 193.232474,19.3209271 C193.053119,19.1316087 192.823944,19.0320321 192.569857,19.0320321 L192.106524,19.0320321 L192.106524,17.6846751 L191.012956,17.6846751 L191.012956,19.0320321 L189.375096,19.0320321 L189.375096,20.0536139 L192.14638,20.0536139 C192.292106,20.0536139 192.388011,20.0831181 192.437832,20.1421264 C192.488898,20.2023641 192.500108,20.3056287 192.472707,20.4568375 C192.11026,22.3684617 190.970609,24.3452409 189.174567,26.1744993 L189.102327,26.2470304 L189.125992,27.6386437 L189.540751,27.2391081 Z" id="Fill-18" fill="#AF8F6E"></path>
                            <g id="Group-22" transform="translate(194.301256, 17.210764)">
                                <mask id="mask-6" fill="white">
                                    <use xlink:href="#path-5"></use>
                                </mask>
                                <g id="Clip-21"></g>
                                <path d="M7.44111534,3.80001385 L6.10965353,3.80001385 L6.10965353,2.7403225 L7.22688575,2.7403225 C7.34521023,2.7403225 7.44111534,2.8349817 7.44111534,2.95176903 L7.44111534,3.80001385 Z M7.44111534,5.63910696 C7.44111534,5.75466495 7.34521023,5.84932416 7.22688575,5.84932416 L6.10965353,5.84932416 L6.10965353,4.74414721 L7.44111534,4.74414721 L7.44111534,5.63910696 Z M3.70081616,3.80001385 L5.01733172,3.80001385 L5.01733172,2.7403225 L3.70081616,2.7403225 L3.70081616,3.80001385 Z M3.70081616,5.84932416 L5.01733172,5.84932416 L5.01733172,4.74291787 L3.70081616,4.74291787 L3.70081616,5.84932416 Z M2.60973988,3.80001385 L1.29073328,3.80001385 L1.29073328,2.95176903 C1.29073328,2.8349817 1.38663839,2.7403225 1.50371735,2.7403225 L2.60973988,2.7403225 L2.60973988,3.80001385 Z M2.60973988,5.84932416 L1.50371735,5.84932416 C1.38663839,5.84932416 1.29073328,5.75466495 1.29073328,5.63910696 L1.29073328,4.74414721 L2.60973988,4.74414721 L2.60973988,5.84932416 Z M7.44360638,1.76545563 L6.14203707,1.76545563 L6.14203707,0.473418956 L5.0335235,0.473418956 L5.0335235,1.76545563 L3.68462439,1.76545563 L3.68462439,0.473418956 L2.57735634,0.473418956 L2.57735634,1.76545563 L1.27080494,1.76545563 C0.670463885,1.76545563 0.182219703,2.24735703 0.182219703,2.83989906 L0.182219703,5.76695836 C0.182219703,6.35827105 0.670463885,6.84017245 1.27080494,6.84017245 L7.44360638,6.84017245 C8.04394744,6.84017245 8.53219162,6.35827105 8.53219162,5.76695836 L8.53219162,2.83989906 C8.53219162,2.24735703 8.04394744,1.76545563 7.44360638,1.76545563 L7.44360638,1.76545563 Z" id="Fill-20" fill="#AF8F6E" mask="url(#mask-6)"></path>
                            </g>
                            <path d="M201.270443,28.5104918 C201.270443,28.5190972 201.26297,28.5264732 201.26297,28.5264732 L196.031783,28.5264732 C196.023064,28.5264732 196.015591,28.5190972 196.015591,28.5104918 L196.015591,27.2196845 C196.015591,27.2098498 196.023064,27.2037031 196.031783,27.2037031 L201.254252,27.2037031 C201.254252,27.2037031 201.270443,27.2098498 201.270443,27.2196845 L201.270443,28.5104918 Z M200.546796,31.3330572 L196.790305,31.3330572 L196.572339,29.5013401 L200.834511,29.5013401 L200.546796,31.3330572 Z M201.881994,29.4546252 C202.127362,29.3624246 202.377711,29.1313087 202.377711,28.8104508 L202.377711,27.080769 C202.377711,26.6025556 201.984127,26.2128548 201.499619,26.2128548 L195.78766,26.2128548 C195.303153,26.2128548 194.909568,26.5951796 194.909568,27.0647876 L194.909568,28.6235911 C194.909568,29.0845937 195.12878,29.3931582 195.514891,29.4779826 L195.736594,31.3330572 L194.47239,31.3330572 L194.47239,32.3239055 L202.82859,32.3239055 L202.82859,31.3330572 L201.586806,31.3330572 L201.881994,29.4546252 Z" id="Fill-23" fill="#AF8F6E"></path>
                            <mask id="mask-8" fill="white">
                                <use xlink:href="#path-7"></use>
                            </mask>
                            <g id="Clip-26"></g>
                            <polygon id="Fill-25" fill="#AF8F6E" mask="url(#mask-8)" points="194.475629 25.6391216 202.829337 25.6391216 202.829337 24.6642548 194.475629 24.6642548"></polygon>
                            <path d="M197.669518,35.3383709 L196.529866,35.3383709 L196.529866,37.1209143 L194.198251,37.1209143 L194.198251,38.1412668 L196.527375,38.1412668 L196.527375,40.8064766 C196.527375,44.4944975 195.661738,47.100699 194.363906,49.8777788 L194.316576,49.9773553 L195.570815,49.9773553 L195.589498,49.9355578 C196.760288,47.3207509 197.553685,44.8006033 197.623434,41.0252992 L201.166941,41.0252992 C201.447183,41.0252992 201.675113,41.2502684 201.675113,41.52687 L201.675113,47.3096869 C201.675113,48.21694 200.931537,48.9016826 199.94633,48.9016826 L198.913793,48.9016826 L198.913793,49.9884194 L199.94633,49.9884194 C201.533124,49.9884194 202.776154,48.8119407 202.776154,47.3096869 L202.776154,41.52687 C202.776154,40.6503504 202.054997,39.9385623 201.166941,39.9385623 L197.657063,39.9385623 L197.657063,38.1412668 L202.783627,38.1412668 L202.783627,37.1209143 L197.669518,37.1209143 L197.669518,35.3383709 Z" id="Fill-27" fill="#AF8F6E" mask="url(#mask-8)"></path>
                            <path d="M194.317323,45.8178824 L194.220172,45.8559919 C194.207717,45.8609093 193.029455,46.3243706 192.254741,46.5862201 L192.254741,41.0320605 L194.317323,41.0320605 L194.317323,39.9957266 L192.254741,39.9957266 L192.254741,35.3389855 L191.141245,35.3389855 L191.141245,39.9957266 L188.971548,39.9957266 L188.971548,41.0320605 L191.141245,41.0320605 L191.141245,46.9476461 C190.473646,47.1467993 189.759962,47.3287416 189.023859,47.4897852 L188.967811,47.5020786 L188.967811,48.56177 L189.051261,48.5457885 C191.202275,48.1487116 194.242592,46.9304354 194.272484,46.918142 L194.317323,46.8997019 L194.317323,45.8178824 Z" id="Fill-28" fill="#AF8F6E" mask="url(#mask-8)"></path>
                        </g>
                    </g>
                </g>
            </g>
        </g>
    </g>
</svg>