<?xml version="1.0" encoding="UTF-8"?>
<svg width="190px" height="57px" viewBox="0 0 190 57" version="1.1" xmlns="http://www.w3.org/2000/svg" xmlns:xlink="http://www.w3.org/1999/xlink">
    <title>80ACA382-E829-48E9-ABF4-A970E3A9DCD8</title>
    <defs>
        <polygon id="path-1" points="0.181269508 1.26156556 40.7058594 1.26156556 40.7058594 53.3225806 0.181269508 53.3225806"></polygon>
        <polygon id="path-3" points="0 53.9606129 188.407619 53.9606129 188.407619 1.83870968 0 1.83870968"></polygon>
    </defs>
    <g id="Page-1" stroke="none" stroke-width="1" fill="none" fill-rule="evenodd">
        <g id="6-2-EDM-header-pc" transform="translate(-73.000000, -45.000000)">
            <g id="logo/HUNYA-H-white" transform="translate(73.000000, 45.000000)">
                <g id="HUNYA-H-white">
                    <g id="logo-HUNYA-H-white">
                        <path d="M38.8844952,44.7413226 C40.5818286,39.3447097 40.1276381,33.5325484 40.1276381,32.5635484 C40.1276381,30.9969677 40.1638286,28.728 36.924781,29.0019677 L36.9193524,29.0019677 L36.9229714,29.0148387 C36.772781,29.0148387 36.6189714,29.0295484 36.4633524,29.0516129 C33.8829714,29.4708387 32.8768762,29.4101613 32.7194476,31.8997742 C32.6669714,32.8614194 32.7556381,35.4282581 32.5602095,37.4398065 C32.0662095,42.5753226 31.2356381,45.6110323 27.5152571,47.8321935 C23.8744952,50.0037097 19.3253524,49.1100968 15.4855429,48.6927097 C15.4855429,48.6927097 17.3801143,39.4936452 16.8028762,29.9305161 C16.7142095,28.4154194 16.6291619,27.1044194 16.5151619,25.8191613 C15.6031619,15.5113548 19.3253524,11.070871 27.9296381,9.80032258 C27.9296381,9.80032258 31.186781,9.46567742 34.0675429,9.85364516 C26.1273524,1.99316129 15.0458286,-0.807193548 6.66773333,4.73283871 C-0.809219048,9.69183871 -2.52102857,24.2562581 4.22668571,36.9709355 C13.3665905,54.1959677 24.3612571,55.334129 31.1469714,53.0173548 C34.7859238,51.7780645 37.2432571,48.6283548 38.8682095,44.7302903 C38.8682095,44.7302903 38.8754476,44.7339677 38.8844952,44.7413226" id="Fill-1" fill="#FEFEFE"></path>
                        <g id="Group-5" transform="translate(32.571429, 0.638032)">
                            <mask id="mask-2" fill="white">
                                <use xlink:href="#path-1"></use>
                            </mask>
                            <g id="Clip-4"></g>
                            <path d="M37.2396381,19.0157516 C27.6708762,-1.6403129 12.2591619,0.420880645 7.5164,2.54459032 C4.73697143,3.78939677 2.8116381,6.22200968 1.49611429,9.21542903 L1.49792381,9.21542903 L1.5051619,9.21542903 C-0.222933333,14.6249129 0.236685714,20.470171 0.236685714,21.439171 C0.236685714,23.0462032 0.202304762,25.3997516 3.70735238,24.9805258 C3.77249524,24.9658161 3.83944762,24.9621387 3.90820952,24.9492677 C6.48678095,24.5337194 7.4856381,24.5907194 7.63944762,22.1103 C7.69554286,21.1431387 7.61049524,18.5707839 7.80592381,16.5610742 C8.30354286,11.4292355 9.12687619,8.38984839 12.8508762,6.16684839 C16.4934476,3.99900968 21.0389714,4.89997742 24.8805905,5.30817097 C24.8805905,5.30817097 22.978781,14.5127516 23.5614476,24.0722032 C23.6501143,25.5873 23.738781,26.8983 23.8473524,28.1909129 C24.7629714,38.4895258 21.0389714,42.9318484 12.4383048,44.2042355 C12.4383048,44.2042355 9.22820952,44.524171 6.36554286,44.1601065 C13.7013524,52.250429 24.2472571,56.1779129 32.8081143,50.9541387 C40.6379238,46.1753323 43.620019,32.7987194 37.2396381,19.0157516" id="Fill-3" fill="#FEFEFE" mask="url(#mask-2)"></path>
                        </g>
                        <path d="M115.958086,22.1022097 L115.958086,17.5311774 L122.108657,17.5311774 L122.108657,11.0276613 L125.373038,11.0276613 L125.373038,17.5311774 L131.518181,17.5311774 L131.518181,22.1022097 L125.373038,22.1022097 L125.373038,28.8282097 L122.108657,28.8282097 L122.108657,22.1022097 L115.958086,22.1022097 Z M113.422943,31.6929194 L135.5878,31.6929194 L135.5878,30.2642419 C135.562467,29.4644032 134.923705,28.8355645 134.125705,28.8282097 L128.156086,28.8282097 L128.156086,24.8565968 L132.810181,24.8529194 C133.635324,24.8529194 134.303038,24.1946613 134.303038,23.3837903 L134.303038,16.2440806 C134.303038,15.4460806 133.644371,14.7859839 132.835514,14.7767903 L128.156086,14.7767903 L128.156086,11.0313387 L134.10399,11.0313387 C134.90561,11.016629 135.555229,10.3638871 135.560657,9.56037097 L135.560657,8.26959677 L113.464562,8.26959677 C112.655705,8.26959677 111.998848,8.91866129 111.984371,9.71666129 L111.984371,11.0313387 L119.320181,11.0313387 L119.320181,14.7767903 L114.635324,14.7767903 C113.837324,14.7859839 113.196752,15.4129839 113.173229,16.2109839 L113.173229,23.4205645 C113.196752,24.2240806 113.844562,24.8529194 114.64799,24.8529194 L119.320181,24.8565968 L119.320181,28.8282097 L111.9518,28.8282097 L111.9518,30.2679194 C111.986181,31.0622419 112.630371,31.6929194 113.422943,31.6929194 L113.422943,31.6929194 Z" id="Fill-6" fill="#FEFEFE"></path>
                        <path d="M108.848105,28.8787742 C106.750867,25.7437742 105.587343,22.6473871 105.55839,21.7445806 C105.55839,21.7445806 103.703629,22.274129 103.377914,23.0353548 C103.169819,23.4674516 103.20239,24.0466452 103.479248,24.8170645 C103.909914,26.106 105.008295,28.158 105.433533,28.9173871 L96.1723905,28.9173871 C96.1886762,28.8879677 97.8624857,25.4569355 99.0441048,20.0621613 L96.1651524,20.0621613 C95.3110571,23.4784839 94.0534381,26.9940968 92.8754381,29.2483548 C92.8374381,29.3219032 92.2746762,30.3037742 92.7831524,31.1128065 C93.0220095,31.476871 93.4671524,31.6883226 94.0299143,31.692 L106.752676,31.692 C107.907152,31.692 108.658105,31.4106774 108.985629,30.8664194 C109.479629,30.0757742 108.848105,28.8787742 108.848105,28.8787742" id="Fill-8" fill="#FEFEFE"></path>
                        <path d="M85.1120381,29.2450452 C85.4775619,30.7950774 85.9190857,31.8744 87.7937524,31.8744 C90.8934667,31.8210774 93.8375619,23.4714968 94.7242286,19.0475613 L107.75099,19.0475613 C108.559848,19.0475613 109.214895,18.3966581 109.227562,17.6023355 L109.227562,16.2766258 L95.3213714,16.2766258 C95.4806095,15.4363355 95.8189905,13.7171419 96.128419,13.1177226 C96.128419,13.1177226 94.601181,13.1103677 94.6120381,13.1177226 C93.1427048,13.1692065 92.6468952,13.5663677 92.3537524,15.4179484 L92.1999429,16.2766258 L87.3685143,16.2766258 C86.5687048,16.2766258 85.9263238,16.8889161 85.8919429,17.6703677 L85.8919429,19.0475613 L91.6932762,19.0475613 C90.5026095,24.6354 88.1538476,28.6640129 85.7562286,29.1531097 C85.7562286,29.1531097 85.412419,29.2726258 85.1120381,29.2450452" id="Fill-10" fill="#FEFEFE"></path>
                        <path d="M85.891581,15.1388323 L88.9478667,15.1388323 L88.9478667,12.0865742 L106.163676,12.0865742 L106.163676,15.1388323 L109.216343,15.1388323 L109.212724,10.7718968 C109.212724,9.97021935 108.559486,9.30828387 107.748819,9.30828387 L99.3906286,9.30828387 C99.3906286,9.30828387 98.7392,7.85202581 97.5358667,7.85202581 L95.2884381,7.85202581 L95.9706286,9.30828387 L87.3536762,9.30828387 C86.5701524,9.30828387 85.9277714,9.92609032 85.891581,10.7057032 L85.891581,15.1388323 Z" id="Fill-12" fill="#FEFEFE"></path>
                        <path d="M151.460038,13.8567 L151.371371,13.6323774 C151.061943,12.8546032 150.206038,12.1761194 149.51299,12.1614097 L147.38861,12.1614097 L148.157657,13.8567 L142.526419,13.8567 C142.917276,13.0127323 143.340705,11.9775387 143.651943,11.133571 L155.994705,11.133571 C156.305943,11.9775387 156.73661,13.0127323 157.123848,13.8567 L151.460038,13.8567 Z M142.492038,18.0342484 L156.942895,18.0342484 L156.942895,16.3316032 L142.492038,16.3316032 L142.492038,18.0342484 Z M142.492038,22.3386677 L156.942895,22.3386677 L156.942895,20.6176355 L142.492038,20.6176355 L142.492038,22.3386677 Z M158.678229,9.71592581 C158.260229,8.75244194 157.368133,8.26886129 156.564705,8.26886129 L143.112705,8.26886129 C142.280324,8.26886129 141.34661,8.78553871 140.946705,9.78763548 C140.032895,12.3140226 138.9888,14.299829 137.65699,16.0484419 L137.152133,16.7250871 L139.493657,16.7250871 L139.493657,30.2046677 C139.493657,31.0320871 140.150514,31.6940226 140.96661,31.6940226 L148.244514,31.6940226 L148.244514,30.3517645 C148.233657,29.5500871 147.5768,28.9010226 146.771562,28.9010226 L142.492038,28.9083774 L142.492038,24.9257323 L146.614133,24.9257323 C148.819943,31.285829 155.473562,31.6094419 158.94061,31.8742161 C160.314038,31.8742161 160.907562,31.6057645 161.352705,31.0798935 C161.803276,30.5209258 161.90099,29.6659258 161.660324,28.4542161 C161.3708,28.6822161 161.14099,28.6950871 161.081276,28.7189903 C160.11861,29.0278935 158.573276,29.1529258 157.013467,29.0278935 L156.818038,29.0150226 C156.818038,29.0150226 157.056895,28.803571 157.0768,28.7851839 C158.133562,27.8014742 158.832038,27.3601839 159.371276,27.0788613 C158.189657,25.5030871 157.07499,25.186829 156.063467,26.1797323 C155.951276,26.2753452 155.779371,26.4445065 155.560419,26.6504419 C154.776895,27.4245387 154.045848,28.0552161 153.627848,28.3328613 C151.496229,27.5458935 150.3888,26.3856677 149.923752,24.9257323 L158.452038,24.9257323 C159.277181,24.9257323 159.939467,24.2601194 159.939467,23.4510871 L159.941276,16.7250871 L162.496324,16.7250871 L161.984229,16.0484419 C160.65061,14.2924742 159.599276,12.2754097 158.678229,9.71592581 L158.678229,9.71592581 Z" id="Fill-14" fill="#FEFEFE"></path>
                        <mask id="mask-4" fill="white">
                            <use xlink:href="#path-3"></use>
                        </mask>
                        <g id="Clip-17"></g>
                        <path d="M179.423333,28.9081935 L184.851905,28.9081935 L184.851905,22.7154194 L179.423333,22.7154194 L179.423333,28.9081935 Z M187.79781,30.2136774 L187.79781,21.4264839 C187.79781,20.5990645 187.130095,19.9316129 186.323048,19.9316129 L177.943143,19.9297742 C177.145143,19.9316129 176.484667,20.5990645 176.484667,21.4099355 L176.491905,30.2191935 C176.493714,31.0263871 177.112571,31.6938387 177.87619,31.6938387 L186.415333,31.6938387 C187.178952,31.6938387 187.79781,31.0263871 187.79781,30.2136774 L187.79781,30.2136774 Z" id="Fill-16" fill="#FEFEFE" mask="url(#mask-4)"></path>
                        <path d="M169.66819,16.1585806 L182.222667,16.1585806 L182.222667,11.0432903 L169.66819,11.0432903 L169.66819,16.1585806 Z M166.653524,17.5780645 C166.664381,18.3852581 167.326667,19.038 168.133714,19.038 L183.746286,19.038 C184.560571,19.038 185.224667,18.3760645 185.224667,17.5651935 L185.224667,9.75987097 C185.224667,8.9306129 184.56781,8.26867742 183.758952,8.26867742 L168.117429,8.26867742 C167.321238,8.27603226 166.668,8.92141935 166.653524,9.71574194 L166.653524,17.5780645 Z" id="Fill-18" fill="#FEFEFE" mask="url(#mask-4)"></path>
                        <path d="M167.131238,28.9081935 L172.55619,28.9081935 L172.55619,22.7154194 L167.131238,22.7154194 L167.131238,28.9081935 Z M174.112381,31.6938387 C174.865143,31.6938387 175.48219,31.0337419 175.498476,30.2320645 L175.498476,21.3658065 C175.474952,20.5696452 174.830762,19.9426452 174.032762,19.9316129 L165.652857,19.9316129 C164.858476,19.9316129 164.194381,20.5861935 164.187143,21.3970645 L164.187143,30.2283871 C164.194381,31.0319032 164.815048,31.6938387 165.580476,31.6938387 L174.112381,31.6938387 Z" id="Fill-19" fill="#FEFEFE" mask="url(#mask-4)"></path>
                        <path d="M187.927552,46.1848935 C188.247838,45.6130548 188.408886,44.9787 188.408886,44.2891839 C188.260505,41.7388935 186.458219,41.2957645 184.940029,40.830571 C184.648695,40.7367968 183.26441,40.5933774 182.967648,39.8284742 C182.830124,39.4864742 182.95679,39.0231194 183.170314,38.8061516 C183.37841,38.581829 183.657076,38.4825387 184.066029,38.4825387 C184.867648,38.4825387 186.083648,38.9606032 186.668124,39.7291839 C187.087933,39.4294742 187.657933,38.9716355 187.902219,38.3391194 C187.989076,38.1313452 187.97279,37.9401194 187.853362,37.752571 C187.458886,37.1071839 185.980505,36.6971516 184.422505,36.6934742 C183.979171,36.6934742 182.862695,36.7339258 182.071933,37.1218935 C181.545362,37.3719581 181.140029,37.7562484 180.864981,38.2563774 C180.598981,38.7399581 180.461457,39.2566355 180.461457,39.7880226 C180.461457,40.6117645 180.727457,41.2957645 181.244981,41.8179581 C181.735362,42.3236032 182.797552,42.8163774 184.160124,43.1547 C185.1246,43.3900548 185.728981,43.8570871 185.859267,44.4638613 C185.949743,44.9143452 185.759743,45.3777 185.339933,45.7307323 C185.102886,45.9090871 184.802505,45.9955065 184.444219,45.9955065 C183.3386,45.9955065 181.753457,45.1166032 181.293838,44.2726355 C180.957267,44.5870548 180.291362,45.3207 180.284124,46.0525065 C180.276886,46.4202484 180.44879,46.7567323 180.783552,47.0454097 C181.496505,47.6540226 182.596695,47.9482161 184.143838,47.9482161 C185.102886,47.9482161 186.03841,47.7717 186.583076,47.4922161 C187.158505,47.1943452 187.607267,46.7567323 187.927552,46.1848935" id="Fill-20" fill="#FEFEFE" mask="url(#mask-4)"></path>
                        <path d="M174.854829,45.3984774 L173.720257,45.3984774 C173.526638,45.3800903 173.378257,45.2182839 173.36921,45.0233806 L173.36921,39.6028645 C173.378257,39.3858968 173.535686,39.2240903 173.736543,39.2240903 L174.854829,39.2240903 C174.880162,39.2240903 177.310352,39.2571871 177.310352,42.2892194 C177.310352,44.8413484 175.339781,45.3984774 174.854829,45.3984774 M175.45559,36.8723806 L171.73521,36.8723806 C171.214067,36.9275419 170.814162,37.3927355 170.814162,37.9553806 L170.814162,38.0050258 L170.814162,46.7388968 C170.852162,47.2960258 171.282829,47.7299613 171.816638,47.7465097 L175.453781,47.7465097 C175.517114,47.7391548 179.680829,47.2997032 179.680829,42.2708323 C179.680829,36.9385742 175.499019,36.8723806 175.45559,36.8723806" id="Fill-21" fill="#FEFEFE" mask="url(#mask-4)"></path>
                        <path d="M153.018219,45.3957194 C150.942695,45.3957194 150.39441,43.3915258 150.39441,42.332429 C150.39441,40.9129452 151.07479,39.2581065 152.985648,39.2581065 C155.086505,39.2581065 155.642029,41.1777194 155.642029,42.1963645 C155.642029,43.3823323 155.086505,45.3957194 153.018219,45.3957194 M153.003743,36.6802355 L152.947648,36.6802355 C148.993838,36.6802355 147.937076,40.223429 147.937076,42.3195581 C147.937076,44.4028161 149.028219,47.9349774 153.12679,47.9349774 C157.744695,47.9349774 158.101171,43.5662032 158.101171,42.2239452 C158.101171,39.6865258 156.763933,36.7078161 153.003743,36.6802355" id="Fill-22" fill="#FEFEFE" mask="url(#mask-4)"></path>
                        <path d="M104.75261,36.8729323 L103.109562,36.8729323 C102.631848,36.9244161 102.2428,37.3326097 102.199371,37.8382548 L102.199371,43.9482871 C102.199371,44.6414806 101.56061,45.595771 100.364514,45.595771 C99.2281333,45.595771 98.5242286,44.7370935 98.5242286,43.9482871 L98.5242286,37.8382548 C98.4753714,37.3326097 98.0863238,36.9244161 97.5995619,36.8729323 L95.969181,36.8729323 L95.969181,43.3911581 C95.969181,46.1069323 97.8257524,47.9364484 100.596133,47.9364484 C102.892419,47.9364484 104.75261,45.8973194 104.75261,43.3911581 L104.75261,36.8729323 Z" id="Fill-23" fill="#FEFEFE" mask="url(#mask-4)"></path>
                        <path d="M114.980038,46.7747516 L114.980038,36.8733 L113.505276,36.8733 C112.984133,36.9266226 112.582419,37.3936548 112.582419,37.9563 L112.582419,43.6599774 L112.50099,43.5128806 L109.193181,37.7908161 C108.834895,37.2373645 108.39699,36.9192677 107.922895,36.8733 L107.124895,36.8733 C106.618229,36.9266226 106.221943,37.3715903 106.205657,37.9176871 L106.205657,47.747429 L107.631562,47.747429 C108.167181,47.716171 108.59061,47.2362677 108.59061,46.6662677 L108.59061,41.0085581 L111.93099,46.7692355 C112.303752,47.3760097 112.76699,47.716171 113.270038,47.747429 L114.017371,47.747429 C114.51861,47.716171 114.923943,47.3061387 114.980038,46.7747516" id="Fill-24" fill="#FEFEFE" mask="url(#mask-4)"></path>
                        <path d="M122.310238,46.6949516 L122.310238,43.1627903 L122.317476,43.1535968 L125.882238,36.8725645 L123.888143,36.8725645 C123.395952,36.9240484 122.939952,37.2715645 122.569,37.8856935 L121.029095,40.9140484 L119.532619,37.9721129 C119.152619,37.3046613 118.676714,36.9258871 118.157381,36.8725645 L116.157857,36.8725645 L119.737095,43.1627903 L119.737095,47.7466935 L121.342143,47.7466935 C121.866905,47.7172742 122.292143,47.2539194 122.310238,46.6949516" id="Fill-25" fill="#FEFEFE" mask="url(#mask-4)"></path>
                        <path d="M94.5029238,46.7236355 L94.5029238,36.8736677 L92.8472095,36.8736677 C92.3387333,36.9269903 91.9460667,37.3756355 91.9315905,37.9217323 L91.9315905,40.8268935 L88.2926381,40.8268935 L88.2926381,36.8736677 L86.647781,36.8736677 C86.1374952,36.9269903 85.7375905,37.3793129 85.7213048,37.9290871 L85.7213048,47.7477968 L87.3335905,47.7477968 C87.8348286,47.7165387 88.2383524,47.3046677 88.2926381,46.7714419 L88.2926381,43.1786032 L91.9315905,43.1786032 L91.9315905,47.7477968 L93.5402571,47.7477968 C94.0614,47.7165387 94.4721619,47.2734097 94.5029238,46.7236355" id="Fill-26" fill="#FEFEFE" mask="url(#mask-4)"></path>
                        <path d="M127.703162,43.8578226 L127.719448,43.7989839 L129.009638,39.1323387 L130.3324,43.8578226 L127.703162,43.8578226 Z M129.501829,36.8725645 L128.598876,36.8725645 C128.046971,36.8799194 127.4824,37.3359194 127.227257,37.9757903 L127.223638,37.9721129 C127.187448,38.0971452 126.870781,39.0918871 124.105829,47.7466935 L125.781448,47.7466935 C126.335162,47.7135968 126.814686,47.2888548 126.966686,46.6912742 L127.167543,45.8785645 L130.839067,45.8785645 L130.846305,45.9116613 C130.913257,46.1690806 131.009162,46.5386613 131.030876,46.6269194 L131.038114,46.6453065 C131.2064,47.2888548 131.666019,47.7135968 132.239638,47.7466935 L133.989448,47.7466935 L130.873448,37.9721129 C130.629162,37.2531774 130.001257,36.8725645 129.501829,36.8725645 L129.501829,36.8725645 Z" id="Fill-27" fill="#FEFEFE" mask="url(#mask-4)"></path>
                        <path d="M164.457667,45.3957194 C162.383952,45.3957194 161.835667,43.3915258 161.835667,42.332429 C161.835667,40.9129452 162.514238,39.2581065 164.430524,39.2581065 C166.524143,39.2581065 167.079667,41.1777194 167.079667,42.1963645 C167.079667,43.3823323 166.525952,45.3957194 164.457667,45.3957194 M164.437762,36.6802355 L164.390714,36.6802355 C160.431476,36.6802355 159.371095,40.223429 159.371095,42.3195581 C159.371095,44.4028161 160.467667,47.9349774 164.564429,47.9349774 C169.178714,47.9349774 169.53881,43.5662032 169.53881,42.2239452 C169.53881,39.6865258 168.203381,36.7078161 164.437762,36.6802355" id="Fill-28" fill="#FEFEFE" mask="url(#mask-4)"></path>
                        <path d="M146.634038,41.6958677 L142.287562,41.6958677 L142.287562,39.2540613 L145.63699,39.2467065 C146.179848,39.2467065 146.614133,38.8072548 146.639467,38.217029 L146.639467,36.8729323 L140.637276,36.8729323 C140.139657,36.9244161 139.741562,37.3675452 139.714419,37.8970935 L139.714419,47.7470613 L141.319467,47.7470613 C141.856895,47.7158032 142.280324,47.2469323 142.287562,46.678771 L142.287562,44.056771 L145.606229,44.056771 C146.165371,44.056771 146.6268,43.5768677 146.634038,42.9884806 L146.634038,41.6958677 Z" id="Fill-29" fill="#FEFEFE" mask="url(#mask-4)"></path>
                    </g>
                </g>
            </g>
        </g>
    </g>
</svg>