<?xml version="1.0" encoding="UTF-8"?>
<svg width="40px" height="40px" viewBox="0 0 40 40" version="1.1" xmlns="http://www.w3.org/2000/svg" xmlns:xlink="http://www.w3.org/1999/xlink">
    <title>AE3D1281-0D8C-4024-951C-5741ADD1AEF9</title>
    <g id="Page-1" stroke="none" stroke-width="1" fill="none" fill-rule="evenodd">
        <g id="3-1-cause-pc" transform="translate(-1088.000000, -2064.000000)">
            <g id="m3" transform="translate(166.000000, 1658.000000)">
                <g id="icon/social" transform="translate(810.000000, 406.000000)">
                    <g id="social">
                        <g id="button/icon/copy" transform="translate(112.000000, 0.000000)">
                            <g id="ig">
                                <circle id="Oval" fill="#CA9762" fill-rule="nonzero" cx="20" cy="20" r="20"></circle>
                                <g id="Fill-2" transform="translate(10.000000, 10.000000)" fill="#FFFFFF">
                                    <path d="M16.5380469,4.66195313 C16.5380469,5.3246875 16.0007813,5.86195313 15.3380469,5.86195313 C14.6753125,5.86195313 14.1379688,5.3246875 14.1379688,4.66195313 C14.1379688,3.99921875 14.6753125,3.46195312 15.3380469,3.46195312 C16.0007813,3.46195312 16.5380469,3.99921875 16.5380469,4.66195313 M10,13.3333594 C8.1590625,13.3333594 6.66664063,11.8409375 6.66664063,10 C6.66664063,8.1590625 8.1590625,6.66664062 10,6.66664062 C11.8409375,6.66664062 13.3333594,8.1590625 13.3333594,10 C13.3333594,11.8409375 11.8409375,13.3333594 10,13.3333594 M10,4.86484375 C7.16398438,4.86484375 4.86484375,7.16390625 4.86484375,10 C4.86484375,12.8360156 7.16398438,15.1351562 10,15.1351562 C12.8360156,15.1351562 15.1351562,12.8360156 15.1351562,10 C15.1351562,7.16390625 12.8360156,4.86484375 10,4.86484375 M10,0 C7.28414063,0 6.94367188,0.011484375 5.87703125,0.06015625 C4.81265625,0.10875 4.08570313,0.277734375 3.44960938,0.525 C2.79203125,0.780546875 2.234375,1.1225 1.6784375,1.6784375 C1.1225,2.23429687 0.780546875,2.79195312 0.525,3.44960938 C0.2778125,4.08570313 0.10875,4.81257812 0.06015625,5.87703125 C0.011484375,6.94359375 0,7.28414062 0,10 C0,12.7158594 0.011484375,13.0564063 0.06015625,14.1229688 C0.10875,15.1873438 0.2778125,15.9142969 0.525,16.5503906 C0.780546875,17.2078906 1.1225,17.765625 1.6784375,18.3215625 C2.234375,18.8775 2.79203125,19.2194531 3.44960938,19.475 C4.08570313,19.7222656 4.81265625,19.89125 5.87703125,19.9398438 C6.94367188,19.9885156 7.28414063,20 10,20 C12.7158594,20 13.0564844,19.9885156 14.1229688,19.9398438 C15.1874219,19.89125 15.9142969,19.7222656 16.5503906,19.475 C17.2079687,19.2194531 17.7657031,18.8775 18.3216406,18.3215625 C18.8775,17.765625 19.2194531,17.2079687 19.4750781,16.5503906 C19.7222656,15.9142969 19.89125,15.1873438 19.9398438,14.1229688 C19.9885156,13.0564063 20,12.7158594 20,10 C20,7.28414062 19.9885156,6.94359375 19.9398438,5.87703125 C19.89125,4.81257812 19.7222656,4.08570313 19.4750781,3.44960938 C19.2194531,2.79195312 18.8775,2.23429687 18.3216406,1.6784375 C17.7657031,1.1225 17.2079687,0.780546875 16.5503906,0.525 C15.9142969,0.277734375 15.1874219,0.10875 14.1229688,0.06015625 C13.0564844,0.011484375 12.7158594,0 10,0 M10,1.80179687 C12.6701562,1.80179687 12.9864062,1.81195312 14.0408594,1.86007812 C15.0158594,1.90460937 15.5453125,2.0675 15.8978125,2.204375 C16.3644531,2.38578125 16.6976563,2.60257812 17.0475,2.95242187 C17.3975,3.30234375 17.6141406,3.63554687 17.795625,4.10226563 C17.9325781,4.4546875 18.0954687,4.98421875 18.1399219,5.95914062 C18.1880469,7.01359375 18.1982031,7.32984375 18.1982031,10 C18.1982031,12.6700781 18.1880469,12.9863281 18.1399219,14.0407813 C18.0954687,15.0158594 17.9325781,15.5453125 17.795625,15.8977344 C17.6141406,16.3644531 17.3975,16.6975781 17.0475,17.0475781 C16.6976563,17.3974219 16.3644531,17.6142187 15.8978125,17.7955469 C15.5453125,17.9325 15.0158594,18.0953906 14.0408594,18.1399219 C12.9865625,18.1879688 12.6703125,18.198125 10,18.198125 C7.32976563,18.198125 7.0134375,18.1879688 5.95914062,18.1399219 C4.98421875,18.0953906 4.4546875,17.9325 4.10234375,17.7955469 C3.63554687,17.6142187 3.30234375,17.3974219 2.95242187,17.0475781 C2.60257813,16.6975781 2.38585938,16.3644531 2.20445313,15.8977344 C2.0675,15.5453125 1.90460938,15.0158594 1.86015625,14.0408594 C1.81195313,12.9863281 1.80179688,12.6700781 1.80179688,10 C1.80179688,7.32984375 1.81195313,7.01359375 1.86015625,5.95914062 C1.90460938,4.98421875 2.0675,4.4546875 2.20445313,4.10226563 C2.38585938,3.63554687 2.60257813,3.30234375 2.95242187,2.95242187 C3.30234375,2.60257812 3.63554687,2.38578125 4.10234375,2.204375 C4.4546875,2.0675 4.98421875,1.90460937 5.95914062,1.86007812 C7.01359375,1.81195312 7.32992187,1.80179687 10,1.80179687" id="Fill-1"></path>
                                </g>
                            </g>
                        </g>
                    </g>
                </g>
            </g>
        </g>
    </g>
</svg>