<?xml version="1.0" encoding="UTF-8"?>
<svg width="40px" height="40px" viewBox="0 0 40 40" version="1.1" xmlns="http://www.w3.org/2000/svg" xmlns:xlink="http://www.w3.org/1999/xlink">
    <title>B28FCD98-D76D-45F4-935A-29F8FE7B9A55</title>
    <g id="Page-1" stroke="none" stroke-width="1" fill="none" fill-rule="evenodd">
        <g id="0-1-Design-guideline" transform="translate(-513.000000, -3579.000000)" fill-rule="nonzero">
            <g id="button/icon/copy-copy-5" transform="translate(513.000000, 3579.000000)">
                <g id="copy">
                    <circle id="Oval" fill="#CA9762" cx="20" cy="20" r="20"></circle>
                    <path d="M17.6055556,25.3122222 L16.7088889,26.1822222 C15.9191529,26.9349562 14.6775138,26.9349562 13.8877778,26.1822222 C13.5179259,25.8289666 13.3086916,25.3397822 13.3086916,24.8283333 C13.3086916,24.3168845 13.5179259,23.8277 13.8877778,23.4744444 L17.1911111,20.2766667 C17.8755556,19.6144444 19.1633333,18.6388889 20.1022222,19.5466667 C20.5369164,19.9636572 21.2238552,19.9612004 21.6555556,19.5411111 C21.8609141,19.341977 21.9764517,19.0678856 21.975618,18.7818334 C21.9747752,18.4957812 21.8576332,18.2223716 21.6511111,18.0244444 C20.0555556,16.48 17.6966667,16.7655556 15.6433333,18.7544444 L12.34,21.9522222 C11.554457,22.7027347 11.1100761,23.7418957 11.1100761,24.8283333 C11.1100761,25.914771 11.554457,26.953932 12.34,27.7044444 C13.1345177,28.4686656 14.1953844,28.8934905 15.2977778,28.8889259 C16.37,28.8889259 17.4411111,28.4944444 18.2566667,27.7044444 L19.1555556,26.8344444 C19.3617906,26.6363597 19.4787311,26.3630081 19.479569,26.0770541 C19.480407,25.7911 19.3650705,25.5170678 19.16,25.3177778 C18.7279237,24.8975511 18.0406246,24.8950947 17.6055556,25.3122222 L17.6055556,25.3122222 Z M27.6588889,12.5033333 C25.9455556,10.7366667 23.55,10.6411111 21.9633333,12.2766667 L20.8444444,13.43 C20.4144444,13.8744444 20.4111111,14.5966667 20.8388889,15.0444444 C21.0402502,15.2591107 21.3211452,15.3813533 21.6154696,15.3824045 C21.909794,15.3834556 22.191555,15.2632225 22.3944444,15.05 L23.5122222,13.8977778 C24.3344444,13.0488889 25.41,13.4011111 26.1122222,14.1244444 C26.4855556,14.51 26.6911111,15.0222222 26.6911111,15.5655556 C26.6911111,16.11 26.4855556,16.6222222 26.1122222,17.0077778 L22.5877778,20.6411111 C20.9766667,22.3011111 20.2211111,21.5222222 19.8988889,21.1888889 C19.6959994,20.9756664 19.4142384,20.8554333 19.119914,20.8564844 C18.8255896,20.8575356 18.5446946,20.9797782 18.3433333,21.1944444 C17.9151131,21.6486924 17.9175547,22.3587078 18.3488889,22.81 C19.0888889,23.5722222 19.9333333,23.9511111 20.8188889,23.9511111 C21.9022222,23.9511111 23.0477778,23.3844444 24.1355556,22.26 L27.66,18.6277778 C28.4535844,17.8069901 28.8946364,16.7083477 28.8889444,15.5666667 C28.8889444,14.41 28.4522222,13.3222222 27.6588889,12.5044444 L27.6588889,12.5033333 Z" id="Shape" fill="#FFFFFF"></path>
                </g>
            </g>
        </g>
    </g>
</svg>