<?xml version="1.0" encoding="UTF-8"?>
<svg width="16px" height="16px" viewBox="0 0 16 16" version="1.1" xmlns="http://www.w3.org/2000/svg" xmlns:xlink="http://www.w3.org/1999/xlink">
    <title>CE11833F-F174-47A2-B8E1-42EC886C2354</title>
    <g id="Page-1" stroke="none" stroke-width="1" fill="none" fill-rule="evenodd">
        <g id="0-1-Design-guideline" transform="translate(-310.000000, -4078.000000)" fill="#CA9762">
            <g id="icon/stop-copy" transform="translate(310.000000, 4078.000000)">
                <path d="M8,0 C3.588875,0 0,3.588875 0,8 C0,12.411125 3.588875,16 8,16 C12.411125,16 16,12.411125 16,8 C16,3.588875 12.411125,0 8,0 Z M8.48974635,14 C6.71627188,14 5.1079544,13.2865437 3.9325688,12.1340937 L3.9325688,11.075 C3.9325688,10.7658844 4.07115582,10.5668625 4.23138944,10.3364375 C4.39634299,10.09935 4.58359416,9.83053437 4.58359416,9.45 C4.58359416,8.83014375 4.02318339,8.76729687 3.72179933,8.73365938 C3.50626925,8.70952813 3.30282382,8.68669687 3.18616821,8.570225 C3.09779152,8.4819875 3.00941483,8.32172187 2.91599269,8.15223437 C2.73032839,7.81516875 2.47886985,7.36939062 2,7.09626875 C2.21044395,3.70046563 5.03642299,1 8.48974635,1 C8.66841212,1 8.84402622,1.012675 9.01919273,1.0268125 C8.98358978,1.05013125 8.93984901,1.06601562 8.91063425,1.095225 C8.84736272,1.15835625 8.81273631,1.24500938 8.81525903,1.33450625 C8.81810727,1.42371875 8.85753499,1.5081375 8.92430578,1.56781562 C9.0412869,1.67157188 9.06382866,1.7239375 9.06830445,1.7239375 C9.06098042,1.73949687 9.00120815,1.84138438 8.66808661,2.01022188 C8.11813293,2.28858438 7.483017,2.85826875 7.38861832,3.45115 C7.34536583,3.72029063 7.42357025,3.97005312 7.60858352,4.154775 C7.66961715,4.2157125 7.75225668,4.25 7.83872099,4.25 C8.29073603,4.25 8.64009252,4.08307188 8.97801537,3.92183125 C9.32480845,3.7564875 9.65255903,3.6 10.1173098,3.6 C11.3948657,3.6 12.3958985,3.88563437 12.3958985,4.25 C12.3958985,4.38361562 12.3542736,4.42456562 12.3383642,4.4398 C12.1784561,4.59689687 11.633914,4.58674062 11.155207,4.57942812 C11.0283791,4.57723437 10.8986623,4.575 10.7683351,4.575 C10.3264924,4.575 10.1894515,4.51056875 10.0308455,4.43565625 C9.8461577,4.34871875 9.63697511,4.25 9.14077172,4.25 C8.60416406,4.25 7.60699664,4.34680937 6.95755815,4.995225 C6.42636215,5.52525937 6.48263515,6.159375 6.51949946,6.578625 C6.52808486,6.67510937 6.53667026,6.76651563 6.53667026,6.85 C6.53667026,7.49016875 7.19184591,7.825 7.83872099,7.825 C8.83369119,7.825 9.69389914,8.01033125 9.79179708,8.15 C9.79179708,8.51371562 9.9001928,8.76221875 9.98730814,8.96156562 C10.0597754,9.12816875 10.1173098,9.25955 10.1173098,9.45 C10.1173098,9.59726563 10.0931404,9.62866875 10.0279972,9.71247812 C9.90369207,9.87371875 9.79179708,10.0492187 9.79179708,10.425 C9.79179708,11.1089625 10.4514078,11.8592656 10.5264385,11.9427094 C10.589059,12.0118938 10.6774357,12.05 10.7683351,12.05 C10.7953527,12.05 10.8223702,12.0468313 10.8490623,12.0398438 C11.0407486,11.9906469 12.7214112,11.5288625 12.7214112,10.425 C12.7214112,10.0790375 12.8291559,9.9857625 12.9925633,9.84418437 C13.1527969,9.70516562 13.3724366,9.51508125 13.3724366,9.125 C13.3724366,8.86443125 13.8356004,8.19188438 14.2647482,7.71803438 C14.3254563,7.65108437 14.3556476,7.5615875 14.3477133,7.47144063 C14.3397382,7.38129375 14.294614,7.29845937 14.2230826,7.24325 C13.9700779,7.04739688 13.2713649,6.4097875 13.0374027,5.79123125 C13.169927,5.86041562 13.3358978,5.97306875 13.4678118,6.104775 C13.5762075,6.21365 13.7214676,6.26569062 13.8867873,6.25902812 C14.1504526,6.24395625 14.4635551,6.03607812 14.7604634,5.77660625 C14.9122743,6.32646562 15,6.90252813 15,7.5 C15,11.0842219 12.0796223,14 8.48974635,14 Z" id="Fill-1"></path>
            </g>
        </g>
    </g>
</svg>