<?xml version="1.0" encoding="UTF-8"?>
<svg width="1440px" height="4px" viewBox="0 0 1440 4" version="1.1" xmlns="http://www.w3.org/2000/svg" xmlns:xlink="http://www.w3.org/1999/xlink">
    <title>9851208A-E578-472D-A429-E36E9586E257</title>
    <g id="Page-1" stroke="none" stroke-width="1" fill="none" fill-rule="evenodd">
        <g id="7-1-privacy-pc" transform="translate(0.000000, -2086.000000)" fill="#4D3227">
            <g id="Group" transform="translate(-240.000000, 0.000000)">
                <g id="ui/footer-pc" transform="translate(240.000000, 1926.000000)">
                    <g id="ui/ripple" transform="translate(0.000000, 160.000000)">
                        <path d="M704.500763,-2.22710739e-13 C706.251048,-2.22710739e-13 707.124941,0.9324 708.050298,1.92 C709.009133,2.9424 710.000944,4 712.001055,4 L712.001055,4 L697.001971,4 C699.001582,4 699.992894,2.9424 700.950729,1.92 C701.876586,0.9324 702.750978,-2.22710739e-13 704.500763,-2.22710739e-13 Z M689.503678,-2.22710739e-13 C691.252963,-2.22710739e-13 692.127356,0.9324 693.052713,1.92 C694.011548,2.9424 695.002359,4 697.001971,4 L697.001971,4 L682.007384,4 C684.005996,4 684.997307,2.9424 685.955142,1.92 C686.8805,0.9324 687.754393,-2.22710739e-13 689.503678,-2.22710739e-13 Z M674.51009,-2.22710739e-13 C676.259375,-2.22710739e-13 677.133768,0.9324 678.059126,1.92 C679.01746,2.9424 680.008272,4 682.007384,4 L682.007384,4 L667.013296,4 C669.012408,4 670.00322,2.9424 670.961055,1.92 C671.886912,0.9324 672.760805,-2.22710739e-13 674.51009,-2.22710739e-13 Z M659.516003,-2.22710739e-13 C661.265288,-2.22710739e-13 662.139181,0.9324 663.064039,1.92 C664.022373,2.9424 665.013685,4 667.013296,4 L667.013296,4 L652.020208,4 C654.01932,4 655.009632,2.9424 655.967467,1.92 C656.893324,0.9324 657.766718,-2.22710739e-13 659.516003,-2.22710739e-13 Z M644.522915,-2.22710739e-13 C646.2722,-2.22710739e-13 647.146093,0.9324 648.070951,1.92 C649.029285,2.9424 650.020597,4 652.020208,4 L652.020208,4 L637.02662,4 C639.025232,4 640.016044,2.9424 640.973879,1.92 C641.899736,0.9324 642.773629,-2.22710739e-13 644.522915,-2.22710739e-13 Z M629.531325,-2.22710739e-13 C631.280611,-2.22710739e-13 632.154004,0.9324 633.079861,1.92 C634.037696,2.9424 635.028008,4 637.02662,4 L637.02662,4 L622.036031,4 C624.035142,4 625.025455,2.9424 625.983789,1.92 C626.909146,0.9324 627.78254,-2.22710739e-13 629.531325,-2.22710739e-13 Z M614.539736,-2.22710739e-13 C616.289022,-2.22710739e-13 617.162915,0.9324 618.088772,1.92 C619.046607,2.9424 620.037418,4 622.036031,4 L622.036031,4 L607.044941,4 C609.043553,4 610.034365,2.9424 610.9927,1.92 C611.917058,0.9324 612.790951,-2.22710739e-13 614.539736,-2.22710739e-13 Z M599.547647,-2.22710739e-13 C601.296933,-2.22710739e-13 602.170826,0.9324 603.096183,1.92 C604.054518,2.9424 605.04533,4 607.044941,4 L607.044941,4 L592.051353,4 C594.050465,4 595.041777,2.9424 596.000111,1.92 C596.924969,0.9324 597.798862,-2.22710739e-13 599.547647,-2.22710739e-13 Z M584.555559,-2.22710739e-13 C586.304344,-2.22710739e-13 587.178237,0.9324 588.103595,1.92 C589.061929,2.9424 590.052741,4 592.051353,4 L592.051353,4 L577.059764,4 C579.058876,4 580.049688,2.9424 581.008022,1.92 C581.93288,0.9324 582.806773,-2.22710739e-13 584.555559,-2.22710739e-13 Z M569.563969,-2.22710739e-13 C571.313255,-2.22710739e-13 572.186648,0.9324 573.112006,1.92 C574.07034,2.9424 575.060652,4 577.059764,4 L577.059764,4 L562.068175,4 C564.066787,4 565.058099,2.9424 566.016433,1.92 C566.941291,0.9324 567.814684,-2.22710739e-13 569.563969,-2.22710739e-13 Z M554.57238,-2.22710739e-13 C556.321166,-2.22710739e-13 557.195059,0.9324 558.119917,1.92 C559.078251,2.9424 560.069563,4 562.068175,4 L562.068175,4 L547.076586,4 C549.075198,4 550.06601,2.9424 551.024344,1.92 C551.949702,0.9324 552.823595,-2.22710739e-13 554.57238,-2.22710739e-13 Z M539.581291,-2.22710739e-13 C541.330076,-2.22710739e-13 542.20347,0.9324 543.128328,1.92 C544.086662,2.9424 545.077474,4 547.076586,4 L547.076586,4 L532.085496,4 C534.084108,4 535.07492,2.9424 536.033255,1.92 C536.958612,0.9324 537.832006,-2.22710739e-13 539.581291,-2.22710739e-13 Z M524.590201,-2.22710739e-13 C526.339486,-2.22710739e-13 527.21288,0.9324 528.137738,1.92 C529.096072,2.9424 530.086884,4 532.085496,4 L532.085496,4 L517.095406,4 C519.094018,4 520.08433,2.9424 521.042665,1.92 C521.967523,0.9324 522.841416,-2.22710739e-13 524.590201,-2.22710739e-13 Z M509.599112,-2.22710739e-13 C511.348397,-2.22710739e-13 512.22229,0.9324 513.147148,1.92 C514.105482,2.9424 515.096794,4 517.095406,4 L517.095406,4 L502.104816,4 C504.103428,4 505.09374,2.9424 506.052075,1.92 C506.976933,0.9324 507.850826,-2.22710739e-13 509.599112,-2.22710739e-13 Z M494.608522,-2.22710739e-13 C496.357307,-2.22710739e-13 497.231201,0.9324 498.156058,1.92 C499.114393,2.9424 500.105704,4 502.104816,4 L502.104816,4 L487.114226,4 C489.112838,4 490.103151,2.9424 491.061485,1.92 C491.986343,0.9324 492.860236,-2.22710739e-13 494.608522,-2.22710739e-13 Z M479.618931,-2.22710739e-13 C481.367717,-2.22710739e-13 482.24111,0.9324 483.165968,1.92 C484.124303,2.9424 485.115115,4 487.114226,4 L487.114226,4 L472.124636,4 C474.122748,4 475.11306,2.9424 476.071395,1.92 C476.996253,0.9324 477.870146,-2.22710739e-13 479.618931,-2.22710739e-13 Z M464.62984,-2.22710739e-13 C466.378626,-2.22710739e-13 467.252519,0.9324 468.176877,1.92 C469.135212,2.9424 470.126024,4 472.124636,4 L472.124636,4 L457.135045,4 C459.133657,4 460.123969,2.9424 461.082304,1.92 C462.007162,0.9324 462.881055,-2.22710739e-13 464.62984,-2.22710739e-13 Z M449.641249,-2.22710739e-13 C451.390035,-2.22710739e-13 452.263428,0.9324 453.187786,1.92 C454.146121,2.9424 455.136433,4 457.135045,4 L457.135045,4 L442.146454,4 C444.145066,4 445.135378,2.9424 446.093713,1.92 C447.01857,0.9324 447.892464,-2.22710739e-13 449.641249,-2.22710739e-13 Z M434.652158,-2.22710739e-13 C436.400944,-2.22710739e-13 437.274837,0.9324 438.199195,1.92 C439.157529,2.9424 440.148341,4 442.146454,4 L442.146454,4 L427.158862,4 C429.157474,4 430.147786,2.9424 431.105621,1.92 C432.030479,0.9324 432.903872,-2.22710739e-13 434.652158,-2.22710739e-13 Z M419.664566,-2.22710739e-13 C421.413352,-2.22710739e-13 422.287245,0.9324 423.212103,1.92 C424.169938,2.9424 425.160749,4 427.158862,4 L427.158862,4 L412.170271,4 C414.168383,4 415.158695,2.9424 416.11703,1.92 C417.041888,0.9324 417.915781,-2.22710739e-13 419.664566,-2.22710739e-13 Z M404.677474,-2.22710739e-13 C406.42576,-2.22710739e-13 407.299153,0.9324 408.223511,1.92 C409.181346,2.9424 410.172158,4 412.170271,4 L412.170271,4 L397.183678,4 C399.18179,4 400.172602,2.9424 401.130437,1.92 C402.054795,0.9324 402.928688,-2.22710739e-13 404.677474,-2.22710739e-13 Z M389.687883,-2.22710739e-13 C391.436669,-2.22710739e-13 392.311062,0.9324 393.23592,1.92 C394.194254,2.9424 395.185066,4 397.183678,4 L397.183678,4 L382.195087,4 C384.193199,4 385.184011,2.9424 386.141846,1.92 C387.066204,0.9324 387.939598,-2.22710739e-13 389.687883,-2.22710739e-13 Z M374.70279,-2.22710739e-13 C376.450576,-2.22710739e-13 377.323969,0.9324 378.248827,1.92 C379.206662,2.9424 380.196974,4 382.195087,4 L382.195087,4 L367.209493,4 C369.207606,4 370.198418,2.9424 371.156253,1.92 C372.080611,0.9324 372.954004,-2.22710739e-13 374.70279,-2.22710739e-13 Z M359.714198,-2.22710739e-13 C361.462984,-2.22710739e-13 362.336877,0.9324 363.261735,1.92 C364.220069,2.9424 365.210382,4 367.209493,4 L367.209493,4 L352.221402,4 C354.219514,4 355.210326,2.9424 356.168161,1.92 C357.092519,0.9324 357.965913,-2.22710739e-13 359.714198,-2.22710739e-13 Z M344.729604,-2.22710739e-13 C346.477391,-2.22710739e-13 347.350784,0.9324 348.276142,1.92 C349.233477,2.9424 350.223789,4 352.221402,4 L352.221402,4 L337.237307,4 C339.23542,4 340.225732,2.9424 341.183067,1.92 C342.108425,0.9324 342.981818,-2.22710739e-13 344.729604,-2.22710739e-13 Z M329.743012,-2.22710739e-13 C331.491298,-2.22710739e-13 332.365191,0.9324 333.290049,1.92 C334.247883,2.9424 335.238695,4 337.237307,4 L337.237307,4 L322.248217,4 C324.246829,4 325.237641,2.9424 326.195475,1.92 C327.120833,0.9324 327.994226,-2.22710739e-13 329.743012,-2.22710739e-13 Z M314.753921,-2.22710739e-13 C316.502706,-2.22710739e-13 317.3761,0.9324 318.301457,1.92 C319.259292,2.9424 320.249604,4 322.248217,4 L322.248217,4 L307.258626,4 C309.257238,4 310.24805,2.9424 311.206384,1.92 C312.131242,0.9324 313.005135,-2.22710739e-13 314.753921,-2.22710739e-13 Z M299.76433,-2.22710739e-13 C301.513116,-2.22710739e-13 302.386509,0.9324 303.311867,1.92 C304.269702,2.9424 305.260014,4 307.258626,4 L307.258626,4 L292.270035,4 C294.268647,4 295.258959,2.9424 296.216794,1.92 C297.142151,0.9324 298.015545,-2.22710739e-13 299.76433,-2.22710739e-13 Z M284.775239,-2.22710739e-13 C286.524025,-2.22710739e-13 287.397418,0.9324 288.322776,1.92 C289.280611,2.9424 290.271423,4 292.270035,4 L292.270035,4 L277.280944,4 C279.279556,4 280.269868,2.9424 281.227703,1.92 C282.152561,0.9324 283.026454,-2.22710739e-13 284.775239,-2.22710739e-13 Z M269.786149,-2.22710739e-13 C271.534934,-2.22710739e-13 272.408827,0.9324 273.333685,1.92 C274.292019,2.9424 275.282332,4 277.280944,4 L277.280944,4 L262.291853,4 C264.290465,4 265.281277,2.9424 266.239112,1.92 C267.163969,0.9324 268.037863,-2.22710739e-13 269.786149,-2.22710739e-13 Z M254.797557,-2.22710739e-13 C256.546343,-2.22710739e-13 257.419736,0.9324 258.344594,1.92 C259.302429,2.9424 260.293241,4 262.291853,4 L262.291853,4 L247.303262,4 C249.301874,4 250.292186,2.9424 251.25052,1.92 C252.175378,0.9324 253.049271,-2.22710739e-13 254.797557,-2.22710739e-13 Z M239.808466,-2.22710739e-13 C241.557252,-2.22710739e-13 242.430645,0.9324 243.356003,1.92 C244.313838,2.9424 245.30465,4 247.303262,4 L247.303262,4 L232.31467,4 C234.312783,4 235.303595,2.9424 236.26143,1.92 C237.186287,0.9324 238.059681,-2.22710739e-13 239.808466,-2.22710739e-13 Z M224.820375,-2.22710739e-13 C226.568661,-2.22710739e-13 227.442554,0.9324 228.367412,1.92 C229.325246,2.9424 230.316058,4 232.31467,4 L232.31467,4 L217.32508,4 C219.324192,4 220.314504,2.9424 221.272838,1.92 C222.197696,0.9324 223.071589,-2.22710739e-13 224.820375,-2.22710739e-13 Z M209.831284,-2.22710739e-13 C211.57957,-2.22710739e-13 212.453463,0.9324 213.378321,1.92 C214.336155,2.9424 215.326468,4 217.32508,4 L217.32508,4 L202.337488,4 C204.3356,4 205.326412,2.9424 206.283747,1.92 C207.209105,0.9324 208.082498,-2.22710739e-13 209.831284,-2.22710739e-13 Z M194.843192,-2.22710739e-13 C196.591978,-2.22710739e-13 197.465371,0.9324 198.390229,1.92 C199.348064,2.9424 200.338876,4 202.337488,4 L202.337488,4 L187.348397,4 C189.347009,4 190.337321,2.9424 191.295156,1.92 C192.220514,0.9324 193.094407,-2.22710739e-13 194.843192,-2.22710739e-13 Z M179.854101,-2.22710739e-13 C181.602887,-2.22710739e-13 182.47628,0.9324 183.401138,1.92 C184.358973,2.9424 185.349785,4 187.348397,4 L187.348397,4 L172.360305,4 C174.358917,4 175.34923,2.9424 176.307065,1.92 C177.231922,0.9324 178.105316,-2.22710739e-13 179.854101,-2.22710739e-13 Z M164.86601,-2.22710739e-13 C166.614795,-2.22710739e-13 167.488688,0.9324 168.413546,1.92 C169.371381,2.9424 170.361693,4 172.360305,4 L172.360305,4 L157.371214,4 C159.369827,4 160.360638,2.9424 161.318473,1.92 C162.243831,0.9324 163.117224,-2.22710739e-13 164.86601,-2.22710739e-13 Z M149.877418,-2.22710739e-13 C151.626204,-2.22710739e-13 152.499598,0.9324 153.424955,1.92 C154.38229,2.9424 155.373102,4 157.371214,4 L157.371214,4 L142.384122,4 C144.382235,4 145.372547,2.9424 146.330382,1.92 C147.255239,0.9324 148.129133,-2.22710739e-13 149.877418,-2.22710739e-13 Z M134.889827,-2.22710739e-13 C136.638612,-2.22710739e-13 137.512505,0.9324 138.437363,1.92 C139.395198,2.9424 140.38551,4 142.384122,4 L142.384122,4 L127.395031,4 C129.393643,4 130.384455,2.9424 131.34229,1.92 C132.267647,0.9324 133.141041,-2.22710739e-13 134.889827,-2.22710739e-13 Z M119.901235,-2.22710739e-13 C121.649521,-2.22710739e-13 122.523414,0.9324 123.448272,1.92 C124.406107,2.9424 125.396419,4 127.395031,4 L127.395031,4 L112.407439,4 C114.406051,4 115.396364,2.9424 116.354198,1.92 C117.279056,0.9324 118.152949,-2.22710739e-13 119.901235,-2.22710739e-13 Z M104.914143,-2.22710739e-13 C106.662429,-2.22710739e-13 107.536322,0.9324 108.46118,1.92 C109.419015,2.9424 110.409327,4 112.407439,4 L112.407439,4 L97.4198473,4 C99.4184594,4 100.409271,2.9424 101.367106,1.92 C102.291964,0.9324 103.165357,-2.22710739e-13 104.914143,-2.22710739e-13 Z M89.9255517,-2.22710739e-13 C91.6738376,-2.22710739e-13 92.5477307,0.9324 93.4725885,1.92 C94.430923,2.9424 95.4212353,4 97.4198473,4 L97.4198473,4 L82.4317557,4 C84.4298681,4 85.4201804,2.9424 86.3780153,1.92 C87.3033727,0.9324 88.1767661,-2.22710739e-13 89.9255517,-2.22710739e-13 Z M74.9379598,-2.22710739e-13 C76.6867453,-2.22710739e-13 77.5601388,0.9324 78.4849965,1.92 C79.4428314,2.9424 80.4336433,4 82.4317557,4 L82.4317557,4 L67.4446634,4 C69.4432755,4 70.4335878,2.9424 71.3914226,1.92 C72.3162804,0.9324 73.1896738,-2.22710739e-13 74.9379598,-2.22710739e-13 Z M59.9508675,-2.22710739e-13 C61.6991534,-2.22710739e-13 62.5730465,0.9324 63.4979042,1.92 C64.4557391,2.9424 65.4460514,4 67.4446634,4 L67.4446634,4 L52.4560722,4 C54.4546842,4 55.4454962,2.9424 56.403331,1.92 C57.3281888,0.9324 58.2020819,-2.22710739e-13 59.9508675,-2.22710739e-13 Z M44.9622762,-2.22710739e-13 C46.7105621,-2.22710739e-13 47.5844552,0.9324 48.509313,1.92 C49.4671478,2.9424 50.4574601,4 52.4560722,4 L52.4560722,4 L37.4689799,4 C39.4670923,4 40.4574046,2.9424 41.4152394,1.92 C42.3400972,0.9324 43.2139903,-2.22710739e-13 44.9622762,-2.22710739e-13 Z M29.9756836,-2.22710739e-13 C31.7244691,-2.22710739e-13 32.5978626,0.9324 33.5227203,1.92 C34.4805552,2.9424 35.4708675,4 37.4689799,4 L37.4689799,4 L22.4823872,4 C24.4809993,4 25.4713116,2.9424 26.4291464,1.92 C27.3540042,0.9324 28.2273976,-2.22710739e-13 29.9756836,-2.22710739e-13 Z M14.9885913,-2.22710739e-13 C16.7368772,-2.22710739e-13 17.6107703,0.9324 18.535628,1.92 C19.4934629,2.9424 20.4837752,4 22.4823872,4 L22.4823872,4 L7.49379598,4 C9.49240805,4 10.4827203,2.9424 11.4410548,1.92 C12.3664122,0.9324 13.2398057,-2.22710739e-13 14.9885913,-2.22710739e-13 Z M0,-2.22710739e-13 C1.74878557,-2.22710739e-13 2.6226787,0.9324 3.54753643,1.92 C4.50537127,2.9424 5.49568355,4 7.49379598,4 L7.49379598,4 L0,4 Z M712.001055,4 C714.000666,4 714.991978,2.9424 715.950812,1.92 C716.876669,0.9324 717.750562,-2.22710739e-13 719.500347,-2.22710739e-13 L719.500347,-2.22710739e-13 L719.756574,0.00688335 C721.3392,0.093378 722.172975,0.98178 723.052811,1.92 C724.011976,2.9424 725.003663,4 727.004551,4 L727.004551,4 Z M1424.97958,-2.22710739e-13 C1426.7323,-2.22710739e-13 1427.60741,0.9324 1428.53405,1.92 C1429.49421,2.9424 1430.4874,4 1432.49029,4 L1432.49029,4 L1417.47038,4 C1419.47276,4 1420.46545,2.9424 1421.42462,1.92 C1422.35176,0.9324 1423.22737,-2.22710739e-13 1424.97958,-2.22710739e-13 Z M1409.96167,-2.22710739e-13 C1411.71338,-2.22710739e-13 1412.58899,0.9324 1413.51563,1.92 C1414.4758,2.9424 1415.46799,4 1417.47038,4 L1417.47038,4 L1402.45496,4 C1404.45635,4 1405.44904,2.9424 1406.4082,1.92 C1407.33485,0.9324 1408.20995,-2.22710739e-13 1409.96167,-2.22710739e-13 Z M1394.94726,-2.22710739e-13 C1396.69897,-2.22710739e-13 1397.57458,0.9324 1398.50122,1.92 C1399.46089,2.9424 1400.45307,4 1402.45496,4 L1402.45496,4 L1387.44005,4 C1389.44194,4 1390.43413,2.9424 1391.39329,1.92 C1392.32044,0.9324 1393.19554,-2.22710739e-13 1394.94726,-2.22710739e-13 Z M1379.93234,-2.22710739e-13 C1381.68406,-2.22710739e-13 1382.55917,0.9324 1383.48531,1.92 C1384.44497,2.9424 1385.43766,4 1387.44005,4 L1387.44005,4 L1372.42614,4 C1374.42803,4 1375.41971,2.9424 1376.37888,1.92 C1377.30602,0.9324 1378.18063,-2.22710739e-13 1379.93234,-2.22710739e-13 Z M1364.91843,-2.22710739e-13 C1366.67015,-2.22710739e-13 1367.54525,0.9324 1368.4714,1.92 C1369.43106,2.9424 1370.42375,4 1372.42614,4 L1372.42614,4 L1357.41173,4 C1359.41311,4 1360.4053,2.9424 1361.36447,1.92 C1362.29161,0.9324 1363.16672,-2.22710739e-13 1364.91843,-2.22710739e-13 Z M1349.90602,-2.22710739e-13 C1351.65774,-2.22710739e-13 1352.53234,0.9324 1353.45949,1.92 C1354.41865,2.9424 1355.41034,4 1357.41173,4 L1357.41173,4 L1342.40032,4 C1344.4022,4 1345.39389,2.9424 1346.35356,1.92 C1347.2802,0.9324 1348.15481,-2.22710739e-13 1349.90602,-2.22710739e-13 Z M1334.89361,-2.22710739e-13 C1336.64533,-2.22710739e-13 1337.52043,0.9324 1338.44758,1.92 C1339.40674,2.9424 1340.39893,4 1342.40032,4 L1342.40032,4 L1327.38841,4 C1329.38979,4 1330.38198,2.9424 1331.34165,1.92 C1332.26729,0.9324 1333.1424,-2.22710739e-13 1334.89361,-2.22710739e-13 Z M1319.8807,-2.22710739e-13 C1321.63241,-2.22710739e-13 1322.50752,0.9324 1323.43416,1.92 C1324.39383,2.9424 1325.38602,4 1327.38841,4 L1327.38841,4 L1312.37399,4 C1314.37588,4 1315.36857,2.9424 1316.32824,1.92 C1317.25438,0.9324 1318.12949,-2.22710739e-13 1319.8807,-2.22710739e-13 Z M1304.86779,-2.22710739e-13 C1306.619,-2.22710739e-13 1307.49411,0.9324 1308.42075,1.92 C1309.38042,2.9424 1310.37261,4 1312.37399,4 L1312.37399,4 L1297.36158,4 C1299.36347,4 1300.35566,2.9424 1301.31532,1.92 C1302.24147,0.9324 1303.11657,-2.22710739e-13 1304.86779,-2.22710739e-13 Z M1289.85538,-2.22710739e-13 C1291.60709,-2.22710739e-13 1292.4817,0.9324 1293.40834,1.92 C1294.36801,2.9424 1295.35969,4 1297.36158,4 L1297.36158,4 L1282.34917,4 C1284.35056,4 1285.34325,2.9424 1286.30291,1.92 C1287.22906,0.9324 1288.10366,-2.22710739e-13 1289.85538,-2.22710739e-13 Z M1274.84297,-2.22710739e-13 C1276.59418,-2.22710739e-13 1277.46929,0.9324 1278.39543,1.92 C1279.3551,2.9424 1280.34778,4 1282.34917,4 L1282.34917,4 L1267.33676,4 C1269.33815,4 1270.33034,2.9424 1271.29,1.92 C1272.21665,0.9324 1273.09175,-2.22710739e-13 1274.84297,-2.22710739e-13 Z M1259.83106,-2.22710739e-13 C1261.58227,-2.22710739e-13 1262.45688,0.9324 1263.38302,1.92 C1264.34268,2.9424 1265.33487,4 1267.33676,4 L1267.33676,4 L1252.32485,4 C1254.32624,4 1255.31843,2.9424 1256.27809,1.92 C1257.20473,0.9324 1258.07934,-2.22710739e-13 1259.83106,-2.22710739e-13 Z M1244.81915,-2.22710739e-13 C1246.57086,-2.22710739e-13 1247.44547,0.9324 1248.37161,1.92 C1249.33127,2.9424 1250.32346,4 1252.32485,4 L1252.32485,4 L1237.31394,4 C1239.31533,4 1240.30702,2.9424 1241.26668,1.92 C1242.19282,0.9324 1243.06793,-2.22710739e-13 1244.81915,-2.22710739e-13 Z M1229.80724,-2.22710739e-13 C1231.55895,-2.22710739e-13 1232.43406,0.9324 1233.3602,1.92 C1234.31986,2.9424 1235.31255,4 1237.31394,4 L1237.31394,4 L1222.30253,4 C1224.30392,4 1225.29561,2.9424 1226.25527,1.92 C1227.18141,0.9324 1228.05652,-2.22710739e-13 1229.80724,-2.22710739e-13 Z M1214.79583,-2.22710739e-13 C1216.54704,-2.22710739e-13 1217.42215,0.9324 1218.34829,1.92 C1219.30795,2.9424 1220.30064,4 1222.30253,4 L1222.30253,4 L1207.29112,4 C1209.29251,4 1210.2842,2.9424 1211.24386,1.92 C1212.17,0.9324 1213.04511,-2.22710739e-13 1214.79583,-2.22710739e-13 Z M1199.78542,-2.22710739e-13 C1201.53663,-2.22710739e-13 1202.41124,0.9324 1203.33738,1.92 C1204.29704,2.9424 1205.28923,4 1207.29112,4 L1207.29112,4 L1192.28071,4 C1194.2816,4 1195.27329,2.9424 1196.23295,1.92 C1197.15909,0.9324 1198.0342,-2.22710739e-13 1199.78542,-2.22710739e-13 Z M1184.77551,-2.22710739e-13 C1186.52672,-2.22710739e-13 1187.40183,0.9324 1188.32747,1.92 C1189.28714,2.9424 1190.27932,4 1192.28071,4 L1192.28071,4 L1177.2703,4 C1179.27169,4 1180.26338,2.9424 1181.22304,1.92 C1182.14919,0.9324 1183.02429,-2.22710739e-13 1184.77551,-2.22710739e-13 Z M1169.7661,-2.22710739e-13 C1171.51731,-2.22710739e-13 1172.39192,0.9324 1173.31756,1.92 C1174.27723,2.9424 1175.26891,4 1177.2703,4 L1177.2703,4 L1162.26089,4 C1164.26228,4 1165.25397,2.9424 1166.21363,1.92 C1167.13978,0.9324 1168.01488,-2.22710739e-13 1169.7661,-2.22710739e-13 Z M1154.75619,-2.22710739e-13 C1156.5074,-2.22710739e-13 1157.38251,0.9324 1158.30815,1.92 C1159.26782,2.9424 1160.26001,4 1162.26089,4 L1162.26089,4 L1147.25249,4 C1149.25387,4 1150.24556,2.9424 1151.20473,1.92 C1152.13087,0.9324 1153.00547,-2.22710739e-13 1154.75619,-2.22710739e-13 Z M1139.74778,-2.22710739e-13 C1141.499,-2.22710739e-13 1142.3741,0.9324 1143.30024,1.92 C1144.25941,2.9424 1145.2516,4 1147.25249,4 L1147.25249,4 L1132.24308,4 C1134.24396,4 1135.23565,2.9424 1136.19532,1.92 C1137.12146,0.9324 1137.99657,-2.22710739e-13 1139.74778,-2.22710739e-13 Z M1124.73987,-2.22710739e-13 C1126.49059,-2.22710739e-13 1127.36519,0.9324 1128.29084,1.92 C1129.25,2.9424 1130.24219,4 1132.24308,4 L1132.24308,4 L1117.23567,4 C1119.23656,4 1120.22874,2.9424 1121.18791,1.92 C1122.11355,0.9324 1122.98866,-2.22710739e-13 1124.73987,-2.22710739e-13 Z M1109.72946,-2.22710739e-13 C1111.48068,-2.22710739e-13 1112.35629,0.9324 1113.28243,1.92 C1114.24209,2.9424 1115.23428,4 1117.23567,4 L1117.23567,4 L1102.22626,4 C1104.22715,4 1105.21934,2.9424 1106.1785,1.92 C1107.10414,0.9324 1107.97875,-2.22710739e-13 1109.72946,-2.22710739e-13 Z M1094.72356,-2.22710739e-13 C1096.47377,-2.22710739e-13 1097.34838,0.9324 1098.27452,1.92 C1099.23368,2.9424 1100.22537,4 1102.22626,4 L1102.22626,4 L1087.21985,4 C1089.22074,4 1090.21293,2.9424 1091.17209,1.92 C1092.09774,0.9324 1092.97234,-2.22710739e-13 1094.72356,-2.22710739e-13 Z M1079.71415,-2.22710739e-13 C1081.46536,-2.22710739e-13 1082.34047,0.9324 1083.26661,1.92 C1084.22628,2.9424 1085.21797,4 1087.21985,4 L1087.21985,4 L1072.21095,4 C1074.21183,4 1075.20402,2.9424 1076.16319,1.92 C1077.08883,0.9324 1077.96343,-2.22710739e-13 1079.71415,-2.22710739e-13 Z M1064.70874,-2.22710739e-13 C1066.45896,-2.22710739e-13 1067.33356,0.9324 1068.26021,1.92 C1069.21887,2.9424 1070.21056,4 1072.21095,4 L1072.21095,4 L1057.20604,4 C1059.20693,4 1060.19861,2.9424 1061.15728,1.92 C1062.08392,0.9324 1062.95853,-2.22710739e-13 1064.70874,-2.22710739e-13 Z M1049.70134,-2.22710739e-13 C1051.45205,-2.22710739e-13 1052.32716,0.9324 1053.2533,1.92 C1054.21246,2.9424 1055.20465,4 1057.20604,4 L1057.20604,4 L1042.19613,4 C1044.19752,4 1045.18971,2.9424 1046.14887,1.92 C1047.07551,0.9324 1047.95012,-2.22710739e-13 1049.70134,-2.22710739e-13 Z M1034.69143,-2.22710739e-13 C1036.44264,-2.22710739e-13 1037.31725,0.9324 1038.24389,1.92 C1039.20305,2.9424 1040.19474,4 1042.19613,4 L1042.19613,4 L1027.18572,4 C1029.18711,4 1030.1793,2.9424 1031.13896,1.92 C1032.0651,0.9324 1032.94021,-2.22710739e-13 1034.69143,-2.22710739e-13 Z M1019.68102,-2.22710739e-13 C1021.43223,-2.22710739e-13 1022.30684,0.9324 1023.23348,1.92 C1024.19265,2.9424 1025.18433,4 1027.18572,4 L1027.18572,4 L1012.17631,4 C1014.1777,4 1015.16939,2.9424 1016.12855,1.92 C1017.0552,0.9324 1017.9298,-2.22710739e-13 1019.68102,-2.22710739e-13 Z M1004.67111,-2.22710739e-13 C1006.42232,-2.22710739e-13 1007.29693,0.9324 1008.22357,1.92 C1009.18274,2.9424 1010.17492,4 1012.17631,4 L1012.17631,4 L997.166403,4 C999.167791,4 1000.15948,2.9424 1001.11864,1.92 C1002.04479,0.9324 1002.91989,-2.22710739e-13 1004.67111,-2.22710739e-13 Z M989.661198,-2.22710739e-13 C991.412413,-2.22710739e-13 992.28752,0.9324 993.213662,1.92 C994.173328,2.9424 995.165015,4 997.166403,4 L997.166403,4 L982.156494,4 C984.157882,4 985.15007,2.9424 986.109235,1.92 C987.035378,0.9324 987.910484,-2.22710739e-13 989.661198,-2.22710739e-13 Z M974.65179,-2.22710739e-13 C976.403004,-2.22710739e-13 977.277611,0.9324 978.203753,1.92 C979.162918,2.9424 980.155106,4 982.156494,4 L982.156494,4 L967.147085,4 C969.148473,4 970.140161,2.9424 971.099827,1.92 C972.025969,0.9324 972.901076,-2.22710739e-13 974.65179,-2.22710739e-13 Z M959.641881,-2.22710739e-13 C961.393095,-2.22710739e-13 962.267702,0.9324 963.194344,1.92 C964.153509,2.9424 965.145697,4 967.147085,4 L967.147085,4 L952.137677,4 C954.138564,4 955.130752,2.9424 956.089917,1.92 C957.01606,0.9324 957.890666,-2.22710739e-13 959.641881,-2.22710739e-13 Z M944.632972,-2.22710739e-13 C946.383686,-2.22710739e-13 947.258793,0.9324 948.184935,1.92 C949.144101,2.9424 950.136289,4 952.137677,4 L952.137677,4 L937.127267,4 C939.129155,4 940.120843,2.9424 941.080509,1.92 C942.006651,0.9324 942.881758,-2.22710739e-13 944.632972,-2.22710739e-13 Z M929.623063,-2.22710739e-13 C931.373777,-2.22710739e-13 932.248884,0.9324 933.175026,1.92 C934.134192,2.9424 935.125879,4 937.127267,4 L937.127267,4 L922.118859,4 C924.119747,4 925.111935,2.9424 926.0706,1.92 C926.997242,0.9324 927.871849,-2.22710739e-13 929.623063,-2.22710739e-13 Z M914.614155,-2.22710739e-13 C916.365369,-2.22710739e-13 917.239976,0.9324 918.166118,1.92 C919.125283,2.9424 920.117471,4 922.118859,4 L922.118859,4 L907.10895,4 C909.110338,4 910.102026,2.9424 911.061191,1.92 C911.987833,0.9324 912.86294,-2.22710739e-13 914.614155,-2.22710739e-13 Z M899.604246,-2.22710739e-13 C901.35546,-2.22710739e-13 902.230067,0.9324 903.156209,1.92 C904.115374,2.9424 905.107562,4 907.10895,4 L907.10895,4 L892.100042,4 C894.10143,4 895.093117,2.9424 896.052282,1.92 C896.978425,0.9324 897.853031,-2.22710739e-13 899.604246,-2.22710739e-13 Z M884.595337,-2.22710739e-13 C886.346552,-2.22710739e-13 887.221659,0.9324 888.147801,1.92 C889.106966,2.9424 890.098654,4 892.100042,4 L892.100042,4 L877.090133,4 C879.09152,4 880.083709,2.9424 881.042874,1.92 C881.969516,0.9324 882.844123,-2.22710739e-13 884.595337,-2.22710739e-13 Z M869.585929,-2.22710739e-13 C871.337143,-2.22710739e-13 872.211749,0.9324 873.138392,1.92 C874.097057,2.9424 875.089245,4 877.090133,4 L877.090133,4 L862.082225,4 C864.083112,4 865.0748,2.9424 866.033965,1.92 C866.960108,0.9324 867.835214,-2.22710739e-13 869.585929,-2.22710739e-13 Z M854.57752,-2.22710739e-13 C856.328735,-2.22710739e-13 857.203842,0.9324 858.129984,1.92 C859.089149,2.9424 860.080837,4 862.082225,4 L862.082225,4 L847.072316,4 C849.073704,4 850.065892,2.9424 851.025057,1.92 C851.9517,0.9324 852.826306,-2.22710739e-13 854.57752,-2.22710739e-13 Z M839.568112,-2.22710739e-13 C841.318826,-2.22710739e-13 842.193933,0.9324 843.120075,1.92 C844.07924,2.9424 845.070928,4 847.072316,4 L847.072316,4 L832.063908,4 C834.065296,4 835.056983,2.9424 836.016149,1.92 C836.942291,0.9324 837.817398,-2.22710739e-13 839.568112,-2.22710739e-13 Z M824.560204,-2.22710739e-13 C826.310918,-2.22710739e-13 827.186025,0.9324 828.112167,1.92 C829.071332,2.9424 830.06302,4 832.063908,4 L832.063908,4 L817.0555,4 C819.056888,4 820.049076,2.9424 821.008241,1.92 C821.934383,0.9324 822.80899,-2.22710739e-13 824.560204,-2.22710739e-13 Z M809.550795,-2.22710739e-13 C811.301509,-2.22710739e-13 812.176616,0.9324 813.102759,1.92 C814.062424,2.9424 815.054112,4 817.0555,4 L817.0555,4 L802.046591,4 C804.047479,4 805.039167,2.9424 805.998332,1.92 C806.924974,0.9324 807.799581,-2.22710739e-13 809.550795,-2.22710739e-13 Z M794.542387,-2.22710739e-13 C796.293602,-2.22710739e-13 797.168208,0.9324 798.09435,1.92 C799.053516,2.9424 800.045704,4 802.046591,4 L802.046591,4 L787.038684,4 C789.040071,4 790.031759,2.9424 790.990924,1.92 C791.917067,0.9324 792.791673,-2.22710739e-13 794.542387,-2.22710739e-13 Z M779.53448,-2.22710739e-13 C781.285194,-2.22710739e-13 782.1603,0.9324 783.086443,1.92 C784.045608,2.9424 785.037296,4 787.038684,4 L787.038684,4 L772.029275,4 C774.030663,4 775.022851,2.9424 775.982016,1.92 C776.908158,0.9324 777.783265,-2.22710739e-13 779.53448,-2.22710739e-13 Z M764.525071,-2.22710739e-13 C766.275785,-2.22710739e-13 767.150892,0.9324 768.077034,1.92 C769.036199,2.9424 770.027887,4 772.029275,4 L772.029275,4 L757.021367,4 C759.022255,4 760.013942,2.9424 760.973108,1.92 C761.89925,0.9324 762.774357,-2.22710739e-13 764.525071,-2.22710739e-13 Z M749.517663,-2.22710739e-13 C751.268878,-2.22710739e-13 752.143484,0.9324 753.069627,1.92 C754.028792,2.9424 755.02048,4 757.021367,4 L757.021367,4 L742.01396,4 C744.015348,4 745.007035,2.9424 745.966201,1.92 C746.892343,0.9324 747.766949,-2.22710739e-13 749.517663,-2.22710739e-13 Z M734.509756,-2.22710739e-13 C736.26047,-2.22710739e-13 737.135577,0.9324 738.061719,1.92 C739.020884,2.9424 740.012572,4 742.01396,4 L742.01396,4 L727.004551,4 C729.005939,4 729.997627,2.9424 730.957292,1.92 C731.883935,0.9324 732.758541,-2.22710739e-13 734.509756,-2.22710739e-13 Z M1440,-2.22710739e-13 L1440,4 L1432.49029,4 C1434.49268,4 1435.48537,2.9424 1436.44554,1.92 C1437.37268,0.9324 1438.24778,-2.22710739e-13 1440,-2.22710739e-13 L1440,-2.22710739e-13 Z" id="Rectangle-3"></path>
                    </g>
                </g>
            </g>
        </g>
    </g>
</svg>