<?xml version="1.0" encoding="UTF-8"?>
<svg width="40px" height="40px" viewBox="0 0 40 40" version="1.1" xmlns="http://www.w3.org/2000/svg" xmlns:xlink="http://www.w3.org/1999/xlink">
    <title>461AC162-75D2-46F3-8287-5B8663325331</title>
    <g id="Page-1" stroke="none" stroke-width="1" fill="none" fill-rule="evenodd">
        <g id="3-1-cause-pc" transform="translate(-1032.000000, -2064.000000)" fill-rule="nonzero">
            <g id="m3" transform="translate(166.000000, 1658.000000)">
                <g id="icon/social" transform="translate(810.000000, 406.000000)">
                    <g id="social">
                        <g id="button/icon/fb" transform="translate(56.000000, 0.000000)">
                            <g id="line">
                                <circle id="Oval" fill="#CA9762" cx="20" cy="20" r="20"></circle>
                                <g id="Group" transform="translate(8.888889, 16.666667)" fill="#FFFFFF">
                                    <path d="M1.72777778,6.12666667 L1.72777778,0.826666667 C1.72777778,0.378888889 1.34222222,0.0155555556 0.865555556,0.0155555556 C0.39,0.0155555556 0.00444444444,0.378888889 0.00444444444,0.826666667 L0.00444444444,6.93555556 C0.00444444444,7.38222222 0.39,7.74444444 0.865555556,7.74444444 L4.31333333,7.74444444 C4.78888889,7.74444444 5.17444444,7.38222222 5.17444444,6.93555556 C5.17444444,6.48888889 4.78888889,6.12666667 4.31333333,6.12666667 L1.72777778,6.12666667 Z M7.04444444,7.74444444 L6.66666667,7.74444444 C6.29444444,7.74444444 5.99333333,7.46111111 5.99333333,7.11222222 L5.99333333,0.648888889 C5.99333333,0.3 6.29444444,0.0155555556 6.66666667,0.0155555556 L7.04444444,0.0155555556 C7.41555556,0.0155555556 7.71666667,0.3 7.71666667,0.648888889 L7.71666667,7.11222222 C7.71666667,7.46111111 7.41555556,7.74555556 7.04333333,7.74555556 L7.04444444,7.74444444 Z M14.0077778,0.825555556 L14.0077778,4.55888889 C14.0077778,4.55888889 10.5666667,0.343333333 10.5133333,0.287777778 C10.3374986,0.104633618 10.0914378,0.00588553709 9.83777778,0.0166666667 C9.38127407,0.0314441747 9.01687895,0.402197867 9.01,0.858888889 L9.01,6.93555556 C9.01,7.38222222 9.39555556,7.74444444 9.87111111,7.74444444 C10.3477778,7.74444444 10.7333333,7.38222222 10.7333333,6.93555556 L10.7333333,3.22555556 C10.7333333,3.22555556 14.2277778,7.47777778 14.2777778,7.52333333 C14.4391446,7.66591929 14.6468862,7.7449085 14.8622222,7.74555926 C15.3331863,7.74691796 15.719037,7.37192233 15.7311111,6.90111111 L15.7311111,0.825555556 C15.7311111,0.378888889 15.3455556,0.0166666667 14.87,0.0166666667 C14.3933333,0.0166666667 14.0077778,0.378888889 14.0077778,0.825555556 L14.0077778,0.825555556 Z M22.1944444,0.825555556 C22.1944444,0.378888889 21.8088889,0.0166666667 21.3333333,0.0166666667 L17.8855556,0.0166666667 C17.41,0.0166666667 17.0244444,0.378888889 17.0244444,0.825555556 L17.0244444,6.93555556 C17.0244444,7.38222222 17.41,7.74444444 17.8855556,7.74444444 L21.3333333,7.74444444 C21.8088889,7.74444444 22.1944444,7.38222222 22.1944444,6.93555556 C22.1944444,6.48888889 21.8088889,6.12666667 21.3333333,6.12666667 L18.7477778,6.12666667 L18.7477778,4.68888889 L21.3333333,4.68888889 C21.8088889,4.68888889 22.1944444,4.32666667 22.1944444,3.87888889 C22.1944444,3.43222222 21.8088889,3.07 21.3333333,3.07 L18.7477778,3.07 L18.7477778,1.63333333 L21.3333333,1.63333333 C21.8088889,1.63333333 22.1944444,1.27111111 22.1944444,0.824444444 L22.1944444,0.825555556 Z" id="Shape"></path>
                                </g>
                            </g>
                        </g>
                    </g>
                </g>
            </g>
        </g>
    </g>
</svg>