<?xml version="1.0" encoding="UTF-8"?>
<svg width="40px" height="35px" viewBox="0 0 40 35" version="1.1" xmlns="http://www.w3.org/2000/svg" xmlns:xlink="http://www.w3.org/1999/xlink">
    <title>3B7CC0A3-3838-4B7F-B1DD-964B1B6603D4</title>
    <defs>
        <polygon id="path-1" points="0.000878998858 0.24712963 39.9920574 0.24712963 39.9920574 8.0952381 0.000878998858 8.0952381"></polygon>
    </defs>
    <g id="Page-1" stroke="none" stroke-width="1" fill="none" fill-rule="evenodd">
        <g id="0-1-Design-guideline" transform="translate(-558.000000, -747.000000)">
            <g id="logo/77-w-copy" transform="translate(558.000000, 747.000000)">
                <g id="77-w">
                    <g id="logo-77-w">
                        <path d="M32.2660816,1.08331291 C31.766984,1.11150338 31.7467714,1.49677317 32.2225466,1.52339751 C34.3448772,1.66434987 34.1038799,5.28682559 29.0693697,10.9875656 C21.5144948,19.5621677 8.45710855,21.4399664 10.2047273,12.5443061 C10.5592265,10.7432482 12.2011174,8.29850774 14.2301587,6.36589424 C14.7898942,5.83340753 14.4633818,5.5217462 13.7901444,6.01351333 C10.2949069,8.55848655 7.57086061,11.801957 7.03289257,15.108073 C5.59157356,23.9912041 20.1260397,25.2018283 29.4907262,14.321872 C35.1145135,7.78168241 36.335048,0.89067801 32.2660816,1.08331291" id="Fill-1" fill="#CA9762"></path>
                        <g id="Group-5" transform="translate(0.000000, 25.365079)">
                            <mask id="mask-2" fill="white">
                                <use xlink:href="#path-1"></use>
                            </mask>
                            <g id="Clip-4"></g>
                            <path d="M33.9603856,5.10966931 C34.1505805,4.87724603 34.4187241,4.76256349 34.7024574,4.73045238 C34.8240574,4.71516138 34.9363036,4.72739418 34.9971036,4.74880159 C35.0532267,4.76562169 35.0844062,4.7870291 35.092201,4.83137302 C35.1342933,5.09437831 34.9799549,5.31915608 34.6400985,5.51946825 C34.36416,5.67084921 33.9447959,5.78706085 33.6719754,5.88033598 C33.6688574,5.6555582 33.7826626,5.31915608 33.9603856,5.10966931 L33.9603856,5.10966931 Z M21.9297805,5.27328307 C21.658519,5.59286508 21.5275651,5.81152646 21.533801,5.91856349 C21.5493908,6.11887566 21.6226626,6.31612963 21.7614113,6.5133836 C21.6226626,6.61124603 21.4792369,6.69840476 21.3295754,6.77944709 C21.1783549,6.85131481 21.0364882,6.88648413 20.9024164,6.88648413 C20.7574318,6.88648413 20.6358318,6.8176746 20.5391754,6.68005556 C20.4316062,6.54855291 20.3739241,6.37882275 20.3614523,6.17851058 C20.3411856,5.77635714 20.4581087,5.40172751 20.6981908,5.10049471 C20.9741292,4.74880159 21.2157703,4.56378042 21.6070728,4.56378042 C21.7037292,4.56378042 21.8019446,4.59894974 21.9126318,4.66470106 C22.02176,4.73656878 22.0778831,4.81455291 22.084119,4.90018254 C22.1059446,5.00263228 22.0513805,5.13107672 21.9297805,5.27328307 L21.9297805,5.27328307 Z M13.8340267,5.27328307 C13.5580882,5.59286508 13.4271344,5.81152646 13.4349292,5.91856349 C13.447401,6.11887566 13.5237908,6.31612963 13.6578626,6.5133836 C13.5269087,6.61124603 13.3850421,6.69840476 13.2307036,6.77944709 C13.0810421,6.85131481 12.8549908,6.88648413 12.7318318,6.88648413 C12.5930831,6.88648413 12.4823959,6.8176746 12.3810626,6.68005556 C12.2828472,6.54855291 12.2282831,6.37882275 12.2173703,6.17851058 C12.1924267,5.77635714 12.3093497,5.40172751 12.53696,5.10049471 C12.8019856,4.74880159 13.0483036,4.56378042 13.4411651,4.56378042 C13.5362626,4.56378042 13.7015138,4.59894974 13.812201,4.66470106 C13.9213292,4.73656878 13.9774523,4.81455291 13.9805703,4.90018254 C14.0055138,5.00263228 13.9525087,5.13107672 13.8340267,5.27328307 L13.8340267,5.27328307 Z M39.9187856,5.9338545 C39.6849395,6.14945767 39.5415138,6.28401852 39.4931856,6.31612963 C39.1891856,6.58525132 38.8571241,6.75803968 38.6622523,6.8115582 C38.7838523,6.59136772 38.9007754,6.28401852 38.9475446,6.02407143 C38.9911959,5.77024074 39.0021087,5.45983333 38.9771651,5.12190212 C38.9724882,5.00263228 38.9646933,4.88794974 38.9491036,4.7870291 C38.9381908,4.68305026 38.8820677,4.4919127 38.8399754,4.2105582 C38.8446523,4.14480688 38.8945395,4.00412963 38.9818421,3.80381746 C39.0488779,3.6340873 39.0800574,3.50258466 39.0738215,3.39248942 C39.0613497,3.24569577 39.0083446,3.12642593 38.9163651,3.0392672 C38.8259446,2.95669577 38.6981087,2.92305556 38.5406523,2.94140476 C38.2803036,2.96892857 38.1228472,3.15089153 38.0558113,3.47353175 C37.9638318,3.93837831 37.9061497,4.10046296 37.8734113,4.14480688 C37.405719,4.7931455 36.8600779,5.51641005 36.2333703,6.10970106 C36.0088779,6.31612963 35.8592164,6.44457407 35.6175754,6.58525132 C35.27616,6.79167989 35.0111344,6.88648413 34.6603651,6.90789153 C34.301801,6.92012434 33.9245292,6.8023836 33.8325497,6.61430423 C34.0710728,6.49809259 34.8053497,6.28401852 35.4320574,5.88033598 C35.9496369,5.55463757 36.1569805,5.12801852 36.0805908,4.66164286 C36.0400574,4.43533598 35.9137805,4.25031481 35.6799344,4.10352116 C35.4492062,3.95978571 35.1514421,3.9093254 34.849001,3.9215582 C34.2113805,3.94449471 33.6439138,4.16927249 33.1918113,4.68610847 C32.7895959,5.14178042 32.6290215,5.6448545 32.6882626,6.2182672 C32.5775754,6.29472222 32.480919,6.35741534 32.4076472,6.41246296 C31.9617805,6.70452116 31.6733703,6.85437302 31.5252677,6.85437302 C31.4597908,6.85437302 31.4317292,6.79167989 31.4597908,6.68005556 C31.4707036,6.63571164 31.5580062,6.33753704 31.7606728,5.78400265 C31.8900677,5.41396032 32.0802626,4.92464815 32.3125497,4.32065344 C32.4123241,4.06682275 32.4871549,3.86956878 32.5869292,3.6157381 L33.2915856,3.6157381 C33.3508267,3.53010847 33.4256574,3.39554762 33.4599549,3.3389709 C33.5160779,3.22887566 33.5394626,3.13865873 33.5363446,3.0637328 C33.5332267,3.01021429 33.5082831,2.95669577 33.45216,2.91693915 C33.3367959,2.84812963 33.1871344,2.82825132 33.0530626,2.82825132 C33.0187651,2.82825132 32.9501703,2.83130952 32.8488369,2.84812963 L33.3742113,1.71353704 C33.389801,1.66001852 33.4007138,1.6126164 33.3960369,1.56827249 C33.3882421,1.45664815 33.3492677,1.37101852 33.2806728,1.29609259 C33.2167549,1.21505026 33.1154215,1.17682275 32.9984985,1.17682275 C32.7895959,1.17682275 32.5651036,1.37101852 32.3265805,1.74717725 C32.0849395,2.12945238 31.933719,2.50561111 31.87136,2.89094444 L30.77696,2.89094444 C30.6849805,3.10501852 30.6241805,3.38637302 30.6382113,3.6157381 L31.56736,3.6157381 C31.5782728,3.81299206 31.5486523,3.96590212 31.4488779,4.1952672 C31.3678113,4.36346825 31.2540062,4.57142593 31.1059036,4.7717381 C30.7535754,5.24423016 30.2827651,5.71825132 29.8384574,6.14639947 C29.5032779,6.45374868 29.1244472,6.74886508 28.9856985,6.79167989 C28.9186626,6.8115582 28.8578626,6.78556349 28.89216,6.70452116 C28.9248985,6.62347884 29.43936,5.28245767 29.43936,5.28245767 C29.2803446,5.21058995 29.1431549,5.16930423 28.9482831,5.16012963 C28.8266831,5.15707143 28.6520779,5.18153704 28.4946215,5.23505556 C28.2997497,5.59286508 28.1906215,5.84669577 28.0814933,6.03324603 C27.7213703,6.62959524 27.3690421,6.88648413 27.0868677,6.88648413 C26.9964472,6.88648413 26.9200574,6.83602381 26.8654933,6.71981217 C26.8031344,6.61430423 26.7750728,6.48891799 26.765719,6.34365344 C26.7345395,5.84210847 26.9527959,5.41396032 27.4033395,5.10966931 C27.8086728,4.84360582 28.28416,4.71210317 28.8422728,4.71210317 C29.0652062,4.71210317 29.2896985,4.74880159 29.5141908,4.81455291 C29.5188677,4.7809127 29.5188677,4.72739418 29.5188677,4.66164286 C29.5032779,4.47050529 29.4720985,4.2136164 29.4019446,4.02247884 C29.2460472,3.97507672 29.0324677,3.94143651 28.9560779,3.93837831 C28.8812472,3.9307328 28.7939446,3.9246164 28.6863754,3.9246164 C27.9006523,3.9246164 27.2287344,4.11881217 26.6098215,4.61424074 C26.0314421,5.0714418 25.7134113,5.6586164 25.7149703,6.28401852 C25.6385805,6.34059524 25.5746626,6.39411376 25.5232164,6.43539947 C25.1350318,6.73357407 24.9136574,6.88036772 24.8325908,6.88036772 C24.8154421,6.88036772 24.7702318,6.89260053 24.7156677,6.86201852 C24.7000779,6.85437302 24.6720164,6.82684921 24.6642215,6.7947381 C24.63616,6.57607672 24.7530831,6.12805026 24.9744574,5.43230952 C25.1521805,4.90018254 25.2519549,4.59283333 25.2737805,4.5056746 C25.5824574,3.97507672 25.7882421,3.60503439 25.8848985,3.38637302 C26.09536,2.94140476 26.2574933,2.53160582 26.3557087,2.15238889 C26.458601,1.77317196 26.4944574,1.38478042 26.4710728,0.982626984 C26.458601,0.832775132 26.4165087,0.713505291 26.3510318,0.609526455 C26.2746421,0.504018519 26.15616,0.456616402 26.0314421,0.456616402 C25.8771036,0.494843915 25.7523856,0.609526455 25.6385805,0.791489418 C25.6229908,0.811367725 25.5543959,0.967335979 25.4296779,1.26551058 C25.4296779,1.26551058 24.4662318,4.33288624 24.3415138,4.72433598 C24.2292677,5.0714418 23.29856,5.89256878 23.1301908,6.03477513 C23.0584779,6.08982275 22.9680574,6.13416667 22.8807549,6.11275926 C22.9181703,6.01795503 22.932201,5.9338545 22.932201,5.86504497 C22.9306421,5.79623545 22.9306421,5.71825132 22.9197292,5.6387381 C22.9197292,5.57604497 22.9072574,5.49806085 22.8979036,5.41396032 C22.8979036,5.40172751 22.8979036,5.38184921 22.8963446,5.3512672 C22.8963446,5.32833069 22.8963446,5.29163228 22.8979036,5.24728836 C22.9041395,5.19988624 22.932201,5.12190212 22.9836472,5.00263228 C23.0366523,4.88336243 23.0631549,4.7900873 23.0584779,4.73045238 C23.0382113,4.44909788 22.8916677,4.2044418 22.6016985,3.99801323 C22.3179651,3.78393915 22.0311138,3.67690212 21.7130831,3.67690212 C21.0084267,3.67690212 20.4581087,3.95366931 19.9857395,4.51179101 C19.652119,4.90935714 19.4338626,5.3543254 19.3730626,5.84363757 C19.1672779,5.96443651 18.7744164,6.26872751 18.61696,6.37576455 C18.0837908,6.74274868 17.6083036,6.88648413 17.2980677,6.88648413 C17.1031959,6.88648413 16.9441805,6.83602381 16.8147856,6.69228836 C16.6916267,6.55466931 16.6214728,6.36964815 16.6058831,6.17239418 C16.5856164,5.81152646 16.669801,5.46136243 16.8958523,5.15095503 C17.0907241,4.87724603 17.3526318,4.70904497 17.6566318,4.70904497 C17.7470523,4.70904497 17.8218831,4.73045238 17.8982728,4.7778545 C17.9684267,4.82066931 18.0214318,4.88336243 18.0354626,4.96899206 C18.0479344,5.05920899 18.0385805,5.11272751 17.9949292,5.21976455 C17.9528369,5.33138889 17.9138626,5.41396032 17.8748882,5.48276984 L18.7214113,5.48276984 C18.7931241,5.3543254 18.8367754,5.23505556 18.8726318,5.13107672 C18.9334318,4.92464815 18.9599344,4.67693386 18.9427856,4.54848942 C18.9131651,4.32065344 18.7946831,4.14480688 18.6263138,4.03471164 C18.4252062,3.90320899 18.1804472,3.83745767 17.8920369,3.83745767 C17.1936164,3.83745767 16.6495344,4.07599735 16.1381908,4.63411905 C15.7952164,5.01486508 15.6237292,5.46136243 15.5800779,5.9277381 C15.5317497,5.9491455 15.4974523,5.97819841 15.4397703,6.01795503 C15.4226215,6.02101323 15.3041395,6.10052646 15.1731856,6.13722487 C15.0967959,6.15863228 14.970519,6.13722487 14.8613908,6.11275926 C14.8910113,6.01795503 14.909719,5.9338545 14.909719,5.86504497 C14.909719,5.79623545 14.9034831,5.71825132 14.8972472,5.6387381 C14.8972472,5.57604497 14.8878933,5.49806085 14.8769805,5.41396032 C14.8723036,5.40172751 14.8723036,5.38184921 14.8723036,5.3512672 C14.8723036,5.32833069 14.8723036,5.29163228 14.8769805,5.24728836 C14.8785395,5.19988624 14.9112779,5.12190212 14.9627241,5.00263228 C15.0219651,4.88336243 15.0484677,4.7900873 15.0422318,4.73045238 C15.0250831,4.44909788 14.8676267,4.2044418 14.5683036,3.99801323 C14.2689805,3.78393915 13.9291241,3.67690212 13.5939446,3.67690212 C12.8612267,3.67690212 12.2672574,3.95366931 11.7995651,4.51179101 C11.44256,4.94605556 11.2133908,5.42619312 11.1759754,5.9522037 C11.0886728,6.00266402 11.0060472,6.06841534 10.9639549,6.10664286 C10.772201,6.26261111 10.6240985,6.40634656 10.4557292,6.5286746 C10.1907036,6.72898677 9.96153436,6.83602381 9.81343179,6.87425132 C9.76042667,6.88648413 9.69650872,6.87730952 9.71365744,6.83602381 C9.73236513,6.8054418 10.22656,5.56992857 10.3200985,5.3543254 C10.6053908,4.70292857 10.7394626,4.27325132 10.7316677,4.05306085 C10.7191959,3.93837831 10.6708677,3.84663228 10.5882421,3.78088095 C10.5024985,3.71207143 10.4058421,3.67690212 10.2920369,3.67690212 C10.1018421,3.67690212 9.93035487,3.67078571 9.59049846,3.85580688 C9.32859077,4.00412963 9.07136,4.18150529 8.69408821,4.44909788 C8.52104205,4.56836772 8.08764718,4.90018254 7.8615959,5.12190212 C8.01281641,4.68305026 8.14221128,4.37570106 8.52416,3.56527778 C9.08227282,2.36493386 9.10409846,2.34352646 9.11968821,2.32364815 C9.38471385,1.71353704 9.50943179,1.29609259 9.49228308,1.04837831 C9.47981128,0.901584656 9.43460103,0.770082011 9.34106256,0.656928571 C9.2475241,0.543775132 9.13527795,0.481082011 8.99652923,0.481082011 C8.86869333,0.481082011 8.75644718,0.528484127 8.66914462,0.617171958 C8.61146256,0.68292328 8.54442667,0.788431217 8.49298051,0.929108466 C8.38697026,1.18293915 8.28251897,1.43982804 8.18430359,1.69977513 C8.06114462,1.99794974 7.95045744,2.25789683 7.62774974,3.03162169 C7.48744205,3.37719841 7.45938051,3.48270635 7.41417026,3.59891799 C7.41417026,3.59891799 6.99168821,4.27019312 5.75386256,5.34820899 C5.23316513,5.76106614 4.87616,6.06841534 4.3351959,6.39411376 C3.9579241,6.62347884 3.31406769,6.91094974 2.83546256,6.94611905 C2.48313436,6.97670106 1.96555487,6.87730952 1.66623179,6.62653704 C1.37158564,6.38799735 1.21724718,6.01795503 1.16891897,5.69225661 C1.05823179,4.87724603 1.49474462,3.78088095 2.4503959,2.70592328 C3.31718564,1.73494444 4.09667282,1.22422487 4.89954462,1.22422487 C5.09441641,1.22422487 5.26746256,1.27162698 5.41400615,1.35878571 C5.57769846,1.45053175 5.65252923,1.57285979 5.66188308,1.73494444 C5.69306256,2.20437831 5.44206769,2.65546296 4.91357538,3.08819841 C4.53006769,3.39554762 4.04678564,3.67078571 3.46061128,3.90015079 C3.40448821,4.06682275 3.36863179,4.24419841 3.33589333,4.43227778 C3.3015959,4.62035714 3.2891241,4.81455291 3.28600615,5.00263228 C4.10602667,4.86195503 5.16301128,4.36346825 5.76477538,3.79923016 C6.47722667,3.13865873 6.79837538,2.23343122 6.73913436,1.55909788 C6.71419077,1.22728307 6.53490872,0.898526455 6.17322667,0.638579365 C5.81154462,0.378632275 5.41088821,0.24712963 4.97125744,0.24712963 C4.10602667,0.24712963 3.25638564,0.644695767 2.40674462,1.3312619 C1.66623179,1.93831481 1.04576,2.66922487 0.548447179,3.56833598 C0.132201026,4.34511905 -0.0579938462,5.13107672 0.0168369231,5.77024074 C0.0854317949,6.38799735 0.302129231,7.0898545 0.836857436,7.52870635 C1.30454974,7.91709788 2.01076513,8.13270106 2.65306256,8.08988624 C3.55726769,8.03025132 4.28686769,7.63268519 4.85433436,7.27793386 C5.24563692,7.03633598 5.85987282,6.47821429 6.25429333,6.05312434 C6.38524718,5.9277381 6.56608821,5.74271693 6.5723241,5.73965873 C6.56452923,5.81152646 6.10307282,6.84214021 6.02668308,7.01798677 C5.97835487,7.15866402 5.95652923,7.29016667 5.96120615,7.40637831 C5.95964718,7.51035714 5.98614974,7.60669048 6.03291897,7.69232011 C6.09060103,7.78865344 6.16387282,7.84828836 6.26052923,7.84828836 C6.67365744,7.84828836 6.99168821,7.03633598 7.26762667,6.62653704 C7.35804718,6.49197619 7.76805744,6.10664286 8.15780103,5.79623545 C8.64264205,5.42007672 9.20387282,5.00874868 9.43460103,4.90935714 C9.43460103,4.90935714 8.56625231,7.07762169 8.53663179,7.24276455 C8.50545231,7.40637831 8.56001641,7.51035714 8.65511385,7.61586508 C8.74397538,7.72596032 8.87492923,7.77642063 9.01211897,7.77642063 L9.13527795,7.77642063 C9.48292923,7.77642063 9.92256,7.6663254 10.3107446,7.44154762 C10.5648574,7.29628307 10.9499241,6.99046296 11.2398933,6.73663228 C11.2960164,6.96446825 11.3926728,7.15866402 11.5205087,7.32227778 C11.7668267,7.62503968 12.1565703,7.77030423 12.5884062,7.77030423 C12.9157908,7.77030423 13.3024164,7.69232011 13.6563036,7.55011376 C14.0101908,7.40332011 14.2876882,7.21829894 14.4950318,6.99046296 C14.5714215,6.90789153 14.7023754,6.88648413 14.7569395,6.88648413 L14.9299856,6.88648413 C15.0858831,6.88648413 15.2417805,6.84519841 15.3587036,6.78556349 C15.4350933,6.74580688 15.5208369,6.68923016 15.5941087,6.62959524 C15.6627036,7.00575397 15.8357497,7.28405026 16.0992164,7.49047884 C16.3299446,7.6693836 16.67136,7.76112963 17.1016369,7.76112963 C17.5459446,7.76112963 18.0775549,7.56387566 18.4049395,7.3849709 C18.8071549,7.15866402 19.1407754,6.88036772 19.4151549,6.69840476 C19.4775138,6.93694444 19.5726113,7.14948942 19.709801,7.32227778 C19.95456,7.62503968 20.3443036,7.77030423 20.7761395,7.77030423 C21.1035241,7.77030423 21.3919344,7.69232011 21.7333497,7.55011376 C22.0716472,7.40332011 22.32576,7.20912434 22.5315446,6.99046296 C22.6359959,6.88036772 22.7342113,6.88648413 22.7809805,6.88648413 L22.9509087,6.88648413 C23.1052472,6.88648413 23.2938831,6.75803968 23.4092472,6.66323545 C23.4762831,6.61736243 23.5261703,6.57301852 23.5760574,6.5225582 C23.6352985,6.47209788 23.7038933,6.39411376 23.7818421,6.30389683 C23.7303959,6.47515608 23.6352985,6.7947381 23.60256,6.94917725 C23.5713805,7.1112619 23.5495549,7.29016667 23.5495549,7.3972037 C23.5495549,7.49659524 23.6352985,7.61586508 23.7459856,7.6693836 C23.8660267,7.74125132 24.0375138,7.76724603 24.1856164,7.77030423 C24.5317087,7.78865344 24.9043036,7.65409259 25.2893703,7.41249471 C25.4795651,7.30239947 25.6650831,7.16478042 25.8459241,7.00575397 C25.8848985,7.12196561 25.9394626,7.22441534 26.0033805,7.31004497 C26.2013703,7.57610847 26.5178421,7.74430952 26.8748472,7.77030423 C27.2349703,7.79782804 27.7244882,7.56387566 27.9879549,7.23053175 C27.9941908,7.26264286 27.9988677,7.35591799 28.0082215,7.3910873 C28.0206933,7.49659524 28.0955241,7.61586508 28.1750318,7.6693836 C28.2763651,7.74125132 28.4400574,7.77030423 28.6068677,7.77030423 C28.8999549,7.77030423 29.25696,7.52564815 29.5796677,7.27181746 C29.7558318,7.13419841 29.9335549,6.96141005 30.1720779,6.71063757 L30.6382113,6.25037831 C30.6382113,6.25037831 30.3139446,7.18007143 30.3077087,7.28405026 C30.3077087,7.43390212 30.4293087,7.58834127 30.5493497,7.6785582 C30.6756267,7.76724603 30.839319,7.78253704 30.9858626,7.77030423 C31.3475446,7.77030423 31.7372882,7.63268519 32.1706831,7.3972037 C32.4076472,7.25652646 32.6508472,7.0929127 32.8909292,6.89260053 C32.9907036,7.06233069 33.1216574,7.21829894 33.2915856,7.35591799 C33.6127344,7.62656878 33.9853292,7.74125132 34.3579241,7.76724603 C34.7959959,7.79782804 35.2215959,7.69232011 35.6440779,7.50118254 C35.9231344,7.37120899 36.1585395,7.20300794 36.3643241,7.02716138 C37.2342318,6.28401852 37.9186215,5.40478571 37.9186215,5.40478571 C37.9248574,5.44148413 37.95136,5.48888624 37.9575959,5.57604497 C37.9716267,5.63262169 37.9778626,5.69225661 37.9778626,5.74883333 C37.9840985,5.98431481 37.9357703,6.31001323 37.8204062,6.58525132 C37.6956882,6.88648413 37.6068267,7.03021958 37.5226421,7.04856878 C37.4462523,7.06538889 36.8476062,7.00575397 36.6262318,7.05315608 C36.5825805,7.06538889 36.5389292,7.08067989 36.5295754,7.12808201 C36.5264574,7.17701323 36.5233395,7.23664815 36.5264574,7.32227778 C36.5389292,7.45072222 36.615319,7.56387566 36.7634215,7.6693836 C36.9084062,7.77030423 37.0627446,7.81617725 37.2342318,7.81617725 C37.9435651,7.81617725 38.5718318,7.6846746 39.1096779,7.41861111 C39.4604472,7.24276455 39.7582113,7.02410317 39.9920574,6.74886508 L39.9187856,5.9338545 Z" id="Fill-3" fill="#CA9762" mask="url(#mask-2)"></path>
                        </g>
                        <path d="M22.8786951,1.04008669 C22.6155075,1.94399518 23.543756,2.44634154 24.7099764,2.55972379 C25.5751859,2.64633524 26.5160422,2.42429499 27.0802407,2.35028158 C27.420651,2.31091274 27.5703685,2.60854115 27.3323965,2.75971749 C25.7343592,3.78330725 23.7281449,5.34231319 22.9764055,7.6808221 C22.3160725,9.74059965 23.0977554,11.2444892 24.5933544,11.3562967 C25.9439637,11.4507819 26.9967141,10.4303417 27.4017393,8.59417912 C27.721662,7.16115345 27.6728068,5.90607493 27.7720931,5.08090411 C27.9312664,3.82110133 28.3425955,3.14395733 29.6081023,2.25422162 C29.9532406,2.00541057 30.5316229,1.78809459 30.764867,1.6794366 C31.0532701,1.55345632 30.9508318,1.24008038 30.6135735,1.24637939 C30.224308,1.24637939 29.4757206,1.19756204 28.616815,1.00071785 C27.7405736,0.791275639 26.7949895,0.285779773 25.7406631,0.0810618208 C24.5429232,-0.153576447 23.1434587,0.10783263 22.8786951,1.04008669 M17.8056361,2.43059401 C19.0396234,2.5628733 20.1900841,3.11876128 21.2097391,3.28883465 C22.1364115,3.44158574 23.3089359,3.331353 23.6225546,3.28253564 C23.9503571,3.23686779 23.9976363,3.55969225 23.7486325,3.70929383 C23.4523495,3.89353999 22.5713802,4.46989976 22.3239524,4.69036525 C21.1892514,5.6871842 20.5951094,6.52022879 20.2137237,8.1784442 C19.9978154,9.11069826 19.9678719,10.7563156 19.6069739,12.4176806 C19.0979344,14.7735118 17.7205335,15.6963173 16.1114645,15.6490747 C14.3810455,15.6002573 13.2447685,13.3404861 14.2344799,11.053944 C15.3092939,8.55953454 18.4218418,6.31551084 20.0309108,5.35806072 C20.3870808,5.14861851 20.2877945,4.8509901 19.8228823,4.96437235 C19.2523799,5.09980115 17.7095017,5.44782167 16.5811046,5.35806072 C15.2194634,5.2572765 14.4251727,4.5801325 14.5922259,3.78960626 C14.8396538,2.64633524 16.2233586,2.26367014 17.8056361,2.43059401" id="Fill-6" fill="#CA9762"></path>
                    </g>
                </g>
            </g>
        </g>
    </g>
</svg>