<?xml version="1.0" encoding="UTF-8"?>
<svg width="49px" height="32px" viewBox="0 0 49 32" version="1.1" xmlns="http://www.w3.org/2000/svg" xmlns:xlink="http://www.w3.org/1999/xlink">
    <title>64812B89-6768-4E1E-A5F9-7305A779F52B</title>
    <defs>
        <polygon id="path-1" points="0 31.8181818 49 31.8181818 49 0 0 0"></polygon>
    </defs>
    <g id="Page-1" stroke="none" stroke-width="1" fill="none" fill-rule="evenodd">
        <g id="0-1-Design-guideline" transform="translate(-869.000000, -748.000000)">
            <g id="logo/CHOCOLATE-brown-Copy" transform="translate(869.000000, 748.000000)">
                <g id="CHOCOLATE-brown">
                    <g id="logo-CHOCOLATE-brown">
                        <path d="M6.63541667,30.1023237 C6.38021877,31.2157602 5.46871721,31.8181818 4.35685057,31.8181818 C3.33587118,31.8181818 2.6341239,31.2657752 2.32428097,30.7468269 C2.1145267,30.3953424 2.04166667,30.2194277 2.04166667,28.787965 C2.04166667,27.3565023 2.1145267,27.1809326 2.32428097,26.8291032 C2.6341239,26.3101548 3.33587118,25.7575758 4.35685057,25.7575758 C5.58720866,25.7575758 6.43505157,26.5529861 6.63541667,27.5239662 L5.59641005,27.5239662 C5.44148859,27.0634836 4.9767242,26.6616393 4.35685057,26.6616393 C3.89189839,26.6616393 3.55463906,26.8627339 3.35408619,27.0969419 C3.09888829,27.398239 3.02602825,27.5657028 3.02602825,28.787965 C3.02602825,30.0102272 3.09888829,30.1776911 3.35408619,30.4789881 C3.55463906,30.7131961 3.89189839,30.9142907 4.35685057,30.9142907 C4.90367639,30.9142907 5.32299715,30.6380012 5.59641005,30.1023237 L6.63541667,30.1023237 Z" id="Fill-1" fill="#CA9762"></path>
                        <polygon id="Fill-3" fill="#CA9762" points="10.8540615 29.1707988 8.54177182 29.1707988 8.54177182 31.8181818 7.65625 31.8181818 7.65625 25.7575758 8.54177182 25.7575758 8.54177182 28.3537508 10.8540615 28.3537508 10.8540615 25.7575758 11.7395833 25.7575758 11.7395833 31.8181818 10.8540615 31.8181818"></polygon>
                        <path d="M14.0625629,30.4788538 C14.261546,30.7130551 14.5961653,30.914144 15.0572917,30.914144 C15.518418,30.914144 15.8532237,30.7130551 16.0522067,30.4788538 C16.305407,30.1775653 16.3776967,30.0101062 16.3776967,28.7878788 C16.3776967,27.5656514 16.305407,27.3983647 16.0522067,27.0970763 C15.8532237,26.8627025 15.518418,26.6616136 15.0572917,26.6616136 C14.5961653,26.6616136 14.261546,26.8627025 14.0625629,27.0970763 C13.8093627,27.3983647 13.737073,27.5656514 13.737073,28.7878788 C13.737073,30.0101062 13.8093627,30.1775653 14.0625629,30.4788538 M13.0406324,26.8290727 C13.3482363,26.3101391 14.0444905,25.7575758 15.0572917,25.7575758 C16.0700928,25.7575758 16.7665333,26.3101391 17.0741372,26.8290727 C17.2820633,27.1808921 17.3541667,27.3566293 17.3541667,28.7878788 C17.3541667,30.2193007 17.2820633,30.3953829 17.0741372,30.7468573 C16.7665333,31.2656185 16.0700928,31.8181818 15.0572917,31.8181818 C14.0444905,31.8181818 13.3482363,31.2656185 13.0406324,30.7468573 C12.8327064,30.3953829 12.7604167,30.2193007 12.7604167,28.7878788 C12.7604167,27.3566293 12.8327064,27.1808921 13.0406324,26.8290727" id="Fill-5" fill="#CA9762"></path>
                        <path d="M22.4583333,30.1023237 C22.2031354,31.2157602 21.2916339,31.8181818 20.1795794,31.8181818 C19.1589756,31.8181818 18.4568528,31.2657752 18.1471976,30.7468269 C17.9374434,30.3953424 17.8645833,30.2194277 17.8645833,28.787965 C17.8645833,27.3565023 17.9374434,27.1809326 18.1471976,26.8291032 C18.4568528,26.3101548 19.1589756,25.7575758 20.1795794,25.7575758 C21.4101253,25.7575758 22.2579682,26.5529861 22.4583333,27.5239662 L21.4193267,27.5239662 C21.2644053,27.0634836 20.7994531,26.6616393 20.1795794,26.6616393 C19.7150028,26.6616393 19.3775557,26.8627339 19.1770029,27.0969419 C18.9219927,27.398239 18.8489449,27.5657028 18.8489449,28.787965 C18.8489449,30.0102272 18.9219927,30.1776911 19.1770029,30.4789881 C19.3775557,30.7131961 19.7150028,30.9142907 20.1795794,30.9142907 C20.7264053,30.9142907 21.1459138,30.6380012 21.4193267,30.1023237 L22.4583333,30.1023237 Z" id="Fill-7" fill="#CA9762"></path>
                        <path d="M24.27071,30.4788538 C24.469693,30.7130551 24.8043123,30.914144 25.265625,30.914144 C25.7267513,30.914144 26.0613707,30.7130551 26.26054,30.4788538 C26.513554,30.1775653 26.5858437,30.0101062 26.5858437,28.7878788 C26.5858437,27.5656514 26.513554,27.3983647 26.26054,27.0970763 C26.0613707,26.8627025 25.7267513,26.6616136 25.265625,26.6616136 C24.8043123,26.6616136 24.469693,26.8627025 24.27071,27.0970763 C24.017696,27.3983647 23.9454063,27.5656514 23.9454063,28.7878788 C23.9454063,30.0101062 24.017696,30.1775653 24.27071,30.4788538 M23.2487795,26.8290727 C23.5563833,26.3101391 24.2526375,25.7575758 25.265625,25.7575758 C26.2782398,25.7575758 26.9748667,26.3101391 27.2822842,26.8290727 C27.4902103,27.1808921 27.5625,27.3566293 27.5625,28.7878788 C27.5625,30.2193007 27.4902103,30.3953829 27.2822842,30.7468573 C26.9748667,31.2656185 26.2782398,31.8181818 25.265625,31.8181818 C24.2526375,31.8181818 23.5563833,31.2656185 23.2487795,30.7468573 C23.0408534,30.3953829 22.96875,30.2193007 22.96875,28.7878788 C22.96875,27.3566293 23.0408534,27.1808921 23.2487795,26.8290727" id="Fill-9" fill="#CA9762"></path>
                        <polygon id="Fill-11" fill="#CA9762" points="28.5833333 25.7575758 29.5525357 25.7575758 29.5525357 30.9499258 32.6666667 30.9499258 32.6666667 31.8181818 28.5833333 31.8181818"></polygon>
                        <path d="M36.6021727,29.6478048 L35.7375551,27.0004218 L35.7207782,27.0004218 L34.8559877,29.6478048 L36.6021727,29.6478048 Z M36.8626476,30.4648528 L34.5958587,30.4648528 L34.1340605,31.8181818 L33.1770833,31.8181818 L35.3515126,25.7575758 L36.1069936,25.7575758 L38.28125,31.8181818 L37.3242728,31.8181818 L36.8626476,30.4648528 Z" id="Fill-13" fill="#CA9762"></path>
                        <polygon id="Fill-15" fill="#CA9762" points="39.3698419 26.5746475 37.7708333 26.5746475 37.7708333 25.7575758 41.8541667 25.7575758 41.8541667 26.5746475 40.2551581 26.5746475 40.2551581 31.8181818 39.3698419 31.8181818"></polygon>
                        <polygon id="Fill-17" fill="#CA9762" points="42.875 25.7575758 46.9583333 25.7575758 46.9583333 26.6256564 43.8442023 26.6256564 43.8442023 28.3537508 46.5007264 28.3537508 46.5007264 29.1707988 43.8442023 29.1707988 43.8442023 30.9499258 46.9583333 30.9499258 46.9583333 31.8181818 42.875 31.8181818"></polygon>
                        <path d="M3.11223,21.7090759 L3.59896122,21.7090759 C3.71502935,21.7090759 3.76730719,21.7300383 3.81524427,21.7641927 C3.86997558,21.8023226 3.89998344,21.8709927 3.89998344,21.9575532 C3.89998344,22.0939898 3.81562173,22.2398235 3.5783898,22.2398235 L3.11223,22.2398235 L3.11223,21.7090759 Z M4.00170819,22.6514826 C4.2744211,22.5213709 4.43955868,22.263858 4.43955868,21.9575532 C4.43955868,21.739616 4.33840012,21.53216 4.16288246,21.3890371 C4.01775012,21.268503 3.83959027,21.2121212 3.60235834,21.2121212 L2.55208333,21.2121212 L2.55208333,23.7373737 L3.11223,23.7373737 L3.11223,22.736236 L3.43325746,22.736236 L3.93867281,23.7373737 L4.59375,23.7373737 L4.00170819,22.6514826 Z" id="Fill-19" fill="#CA9762"></path>
                        <polygon id="Fill-21" fill="#CA9762" points="8.67708333 21.728991 8.67708333 21.2121212 7.14583333 21.2121212 7.14583333 23.7373737 8.67708333 23.7373737 8.67708333 23.2206846 7.63504216 23.2206846 7.63504216 22.7133931 8.52395833 22.7133931 8.52395833 22.2164029 7.63504216 22.2164029 7.63504216 21.728991"></polygon>
                        <path d="M12.8172202,22.0168263 C12.8172202,22.1559736 12.7374405,22.3054215 12.5622921,22.3054215 L12.1931965,22.3054215 L12.1931965,21.7289541 L12.5511351,21.7289541 C12.6318318,21.7289541 12.6752368,21.7416038 12.7232269,21.7795531 C12.7872646,21.8301521 12.8172202,21.9055085 12.8172202,22.0168263 M13.027215,21.3962655 C12.8621536,21.2435649 12.7110001,21.2121212 12.5344762,21.2121212 L11.7395833,21.2121212 L11.7395833,23.7373737 L12.1931965,23.7373737 L12.1931965,22.8218929 L12.573449,22.8218929 C13.0099446,22.8218929 13.2708333,22.4176429 13.2708333,22.0267654 C13.2708333,21.7699754 13.1794382,21.5341478 13.027215,21.3962655" id="Fill-23" fill="#CA9762"></path>
                        <path d="M17.2717447,21.2121212 L17.2717447,22.8015438 C17.2717447,23.050429 17.1077001,23.2049961 16.84375,23.2049961 C16.5797999,23.2049961 16.4157553,23.050429 16.4157553,22.8015438 L16.4157553,21.2121212 L15.8229167,21.2121212 L15.8229167,22.8408132 C15.8229167,23.360101 16.2521102,23.7373737 16.84375,23.7373737 C17.4351899,23.7373737 17.8645833,23.360101 17.8645833,22.8408132 L17.8645833,21.2121212 L17.2717447,21.2121212 Z" id="Fill-25" fill="#CA9762"></path>
                        <path d="M21.0182418,22.696841 L21.529824,22.696841 C21.8332465,22.696841 21.8569609,22.8970686 21.8569609,22.958691 C21.8569609,23.0199519 21.8332465,23.2205409 21.529824,23.2205409 L21.0182418,23.2205409 L21.0182418,22.696841 Z M21.4931376,22.2000671 L21.0182418,22.2000671 L21.0182418,21.7090759 L21.4931376,21.7090759 C21.6954193,21.7090759 21.8164234,21.800877 21.8164234,21.9544811 C21.8164234,22.110796 21.6984596,22.2000671 21.4931376,22.2000671 L21.4931376,22.2000671 Z M22.1480195,22.4272205 C22.3292217,22.3086743 22.4177959,22.145131 22.4177959,21.9317116 C22.4177959,21.4878859 22.0805247,21.2121212 21.5375261,21.2121212 L20.4166667,21.2121212 L20.4166667,23.7373737 L21.6258976,23.7373737 C22.1005907,23.7373737 22.4583333,23.412275 22.4583333,22.9814605 C22.4583333,22.7759924 22.3608409,22.549381 22.1480195,22.4272205 L22.1480195,22.4272205 Z" id="Fill-27" fill="#CA9762"></path>
                        <polygon id="Fill-29" fill="#CA9762" points="25.4996255 23.2206846 25.4996255 21.2121212 25.0104167 21.2121212 25.0104167 23.7373737 26.5416667 23.7373737 26.5416667 23.2206846"></polygon>
                        <mask id="mask-2" fill="white">
                            <use xlink:href="#path-1"></use>
                        </mask>
                        <g id="Clip-32"></g>
                        <polygon id="Fill-31" fill="#CA9762" mask="url(#mask-2)" points="29.09375 23.7373737 29.6041667 23.7373737 29.6041667 21.2121212 29.09375 21.2121212"></polygon>
                        <path d="M33.6008199,22.894496 L33.5740576,22.9457412 C33.481678,23.1227865 33.3504436,23.2092629 33.1728212,23.2092629 C32.9973794,23.2092629 32.8974668,23.1249217 32.8538541,23.0750999 C32.7765408,22.9855987 32.7446243,22.9485882 32.7446243,22.4749254 C32.7446243,22.000373 32.7765408,21.9638963 32.8534577,21.8751068 C32.8972685,21.8245732 32.9969829,21.740588 33.1728212,21.740588 C33.3821619,21.740588 33.5227136,21.8763523 33.5692998,22.0114049 L33.5907097,22.0742159 L34.1953396,22.0742159 L34.1731368,21.9685226 C34.0775854,21.516212 33.6755561,21.2121212 33.1728212,21.2121212 C32.7226197,21.2121212 32.4167365,21.4503761 32.280546,21.6733286 C32.1881665,21.8247512 32.15625,21.9060674 32.15625,22.4749254 C32.15625,23.0434275 32.1881665,23.1247438 32.280546,23.2763443 C32.4167365,23.4991189 32.7226197,23.7373737 33.1728212,23.7373737 C33.6832874,23.7373737 34.066484,23.4555248 34.1727403,23.0019687 L34.1979167,22.894496 L33.6008199,22.894496 Z" id="Fill-33" fill="#CA9762" mask="url(#mask-2)"></path>
                        <path d="M41.1540358,23.0744349 C41.1096431,23.1247869 41.0093116,23.2091222 40.8333333,23.2091222 C40.657156,23.2091222 40.5568245,23.1247869 40.5128299,23.0749687 C40.4353915,22.9854737 40.4033411,22.9484658 40.4033411,22.4748364 C40.4033411,22.0003174 40.4353915,21.9638433 40.5126308,21.87506 C40.5568245,21.824708 40.6567578,21.7405507 40.8333333,21.7405507 C41.0097098,21.7405507 41.1096431,21.824708 41.1536377,21.8748821 C41.2312752,21.9636654 41.2633255,22.0003174 41.2633255,22.4748364 C41.2633255,22.9489996 41.2332659,22.9831607 41.1540358,23.0744349 M41.7293495,21.6732961 C41.5925881,21.4503593 41.2852233,21.2121212 40.8333333,21.2121212 C40.3812443,21.2121212 40.0738795,21.4503593 39.9373172,21.6732961 C39.8445503,21.8248859 39.8125,21.9061965 39.8125,22.4748364 C39.8125,23.0432985 39.8445503,23.124609 39.9373172,23.2761989 C40.0738795,23.4991357 40.3812443,23.7373737 40.8333333,23.7373737 C41.2852233,23.7373737 41.5925881,23.4991357 41.7293495,23.2761989 C41.8219173,23.1247869 41.8541667,23.0438322 41.8541667,22.4748364 C41.8541667,21.9056627 41.8219173,21.824708 41.7293495,21.6732961" id="Fill-34" fill="#CA9762" mask="url(#mask-2)"></path>
                        <polygon id="Fill-35" fill="#CA9762" mask="url(#mask-2)" points="45.9375 21.728991 45.9375 21.2121212 44.40625 21.2121212 44.40625 23.7373737 44.8954588 23.7373737 44.8954588 22.7361643 45.7842102 22.7361643 45.7842102 22.2397163 44.8954588 22.2397163 44.8954588 21.728991"></polygon>
                        <polygon id="Fill-36" fill="#CA9762" mask="url(#mask-2)" points="9.99238483 8.89184101 9.94524761 4.04040404 0 6.73466977 0 10.5741743 2.05391175 18.6868687 12.7604167 18.6868687"></polygon>
                        <polygon id="Fill-37" fill="#CA9762" mask="url(#mask-2)" points="11.2619174 8.64616932 14.0723219 18.6868687 18.375 18.6868687 15.3584064 7.98577409 15.2782903 4.04040404 11.2291667 5.25139427"></polygon>
                        <polygon id="Fill-38" fill="#CA9762" mask="url(#mask-2)" points="23.5523607 0 16.3333333 2.28976501 16.4522409 7.96472614 19.5685119 18.6868687 46.4636043 18.6868687 48.9881987 5.54064872 49 0"></polygon>
                    </g>
                </g>
            </g>
        </g>
    </g>
</svg>