<?xml version="1.0" encoding="UTF-8"?>
<svg width="84px" height="24px" viewBox="0 0 84 24" version="1.1" xmlns="http://www.w3.org/2000/svg" xmlns:xlink="http://www.w3.org/1999/xlink">
    <title>5573D9E0-ABFF-4977-83CF-8F35112C52BC</title>
    <defs>
        <polygon id="path-1" points="0.122213265 0.0188547643 12.2022704 0.0188547643 12.2022704 14.8535354 0.122213265 14.8535354"></polygon>
        <polygon id="path-3" points="0.1563052 0.257642105 4.99650097 0.257642105 4.99650097 6.65437446 0.1563052 6.65437446"></polygon>
    </defs>
    <g id="Page-1" stroke="none" stroke-width="1" fill="none" fill-rule="evenodd">
        <g id="0-1-Design-guideline" transform="translate(-696.000000, -752.000000)">
            <g id="logo/RIVON-brown-Copy" transform="translate(696.000000, 752.000000)">
                <g id="RIVON-brown">
                    <g id="logo-RIVON-brown">
                        <polygon id="Fill-1" fill="#CA9762" points="41.4100974 7.94884912 36.6414087 20.7373404 31.4763526 7.94884912 29.5017148 7.94884912 35.426475 22.7528912 37.432026 22.7528912 42.9909087 7.94884912"></polygon>
                        <g id="Group-18" transform="translate(0.000000, 0.149538)">
                            <g id="Group-4" transform="translate(70.719388, 7.733333)">
                                <mask id="mask-2" fill="white">
                                    <use xlink:href="#path-1"></use>
                                </mask>
                                <g id="Clip-3"></g>
                                <path d="M0.122213265,1.54853895 L0.122213265,14.8535354 L2.00453469,14.8535354 L2.00453469,2.39757754 C8.56365204,-0.00545403509 10.3202031,2.72726175 10.3202031,5.41601965 L10.3202031,14.8535354 L12.2025245,14.8535354 L12.2025245,5.41601965 C12.2025245,0.565591579 7.5308102,-1.72021895 0.122213265,1.54853895" id="Fill-2" fill="#CA9762" mask="url(#mask-2)"></path>
                            </g>
                            <path d="M4.47187908,15.1192365 L1.81037398,15.1192365 L1.81037398,9.49710316 C6.14119541,8.4400786 8.4334352,9.90289965 8.4334352,11.8928084 C8.4334352,14.1835032 6.31058316,15.1192365 4.47187908,15.1192365 M10.3136393,11.882226 C10.3136393,9.35016982 7.29514949,6.20921544 4.23469388e-05,8.70423298 L0.00512397959,22.6038821 L1.81037398,22.6038821 L1.81037398,16.4176225 L4.8174301,16.4184365 L9.92912908,22.5989979 L12.0663791,22.5989979 L6.68620051,16.0842751 C7.89139439,15.8058751 10.3136393,14.4036996 10.3136393,11.882226" id="Fill-5" fill="#CA9762"></path>
                            <path d="M21.4811622,7.82352842 C20.6719122,8.20449684 19.6911571,9.29448982 19.6911571,10.6893389 L19.6911571,22.6035565 L21.5463765,22.6035565 L21.5345194,7.85608982 C21.5345194,7.8300407 21.5061469,7.81172491 21.4811622,7.82352842" id="Fill-7" fill="#CA9762"></path>
                            <g id="Group-11" transform="translate(16.515306, 0.000000)">
                                <mask id="mask-4" fill="white">
                                    <use xlink:href="#path-3"></use>
                                </mask>
                                <g id="Clip-10"></g>
                                <path d="M4.99270408,6.63544421 C2.53869898,4.4403986 4.01321939,2.59620211 2.69665306,1.02267228 C2.24481122,0.48256 1.13193367,0.00757052632 0.163035714,0.404412632 C0.153719388,0.408075789 0.154142857,0.421100351 0.163882653,0.424763509 C1.40422449,0.87370386 0.917658163,2.46961965 1.12388776,3.80830035 C1.30852041,5.00818807 2.04959184,6.15679158 4.98296429,6.65416702 C4.99439796,6.65620211 5.00117347,6.64277053 4.99270408,6.63544421" id="Fill-9" fill="#CA9762" mask="url(#mask-4)"></path>
                            </g>
                            <path d="M20.9900648,1.20232982 C20.3480852,1.98909474 19.8750699,4.52359298 21.4148046,6.16305965 C21.422427,6.1712 21.4359781,6.16468772 21.4347077,6.15410526 C21.2919985,5.01038596 21.9098403,4.13936842 22.3311923,3.62327018 C22.958774,2.85563509 23.4859934,2.47507368 23.3631872,1.57149474 C23.2331821,0.614189474 21.8086311,0.198624561 20.9900648,1.20232982" id="Fill-12" fill="#CA9762"></path>
                            <path d="M17.072126,2.40946246 C17.058575,1.32150456 16.5482944,1.02438175 16.1506566,1.08502737 C15.6098862,1.16887298 15.5298505,1.87830456 15.6467281,2.56901333 C15.8440648,3.73471158 17.0361311,4.8417993 18.0431413,5.41772912 C18.054575,5.42383439 18.0660087,5.40958877 18.0571158,5.40063439 C17.1314117,4.45391158 17.0861005,3.51370105 17.072126,2.40946246" id="Fill-14" fill="#CA9762"></path>
                            <path d="M55.9289571,21.3699677 C53.0696918,21.3699677 50.9260898,19.241266 50.9260898,15.1938835 C50.9260898,11.1469081 53.0696918,9.0177993 55.9289571,9.0177993 C58.7882224,9.0177993 60.932248,11.1469081 60.932248,15.1938835 C60.932248,19.241266 58.7882224,21.3699677 55.9289571,21.3699677 M55.9289571,7.59486596 C51.980952,7.59486596 49.0204776,10.2144309 49.0204776,15.1938835 C49.0204776,20.1737432 51.980952,22.7929011 55.9289571,22.7929011 C59.8773857,22.7929011 62.8374367,20.1737432 62.8374367,15.1938835 C62.8374367,10.2144309 59.8773857,7.59486596 55.9289571,7.59486596" id="Fill-16" fill="#CA9762"></path>
                        </g>
                    </g>
                </g>
            </g>
        </g>
    </g>
</svg>