<?xml version="1.0" encoding="UTF-8"?>
<svg width="36px" height="34px" viewBox="0 0 36 34" version="1.1" xmlns="http://www.w3.org/2000/svg" xmlns:xlink="http://www.w3.org/1999/xlink">
    <title>B0EC693D-00A0-4F4E-9F41-5AA85125B10A</title>
    <defs>
        <polygon id="path-1" points="0.000117375783 0.0652162814 35.8076842 0.0652162814 35.8076842 25.636236 0.000117375783 25.636236"></polygon>
        <polygon id="path-3" points="0.267348786 0.0350874277 2.95246473 0.0350874277 2.95246473 3.58695652 0.267348786 3.58695652"></polygon>
    </defs>
    <g id="Page-1" stroke="none" stroke-width="1" fill="none" fill-rule="evenodd">
        <g id="0-1-Design-guideline" transform="translate(-402.000000, -655.000000)">
            <g id="logo/HUNYA-en-red" transform="translate(402.000000, 655.000000)">
                <g id="HUNYA-en-red">
                    <g id="logo-HUNYA-en-red">
                        <g id="Group-3">
                            <mask id="mask-2" fill="white">
                                <use xlink:href="#path-1"></use>
                            </mask>
                            <g id="Clip-2"></g>
                            <path d="M34.1124,8.80357762 C29.4393474,-1.32749236 21.9084,-0.316180594 19.5908211,0.725051644 C18.2316632,1.33479926 17.2896632,2.5290983 16.6489263,3.99677593 C12.7688211,0.142704878 7.35271579,-1.23458144 3.25882105,1.4856614 C-0.396442105,3.91772291 -1.23138947,11.0627303 2.06545263,17.2997303 C6.53261053,25.7517897 11.9045053,26.3089403 15.2221895,25.1732224 C17.0004,24.5644196 18.2007158,23.0208385 18.9952421,21.1065585 C18.9974526,21.1084483 18.9990316,21.110338 19.0006105,21.1119127 C19.8320842,18.4644239 19.6119789,15.6137908 19.6119789,15.1385278 C19.6119789,14.3709891 19.6274526,13.2566879 18.0434526,13.3933772 L18.0412421,13.3933772 L18.0415579,13.3968417 C17.9708211,13.3984164 17.8950316,13.4056603 17.8164,13.4182584 C16.5576632,13.6210877 16.0656632,13.5933719 15.9914526,14.8131821 C15.9655579,15.2862404 16.0062947,16.5422701 15.9109263,17.5309053 C15.6687158,20.0508385 15.2635579,21.5386731 13.4455579,22.6306126 C11.6679789,23.6945214 9.44450526,23.2526434 7.56587368,23.0526487 C7.56587368,23.0526487 8.49429474,18.5387526 8.21197895,13.8456487 C8.16871579,13.104251 8.12608421,12.4611185 8.07145263,11.8290092 C7.62650526,6.77087561 9.44450526,4.59298059 13.6476632,3.97031994 C13.6476632,3.97031994 15.2427158,3.80906437 16.6505053,3.99866564 C16.6505053,3.99772078 16.6505053,3.99772078 16.6505053,3.99677593 L16.6517684,3.99866564 L16.6505053,3.99866564 C15.8098737,6.65308346 16.0331368,9.51883425 16.0331368,9.99535705 C16.0331368,10.7824228 16.0157684,11.9405023 17.7342947,11.7301142 C17.7639789,11.72476 17.7927158,11.7222404 17.8265053,11.7159414 C19.0865053,11.5112224 19.5766105,11.5392531 19.6514526,10.3207028 C19.6776632,9.84795938 19.6366105,8.59003998 19.7310316,7.60140477 C19.9735579,5.08336129 20.3777684,3.5917473 22.1964,2.50547688 C23.9749263,1.43967837 26.1971368,1.88124146 28.0748211,2.0796614 C28.0748211,2.0796614 27.1470316,6.59513224 27.4299789,11.2866614 C27.4748211,12.0280591 27.5152421,12.6711916 27.5708211,13.3036158 C28.0160842,18.3614345 26.1971368,20.5383846 21.9961895,21.1635649 C21.9961895,21.1635649 20.4257684,21.321041 19.0261895,21.1393136 C22.6132421,25.1092871 27.7634526,27.0377399 31.9479789,24.4740283 C35.7753474,22.1310983 37.2320842,15.5681227 34.1124,8.80357762" id="Fill-1" fill="#E5002D" mask="url(#mask-2)"></path>
                        </g>
                        <path d="M23.2211392,32.1667855 C22.5751899,32.1667855 22.404019,31.5442135 22.404019,31.2146698 C22.404019,30.7731657 22.6164873,30.2574238 23.2108861,30.2574238 C23.861962,30.2574238 24.034557,30.853741 24.034557,31.1712135 C24.034557,31.5405921 23.861962,32.1667855 23.2211392,32.1667855 L23.2211392,32.1667855 Z M23.1963608,29.4130435 C21.9366456,29.4130435 21.6,30.5413987 21.6,31.2098413 C21.6,31.8746626 21.9474684,33 23.254462,33 C24.7257911,33 24.84,31.6075873 24.84,31.1811722 C24.84,30.3717984 24.4150633,29.4214933 23.2137342,29.4130435 L23.1963608,29.4130435 Z" id="Fill-4" fill="#E5002D"></path>
                        <path d="M27.5424202,32.1667855 C26.8960717,32.1667855 26.7275086,31.5442135 26.7275086,31.2146698 C26.7275086,30.7731657 26.9373583,30.2574238 27.5318851,30.2574238 C28.1839283,30.2574238 28.3559083,30.853741 28.3559083,31.1712135 C28.3559083,31.5405921 28.1839283,32.1667855 27.5424202,32.1667855 L27.5424202,32.1667855 Z M27.5187872,29.4130435 C26.2576958,29.4130435 25.92,30.5413987 25.92,31.2098413 C25.92,31.8746626 26.2696546,33 27.5743106,33 C29.0458212,33 29.16,31.6075873 29.16,31.1811722 C29.16,30.3717984 28.7354601,29.4214933 27.5355866,29.4130435 L27.5187872,29.4130435 Z" id="Fill-6" fill="#E5002D"></path>
                        <polygon id="Fill-8" fill="#E5002D" points="0.18 29.9535978 0.18 29.9582609 0.18 29.943913"></polygon>
                        <path d="M3.24,32.6506171 L3.24,29.4130435 L2.68765118,29.4130435 C2.51524342,29.4302314 2.37913203,29.5830473 2.37415591,29.7711766 L2.37415591,30.7046353 L1.22262425,30.7046353 L1.22262425,29.4130435 L0.674080699,29.4130435 C0.501380222,29.4302314 0.365854253,29.5830473 0.36,29.7730517 L0.36,33 L0.896249619,33 C1.06777925,32.9896873 1.20564692,32.8487466 1.22262425,32.66968 L1.22262425,31.5062161 L2.37415591,31.5062161 L2.37415591,33 L2.91216181,33 C3.0898384,32.9896873 3.23063319,32.8399964 3.24,32.6506171" id="Fill-10" fill="#E5002D"></path>
                        <polygon id="Fill-12" fill="#E5002D" points="21.06126 31.7445652 21.05874 31.7445652 21.05946 31.7445652"></polygon>
                        <polygon id="Fill-14" fill="#E5002D" points="21.42 31.3828207 21.42 31.3889185 21.42 31.3846141"></polygon>
                        <polygon id="Fill-16" fill="#E5002D" points="19.98 32.4569348 19.98 32.4669783 19.98 32.4605217"></polygon>
                        <path d="M20.9187763,30.2214994 C21.0945193,30.2214994 21.2319486,30.0630583 21.24,29.8683663 L21.24,29.4130435 L19.3781799,29.4130435 C19.2163188,29.4286688 19.0877738,29.5761722 19.08,29.7605514 L19.08,33 L19.5886272,33 C19.7615938,32.9896873 19.8990231,32.8312462 19.9004113,32.6368667 L19.9004113,31.7952851 L20.9090591,31.7952851 C21.0900771,31.7934101 21.2352802,31.6315314 21.2375013,31.4284018 L21.2375013,30.9915169 L19.9004113,30.9915169 L19.9004113,30.2230619 L20.9187763,30.2214994 Z" id="Fill-18" fill="#E5002D"></path>
                        <polygon id="Fill-20" fill="#E5002D" points="21.05874 31.7445652 21.05874 31.7445652 21.06126 31.7445652"></polygon>
                        <path d="M21.42,31.3878424 L21.42,31.3838967 L21.42,31.3878424 Z" id="Fill-22" fill="#E5002D"></path>
                        <path d="M19.98,32.4630326 L19.98,32.4608804 L19.98,32.4630326 Z" id="Fill-24" fill="#E5002D"></path>
                        <polygon id="Fill-26" fill="#E5002D" points="8.1 32.4598043 8.1 32.4641087 8.1 32.4615978"></polygon>
                        <path d="M9.5553,32.4881413 L9.5247,32.4357717 L9.5247,32.4379239 C9.53442,32.4562174 9.54558,32.4723587 9.5553,32.4881413" id="Fill-28" fill="#E5002D"></path>
                        <path d="M10.08,32.671555 L10.08,29.4130435 L9.58730675,29.4130435 C9.41038242,29.4302314 9.27212368,29.588985 9.27212368,29.7811768 L9.27212368,31.5934055 L8.19651749,29.7189879 C8.07905614,29.5342962 7.93347437,29.4267938 7.77383238,29.4130435 L7.51254679,29.4130435 C7.34060212,29.4302314 7.20497966,29.5814848 7.2,29.7689891 L7.2,33 L7.67599675,33 C7.85907242,32.9899998 8.00348251,32.8312462 8.00436127,32.6334292 L8.00436127,30.8368258 L9.06180635,32.6749926 C9.1848332,32.8746847 9.3392026,32.9899998 9.50997559,33 L9.75280716,33 C9.9229943,32.9899998 10.0612531,32.8487466 10.08,32.671555" id="Fill-30" fill="#E5002D"></path>
                        <path d="M8.1,32.4639293 L8.1,32.4599837 L8.1,32.4639293 Z" id="Fill-32" fill="#E5002D"></path>
                        <path d="M9.53946,32.4599837 L9.53874,32.4599837 L9.54126,32.4639293 C9.54126,32.4621359 9.54126,32.4621359 9.53946,32.4599837" id="Fill-34" fill="#E5002D"></path>
                        <path d="M12.8563129,32.6434294 L12.8563129,31.4924657 L14.04,29.4130435 L13.3596827,29.4130435 C13.1895295,29.4267938 13.0373961,29.5467965 12.9145077,29.7505511 L12.4220678,30.7165106 L11.9479431,29.7852394 C11.9479431,29.7852394 11.9467615,29.7852394 11.9467615,29.7830519 L11.9452845,29.7780518 C11.819442,29.5574218 11.6608096,29.4267938 11.4826805,29.4130435 L10.8,29.4130435 L11.9842779,31.4924657 L11.9842779,33 L12.5254595,33 C12.7056565,32.9896873 12.8504048,32.8365588 12.8563129,32.6434294" id="Fill-36" fill="#E5002D"></path>
                        <path d="M14.5244621,31.6996579 L14.9284775,30.2230619 L15.3368686,31.6996579 L14.5244621,31.6996579 Z M15.5696516,32.6312416 C15.6297434,32.8628094 15.7922247,32.9899998 15.9722085,33 L16.56,33 L15.5448564,29.7814894 C15.4675538,29.5539842 15.2648168,29.4130435 15.0854164,29.4130435 L14.7957504,29.4130435 C14.6192671,29.414606 14.4261565,29.5539842 14.3366021,29.7814894 C14.3366021,29.7830519 13.32,33 13.32,33 L13.8821212,33 C14.0588962,32.9899998 14.2266283,32.8574968 14.2797191,32.6453044 L14.3430197,32.3896736 L15.5075178,32.3896736 C15.5075178,32.3896736 15.5679013,32.6296791 15.5696516,32.6312416 L15.5696516,32.6312416 Z" id="Fill-38" fill="#E5002D"></path>
                        <path d="M31.1949149,32.2018569 L30.8287911,32.2018569 C30.7760322,32.1968567 30.7334192,32.1515432 30.7311002,32.0946669 L30.7311002,30.3208766 C30.7334192,30.2580627 30.7789311,30.2127492 30.8351686,30.2127492 L31.1949149,30.2127492 C31.2030317,30.2127492 31.9691958,30.2230619 31.9691958,31.2002716 C31.9691958,32.0249778 31.3497131,32.2018569 31.1949149,32.2018569 M31.387688,29.4130435 L30.1924952,29.4130435 C30.0165355,29.4302314 29.88,29.588985 29.88,29.7814894 L29.88,29.7855519 L29.88,32.6559297 C29.8933347,32.8456215 30.0365375,32.9968749 30.2159758,33 L31.387688,33 C31.4013125,33 32.76,32.868122 32.76,31.1937089 C32.76,29.4336689 31.4013125,29.4130435 31.387688,29.4130435" id="Fill-40" fill="#E5002D"></path>
                        <g id="Group-44" transform="translate(32.760000, 29.413043)">
                            <mask id="mask-4" fill="white">
                                <use xlink:href="#path-3"></use>
                            </mask>
                            <g id="Clip-43"></g>
                            <path d="M0.617308364,2.39773098 C0.508032,2.49726902 0.270628364,2.7352038 0.267388364,2.98001359 C0.265621091,3.09808424 0.323057455,3.20927989 0.436162909,3.30074728 C0.672977455,3.49384511 1.03526836,3.58710598 1.54394836,3.58710598 C1.86205745,3.58710598 2.16867927,3.53180707 2.34864655,3.44213315 C2.53803927,3.34887228 2.68796291,3.21107337 2.79282109,3.02993207 C2.89944655,2.84669837 2.95246473,2.6458288 2.95246473,2.42762228 C2.90033018,1.59754076 2.24378836,1.45107337 1.80874473,1.33150815 C1.473552,1.23675272 1.262952,1.2385462 1.17458836,1.0254212 C1.13129018,0.92767663 1.16810836,0.79107337 1.23497018,0.72142663 C1.30477745,0.652975543 1.39225745,0.626372283 1.51773382,0.626372283 C1.79342836,0.626372283 2.18664655,0.781209239 2.36661382,1.02033967 C2.52566836,0.912133152 2.70593018,0.76955163 2.78810836,0.569877717 C2.81550109,0.499932065 2.80931564,0.436861413 2.77014109,0.373790761 C2.64378109,0.178899457 2.19459927,0.0393070652 1.68267927,0.0357201087 C1.68267927,0.0357201087 1.185192,0.0180842391 0.862370182,0.169035326 C0.682108364,0.25392663 0.548384727,0.380067935 0.460610182,0.52982337 C0.372246545,0.682866848 0.326297455,0.847866848 0.326297455,1.02033967 C0.326297455,1.28158967 0.414955636,1.49591033 0.585497455,1.66599185 C0.749264727,1.82561141 1.09977382,1.98014946 1.54630473,2.08686141 C1.85616655,2.1597962 2.04909382,2.30297554 2.09062473,2.48591033 C2.11949018,2.62072011 2.05881382,2.75851902 1.92597382,2.86672554 C1.85057018,2.92142663 1.755432,2.94773098 1.64173745,2.94773098 C1.26766473,2.94773098 0.747497455,2.65748641 0.617308364,2.39773098" id="Fill-42" fill="#E5002D" mask="url(#mask-4)"></path>
                        </g>
                        <path d="M5.93241701,29.4130435 C5.76811288,29.4283986 5.63772206,29.5647521 5.62105776,29.7358081 L5.62105776,31.7027993 C5.62105776,31.9180781 5.41845498,32.2168888 5.04043853,32.2168888 C4.68084052,32.2168888 4.45806517,31.9524736 4.45806517,31.7027993 L4.45806517,29.7373437 C4.4405238,29.5647521 4.31013298,29.4283986 4.14641356,29.4130435 L3.6,29.4130435 L3.6,31.5231444 C3.6,32.4082136 4.20868541,33 5.11674348,33 C5.86692925,33 6.48,32.3366587 6.48,31.5231444 L6.48,29.4130435 L5.93241701,29.4130435 Z" id="Fill-45" fill="#E5002D"></path>
                    </g>
                </g>
            </g>
        </g>
    </g>
</svg>