<?xml version="1.0" encoding="UTF-8"?>
<svg width="100px" height="29px" viewBox="0 0 100 29" version="1.1" xmlns="http://www.w3.org/2000/svg" xmlns:xlink="http://www.w3.org/1999/xlink">
    <!-- Generator: Sketch 64 (93537) - https://sketch.com -->
    <title>HUNYA-H-white</title>
    <desc>Created with Sketch.</desc>
    <defs>
        <polygon id="path-1" points="0.0954050042 0.663981872 21.4241365 0.663981872 21.4241365 28.0645161 0.0954050042 28.0645161"></polygon>
        <polygon id="path-3" points="0 28.4003226 99.1619048 28.4003226 99.1619048 0.967741935 0 0.967741935"></polygon>
    </defs>
    <g id="Symbols" stroke="none" stroke-width="1" fill="none" fill-rule="evenodd">
        <g id="logo/HUNYA-H-white">
            <g id="HUNYA-H-white">
                <g id="logo-HUNYA-H-white">
                    <path d="M20.4655238,23.5480645 C21.3588571,20.7077419 21.1198095,17.6487097 21.1198095,17.1387097 C21.1198095,16.3141935 21.1388571,15.12 19.4340952,15.2641935 L19.4312381,15.2641935 L19.4331429,15.2709677 C19.3540952,15.2709677 19.2731429,15.2787097 19.1912381,15.2903226 C17.8331429,15.5109677 17.303619,15.4790323 17.2207619,16.7893548 C17.1931429,17.2954839 17.2398095,18.6464516 17.1369524,19.7051613 C16.8769524,22.4080645 16.4398095,24.0058065 14.4817143,25.1748387 C12.5655238,26.3177419 10.1712381,25.8474194 8.15028571,25.6277419 C8.15028571,25.6277419 9.14742857,20.786129 8.84361905,15.7529032 C8.79695238,14.9554839 8.75219048,14.2654839 8.69219048,13.5890323 C8.21219048,8.16387097 10.1712381,5.82677419 14.6998095,5.15806452 C14.6998095,5.15806452 16.4140952,4.98193548 17.9302857,5.18612903 C13.7512381,1.04903226 7.91885714,-0.42483871 3.50933333,2.49096774 C-0.425904762,5.10096774 -1.32685714,12.7664516 2.22457143,19.4583871 C7.03504762,28.5241935 12.8217143,29.1232258 16.3931429,27.903871 C18.308381,27.2516129 19.6017143,25.593871 20.4569524,23.5422581 C20.4569524,23.5422581 20.4607619,23.5441935 20.4655238,23.5480645" id="Fill-1" fill="#FEFEFE"></path>
                    <g id="Group-5" transform="translate(17.142857, 0.335806)">
                        <mask id="mask-2" fill="white">
                            <use xlink:href="#path-1"></use>
                        </mask>
                        <g id="Clip-4"></g>
                        <path d="M19.5998095,10.0082903 C14.563619,-0.863322581 6.45219048,0.221516129 3.956,1.33925806 C2.49314286,1.99441935 1.47980952,3.27474194 0.787428571,4.85022581 L0.788380952,4.85022581 L0.792190476,4.85022581 C-0.117333333,7.69732258 0.124571429,10.7737742 0.124571429,11.2837742 C0.124571429,12.1295806 0.10647619,13.3682903 1.9512381,13.1476452 C1.98552381,13.1399032 2.0207619,13.1379677 2.05695238,13.1311935 C3.41409524,12.9124839 3.93980952,12.9424839 4.0207619,11.637 C4.05028571,11.1279677 4.00552381,9.77409677 4.10838095,8.71635484 C4.37028571,6.0153871 4.80361905,4.41570968 6.76361905,3.24570968 C8.6807619,2.10474194 11.0731429,2.57893548 13.0950476,2.79377419 C13.0950476,2.79377419 12.0940952,7.63829032 12.4007619,12.6695806 C12.4474286,13.467 12.4940952,14.157 12.5512381,14.8373226 C13.0331429,20.2576452 11.0731429,22.5957097 6.54647619,23.2653871 C6.54647619,23.2653871 4.85695238,23.4337742 3.35028571,23.2421613 C7.2112381,27.5002258 12.7617143,29.5673226 17.2674286,26.8179677 C21.388381,24.3028065 22.9579048,17.2624839 19.5998095,10.0082903" id="Fill-3" fill="#FEFEFE" mask="url(#mask-2)"></path>
                    </g>
                    <path d="M61.0305714,11.6327419 L61.0305714,9.22693548 L64.2677143,9.22693548 L64.2677143,5.80403226 L65.9858095,5.80403226 L65.9858095,9.22693548 L69.2200952,9.22693548 L69.2200952,11.6327419 L65.9858095,11.6327419 L65.9858095,15.1727419 L64.2677143,15.1727419 L64.2677143,11.6327419 L61.0305714,11.6327419 Z M59.6962857,16.6804839 L71.362,16.6804839 L71.362,15.9285484 C71.3486667,15.5075806 71.0124762,15.1766129 70.5924762,15.1727419 L67.4505714,15.1727419 L67.4505714,13.0824194 L69.9000952,13.0804839 C70.334381,13.0804839 70.6858095,12.7340323 70.6858095,12.3072581 L70.6858095,8.54951613 C70.6858095,8.12951613 70.3391429,7.78209677 69.9134286,7.77725806 L67.4505714,7.77725806 L67.4505714,5.80596774 L70.5810476,5.80596774 C71.0029524,5.79822581 71.3448571,5.45467742 71.3477143,5.03177419 L71.3477143,4.35241935 L59.7181905,4.35241935 C59.2924762,4.35241935 58.9467619,4.69403226 58.9391429,5.11403226 L58.9391429,5.80596774 L62.8000952,5.80596774 L62.8000952,7.77725806 L60.334381,7.77725806 C59.914381,7.78209677 59.5772381,8.11209677 59.5648571,8.53209677 L59.5648571,12.3266129 C59.5772381,12.7495161 59.9181905,13.0804839 60.3410476,13.0804839 L62.8000952,13.0824194 L62.8000952,15.1727419 L58.922,15.1727419 L58.922,15.9304839 C58.9400952,16.3485484 59.2791429,16.6804839 59.6962857,16.6804839 L59.6962857,16.6804839 Z" id="Fill-6" fill="#FEFEFE"></path>
                    <path d="M57.2884762,15.1993548 C56.1846667,13.5493548 55.5722857,11.9196774 55.5570476,11.4445161 C55.5570476,11.4445161 54.5808571,11.7232258 54.4094286,12.123871 C54.2999048,12.3512903 54.3170476,12.656129 54.4627619,13.0616129 C54.6894286,13.74 55.2675238,14.82 55.4913333,15.2196774 L50.6170476,15.2196774 C50.625619,15.2041935 51.5065714,13.3983871 52.1284762,10.5590323 L50.6132381,10.5590323 C50.1637143,12.3570968 49.5018095,14.2074194 48.8818095,15.393871 C48.8618095,15.4325806 48.565619,15.9493548 48.8332381,16.3751613 C48.9589524,16.5667742 49.1932381,16.6780645 49.4894286,16.68 L56.185619,16.68 C56.7932381,16.68 57.1884762,16.5319355 57.3608571,16.2454839 C57.6208571,15.8293548 57.2884762,15.1993548 57.2884762,15.1993548" id="Fill-8" fill="#FEFEFE"></path>
                    <path d="M44.7958095,15.392129 C44.9881905,16.2079355 45.2205714,16.776 46.2072381,16.776 C47.8386667,16.7479355 49.3881905,12.3534194 49.8548571,10.0250323 L56.7110476,10.0250323 C57.1367619,10.0250323 57.4815238,9.68245161 57.4881905,9.2643871 L57.4881905,8.56664516 L50.1691429,8.56664516 C50.2529524,8.1243871 50.4310476,7.21954839 50.5939048,6.90406452 C50.5939048,6.90406452 49.7900952,6.90019355 49.7958095,6.90406452 C49.0224762,6.93116129 48.7615238,7.14019355 48.6072381,8.11470968 L48.5262857,8.56664516 L45.9834286,8.56664516 C45.5624762,8.56664516 45.224381,8.88890323 45.2062857,9.30019355 L45.2062857,10.0250323 L48.259619,10.0250323 C47.6329524,12.966 46.3967619,15.0863226 45.1348571,15.3437419 C45.1348571,15.3437419 44.9539048,15.4066452 44.7958095,15.392129" id="Fill-10" fill="#FEFEFE"></path>
                    <path d="M45.2060952,7.96780645 L46.8146667,7.96780645 L46.8146667,6.36135484 L55.875619,6.36135484 L55.875619,7.96780645 L57.4822857,7.96780645 L57.480381,5.66941935 C57.480381,5.24748387 57.1365714,4.89909677 56.7099048,4.89909677 L52.3108571,4.89909677 C52.3108571,4.89909677 51.968,4.13264516 51.3346667,4.13264516 L50.1518095,4.13264516 L50.5108571,4.89909677 L45.975619,4.89909677 C45.5632381,4.89909677 45.2251429,5.22425806 45.2060952,5.63458065 L45.2060952,7.96780645 Z" id="Fill-12" fill="#FEFEFE"></path>
                    <path d="M79.7158095,7.293 L79.6691429,7.17493548 C79.5062857,6.76558065 79.0558095,6.40848387 78.6910476,6.40074194 L77.5729524,6.40074194 L77.9777143,7.293 L75.0139048,7.293 C75.219619,6.84880645 75.4424762,6.30396774 75.6062857,5.85977419 L82.1024762,5.85977419 C82.2662857,6.30396774 82.4929524,6.84880645 82.6967619,7.293 L79.7158095,7.293 Z M74.9958095,9.49170968 L82.6015238,9.49170968 L82.6015238,8.59558065 L74.9958095,8.59558065 L74.9958095,9.49170968 Z M74.9958095,11.7571935 L82.6015238,11.7571935 L82.6015238,10.8513871 L74.9958095,10.8513871 L74.9958095,11.7571935 Z M83.5148571,5.11364516 C83.2948571,4.60654839 82.8253333,4.35203226 82.4024762,4.35203226 L75.3224762,4.35203226 C74.884381,4.35203226 74.3929524,4.62396774 74.1824762,5.1513871 C73.7015238,6.48106452 73.152,7.52622581 72.4510476,8.44654839 L72.1853333,8.80267742 L73.4177143,8.80267742 L73.4177143,15.8971935 C73.4177143,16.3326774 73.7634286,16.6810645 74.1929524,16.6810645 L78.0234286,16.6810645 L78.0234286,15.9746129 C78.0177143,15.5526774 77.672,15.2110645 77.2481905,15.2110645 L74.9958095,15.2149355 L74.9958095,13.1188065 L77.1653333,13.1188065 C78.3262857,16.4662258 81.8281905,16.6365484 83.6529524,16.7759032 C84.3758095,16.7759032 84.6881905,16.6346129 84.9224762,16.3578387 C85.159619,16.0636452 85.2110476,15.6136452 85.084381,14.9759032 C84.932,15.0959032 84.8110476,15.1026774 84.779619,15.1152581 C84.2729524,15.2778387 83.459619,15.3436452 82.6386667,15.2778387 L82.5358095,15.2710645 C82.5358095,15.2710645 82.6615238,15.1597742 82.672,15.1500968 C83.2281905,14.6323548 83.5958095,14.4000968 83.879619,14.2520323 C83.2577143,13.4226774 82.6710476,13.2562258 82.1386667,13.7788065 C82.079619,13.829129 81.9891429,13.9181613 81.8739048,14.0265484 C81.4615238,14.4339677 81.0767619,14.7659032 80.8567619,14.9120323 C79.7348571,14.4978387 79.152,13.8871935 78.9072381,13.1188065 L83.3958095,13.1188065 C83.8300952,13.1188065 84.1786667,12.7684839 84.1786667,12.3426774 L84.179619,8.80267742 L85.524381,8.80267742 L85.2548571,8.44654839 C84.5529524,7.52235484 83.999619,6.46074194 83.5148571,5.11364516 L83.5148571,5.11364516 Z" id="Fill-14" fill="#FEFEFE"></path>
                    <mask id="mask-4" fill="white">
                        <use xlink:href="#path-3"></use>
                    </mask>
                    <g id="Clip-17"></g>
                    <path d="M94.4333333,15.2148387 L97.2904762,15.2148387 L97.2904762,11.9554839 L94.4333333,11.9554839 L94.4333333,15.2148387 Z M98.8409524,15.9019355 L98.8409524,11.2770968 C98.8409524,10.8416129 98.4895238,10.4903226 98.0647619,10.4903226 L93.6542857,10.4893548 C93.2342857,10.4903226 92.8866667,10.8416129 92.8866667,11.2683871 L92.8904762,15.9048387 C92.8914286,16.3296774 93.2171429,16.6809677 93.6190476,16.6809677 L98.1133333,16.6809677 C98.5152381,16.6809677 98.8409524,16.3296774 98.8409524,15.9019355 L98.8409524,15.9019355 Z" id="Fill-16" fill="#FEFEFE" mask="url(#mask-4)"></path>
                    <path d="M89.2990476,8.50451613 L95.9066667,8.50451613 L95.9066667,5.81225806 L89.2990476,5.81225806 L89.2990476,8.50451613 Z M87.712381,9.2516129 C87.7180952,9.67645161 88.0666667,10.02 88.4914286,10.02 L96.7085714,10.02 C97.1371429,10.02 97.4866667,9.6716129 97.4866667,9.24483871 L97.4866667,5.13677419 C97.4866667,4.70032258 97.1409524,4.35193548 96.7152381,4.35193548 L88.4828571,4.35193548 C88.0638095,4.35580645 87.72,4.69548387 87.712381,5.11354839 L87.712381,9.2516129 Z" id="Fill-18" fill="#FEFEFE" mask="url(#mask-4)"></path>
                    <path d="M87.9638095,15.2148387 L90.8190476,15.2148387 L90.8190476,11.9554839 L87.9638095,11.9554839 L87.9638095,15.2148387 Z M91.6380952,16.6809677 C92.0342857,16.6809677 92.3590476,16.3335484 92.367619,15.9116129 L92.367619,11.2451613 C92.3552381,10.826129 92.0161905,10.496129 91.5961905,10.4903226 L87.1857143,10.4903226 C86.767619,10.4903226 86.4180952,10.8348387 86.4142857,11.2616129 L86.4142857,15.9096774 C86.4180952,16.3325806 86.7447619,16.6809677 87.147619,16.6809677 L91.6380952,16.6809677 Z" id="Fill-19" fill="#FEFEFE" mask="url(#mask-4)"></path>
                    <path d="M98.9092381,24.3078387 C99.0778095,24.006871 99.1625714,23.673 99.1625714,23.3100968 C99.0844762,21.9678387 98.1359048,21.7346129 97.3368571,21.4897742 C97.1835238,21.4404194 96.4549524,21.3649355 96.2987619,20.9623548 C96.226381,20.7823548 96.2930476,20.5384839 96.4054286,20.4242903 C96.5149524,20.3062258 96.661619,20.2539677 96.8768571,20.2539677 C97.2987619,20.2539677 97.9387619,20.5055806 98.246381,20.9100968 C98.4673333,20.7523548 98.7673333,20.5113871 98.8959048,20.1784839 C98.941619,20.069129 98.9330476,19.9684839 98.8701905,19.8697742 C98.6625714,19.5300968 97.8844762,19.3142903 97.0644762,19.3123548 C96.8311429,19.3123548 96.2435238,19.3336452 95.8273333,19.5378387 C95.5501905,19.6694516 95.3368571,19.8717097 95.1920952,20.1349355 C95.0520952,20.3894516 94.9797143,20.6613871 94.9797143,20.9410645 C94.9797143,21.3746129 95.1197143,21.7346129 95.3920952,22.0094516 C95.6501905,22.2755806 96.2092381,22.5349355 96.926381,22.713 C97.434,22.836871 97.7520952,23.0826774 97.8206667,23.4020323 C97.8682857,23.639129 97.7682857,23.883 97.5473333,24.0688065 C97.4225714,24.1626774 97.2644762,24.2081613 97.0759048,24.2081613 C96.494,24.2081613 95.6597143,23.7455806 95.4178095,23.3013871 C95.2406667,23.466871 94.8901905,23.853 94.886381,24.2381613 C94.8825714,24.4317097 94.9730476,24.6088065 95.1492381,24.7607419 C95.5244762,25.0810645 96.1035238,25.2359032 96.9178095,25.2359032 C97.4225714,25.2359032 97.9149524,25.143 98.201619,24.9959032 C98.5044762,24.839129 98.7406667,24.6088065 98.9092381,24.3078387" id="Fill-20" fill="#FEFEFE" mask="url(#mask-4)"></path>
                    <path d="M92.0288571,23.8939355 L91.4317143,23.8939355 C91.3298095,23.8842581 91.2517143,23.7990968 91.2469524,23.6965161 L91.2469524,20.8436129 C91.2517143,20.7294194 91.3345714,20.6442581 91.4402857,20.6442581 L92.0288571,20.6442581 C92.0421905,20.6442581 93.3212381,20.6616774 93.3212381,22.2574839 C93.3212381,23.6007097 92.2840952,23.8939355 92.0288571,23.8939355 M92.3450476,19.4065161 L90.3869524,19.4065161 C90.1126667,19.4355484 89.9021905,19.6803871 89.9021905,19.9765161 L89.9021905,20.0026452 L89.9021905,24.5994194 C89.9221905,24.8926452 90.1488571,25.1210323 90.4298095,25.1297419 L92.3440952,25.1297419 C92.3774286,25.125871 94.5688571,24.8945806 94.5688571,22.2478065 C94.5688571,19.4413548 92.3679048,19.4065161 92.3450476,19.4065161" id="Fill-21" fill="#FEFEFE" mask="url(#mask-4)"></path>
                    <path d="M80.5359048,23.8924839 C79.4435238,23.8924839 79.1549524,22.8376452 79.1549524,22.2802258 C79.1549524,21.533129 79.5130476,20.6621613 80.5187619,20.6621613 C81.6244762,20.6621613 81.9168571,21.6724839 81.9168571,22.2086129 C81.9168571,22.8328065 81.6244762,23.8924839 80.5359048,23.8924839 M80.5282857,19.3053871 L80.4987619,19.3053871 C78.4178095,19.3053871 77.861619,21.1702258 77.861619,22.2734516 C77.861619,23.3699032 78.4359048,25.2289355 80.5930476,25.2289355 C83.0235238,25.2289355 83.2111429,22.9295806 83.2111429,22.223129 C83.2111429,20.8876452 82.5073333,19.3199032 80.5282857,19.3053871" id="Fill-22" fill="#FEFEFE" mask="url(#mask-4)"></path>
                    <path d="M55.1329524,19.4068065 L54.2681905,19.4068065 C54.0167619,19.4339032 53.812,19.6487419 53.7891429,19.914871 L53.7891429,23.1306774 C53.7891429,23.4955161 53.4529524,23.9977742 52.8234286,23.9977742 C52.2253333,23.9977742 51.8548571,23.5458387 51.8548571,23.1306774 L51.8548571,19.914871 C51.8291429,19.6487419 51.624381,19.4339032 51.3681905,19.4068065 L50.5100952,19.4068065 L50.5100952,22.8374516 C50.5100952,24.2668065 51.4872381,25.2297097 52.9453333,25.2297097 C54.1539048,25.2297097 55.1329524,24.1564839 55.1329524,22.8374516 L55.1329524,19.4068065 Z" id="Fill-23" fill="#FEFEFE" mask="url(#mask-4)"></path>
                    <path d="M60.5158095,24.6182903 L60.5158095,19.407 L59.739619,19.407 C59.4653333,19.4350645 59.2539048,19.680871 59.2539048,19.977 L59.2539048,22.9789355 L59.2110476,22.9015161 L57.4700952,19.8899032 C57.2815238,19.5986129 57.0510476,19.4311935 56.8015238,19.407 L56.3815238,19.407 C56.1148571,19.4350645 55.9062857,19.6692581 55.8977143,19.9566774 L55.8977143,25.1302258 L56.6481905,25.1302258 C56.9300952,25.1137742 57.1529524,24.8611935 57.1529524,24.5611935 L57.1529524,21.5834516 L58.9110476,24.6153871 C59.1072381,24.9347419 59.3510476,25.1137742 59.6158095,25.1302258 L60.0091429,25.1302258 C60.2729524,25.1137742 60.4862857,24.8979677 60.5158095,24.6182903" id="Fill-24" fill="#FEFEFE" mask="url(#mask-4)"></path>
                    <path d="M64.3738095,24.5762903 L64.3738095,22.7172581 L64.377619,22.7124194 L66.2538095,19.4066129 L65.2042857,19.4066129 C64.9452381,19.4337097 64.7052381,19.6166129 64.51,19.9398387 L63.6995238,21.5337097 L62.9119048,19.9853226 C62.7119048,19.6340323 62.4614286,19.4346774 62.1880952,19.4066129 L61.1357143,19.4066129 L63.0195238,22.7172581 L63.0195238,25.1298387 L63.8642857,25.1298387 C64.1404762,25.1143548 64.3642857,24.8704839 64.3738095,24.5762903" id="Fill-25" fill="#FEFEFE" mask="url(#mask-4)"></path>
                    <path d="M49.738381,24.5913871 L49.738381,19.4071935 L48.8669524,19.4071935 C48.5993333,19.4352581 48.3926667,19.6713871 48.3850476,19.9588065 L48.3850476,21.4878387 L46.4698095,21.4878387 L46.4698095,19.4071935 L45.6040952,19.4071935 C45.3355238,19.4352581 45.1250476,19.6733226 45.1164762,19.9626774 L45.1164762,25.1304194 L45.9650476,25.1304194 C46.2288571,25.1139677 46.4412381,24.8971935 46.4698095,24.6165484 L46.4698095,22.7255806 L48.3850476,22.7255806 L48.3850476,25.1304194 L49.2317143,25.1304194 C49.506,25.1139677 49.7221905,24.8807419 49.738381,24.5913871" id="Fill-26" fill="#FEFEFE" mask="url(#mask-4)"></path>
                    <path d="M67.2121905,23.0830645 L67.2207619,23.0520968 L67.8998095,20.5959677 L68.596,23.0830645 L67.2121905,23.0830645 Z M68.1588571,19.4066129 L67.683619,19.4066129 C67.3931429,19.4104839 67.096,19.6504839 66.9617143,19.9872581 L66.9598095,19.9853226 C66.9407619,20.051129 66.7740952,20.5746774 65.3188571,25.1298387 L66.2007619,25.1298387 C66.4921905,25.1124194 66.7445714,24.888871 66.8245714,24.5743548 L66.9302857,24.1466129 L68.8626667,24.1466129 L68.8664762,24.1640323 C68.9017143,24.2995161 68.9521905,24.4940323 68.963619,24.5404839 L68.9674286,24.5501613 C69.056,24.888871 69.2979048,25.1124194 69.5998095,25.1298387 L70.5207619,25.1298387 L68.8807619,19.9853226 C68.7521905,19.6069355 68.4217143,19.4066129 68.1588571,19.4066129 L68.1588571,19.4066129 Z" id="Fill-27" fill="#FEFEFE" mask="url(#mask-4)"></path>
                    <path d="M86.5566667,23.8924839 C85.4652381,23.8924839 85.1766667,22.8376452 85.1766667,22.2802258 C85.1766667,21.533129 85.5338095,20.6621613 86.542381,20.6621613 C87.6442857,20.6621613 87.9366667,21.6724839 87.9366667,22.2086129 C87.9366667,22.8328065 87.6452381,23.8924839 86.5566667,23.8924839 M86.5461905,19.3053871 L86.5214286,19.3053871 C84.437619,19.3053871 83.8795238,21.1702258 83.8795238,22.2734516 C83.8795238,23.3699032 84.4566667,25.2289355 86.6128571,25.2289355 C89.0414286,25.2289355 89.2309524,22.9295806 89.2309524,22.223129 C89.2309524,20.8876452 88.5280952,19.3199032 86.5461905,19.3053871" id="Fill-28" fill="#FEFEFE" mask="url(#mask-4)"></path>
                    <path d="M77.1758095,21.9451935 L74.8881905,21.9451935 L74.8881905,20.6600323 L76.6510476,20.6561613 C76.9367619,20.6561613 77.1653333,20.424871 77.1786667,20.1142258 L77.1786667,19.4068065 L74.019619,19.4068065 C73.7577143,19.4339032 73.5481905,19.667129 73.5339048,19.9458387 L73.5339048,25.1300323 L74.3786667,25.1300323 C74.6615238,25.1135806 74.884381,24.8668065 74.8881905,24.5677742 L74.8881905,23.1877742 L76.6348571,23.1877742 C76.9291429,23.1877742 77.172,22.9351935 77.1758095,22.6255161 L77.1758095,21.9451935 Z" id="Fill-29" fill="#FEFEFE" mask="url(#mask-4)"></path>
                </g>
            </g>
        </g>
    </g>
</svg>