<?xml version="1.0" encoding="UTF-8"?>
<svg width="129px" height="36px" viewBox="0 0 129 36" version="1.1" xmlns="http://www.w3.org/2000/svg" xmlns:xlink="http://www.w3.org/1999/xlink">
    <!-- Generator: sketchtool 64 (101010) - https://sketch.com -->
    <title>D9C3CE05-7110-44B3-B315-91CB61114510</title>
    <desc>Created with sketchtool.</desc>
    <defs>
        <polygon id="path-1" points="0.124026506 0.863176434 27.8513775 0.863176434 27.8513775 36.483871 0.124026506 36.483871"></polygon>
        <polygon id="path-3" points="0 36.9204194 128.910476 36.9204194 128.910476 1.25806452 0 1.25806452"></polygon>
    </defs>
    <g id="Page-1" stroke="none" stroke-width="1" fill="none" fill-rule="evenodd">
        <g id="0-2-menuStyle_Header-pc" transform="translate(-165.000000, -19.000000)">
            <g id="Header-Nav" transform="translate(-4.000000, 6.000000)">
                <g id="logo/HUNYA-H-white">
                    <g transform="translate(169.000000, 12.000000)">
                        <g id="HUNYA-H-red">
                            <g id="logo-HUNYA-H-red">
                                <path d="M26.605181,30.6124839 C27.7665143,26.9200645 27.4557524,22.9433226 27.4557524,22.2803226 C27.4557524,21.2084516 27.4805143,19.656 25.2643238,19.8434516 L25.2606095,19.8434516 L25.2630857,19.8522581 C25.1603238,19.8522581 25.0550857,19.8623226 24.9486095,19.8774194 C23.1830857,20.1642581 22.4947048,20.1227419 22.3869905,21.8261613 C22.3510857,22.484129 22.4117524,24.2403871 22.2780381,25.6167097 C21.9400381,29.1304839 21.3717524,31.2075484 18.8262286,32.7272903 C16.335181,34.2130645 13.2226095,33.6016452 10.5953714,33.3160645 C10.5953714,33.3160645 11.8916571,27.0219677 11.4967048,20.4787742 C11.4360381,19.442129 11.3778476,18.545129 11.2998476,17.6657419 C10.6758476,10.6130323 13.2226095,7.57480645 19.1097524,6.70548387 C19.1097524,6.70548387 21.3383238,6.47651613 23.3093714,6.74196774 C17.8766095,1.36374194 10.2945143,-0.552290323 4.56213333,3.23825806 C-0.55367619,6.63125806 -1.72491429,16.5963871 2.89194286,25.2959032 C9.1455619,37.0814516 16.6682286,37.8601935 21.3110857,36.2750323 C23.8008952,35.4270968 25.4822286,33.2720323 26.5940381,30.6049355 C26.5940381,30.6049355 26.5989905,30.6074516 26.605181,30.6124839" id="Fill-1" fill="#E5002D"></path>
                                <g id="Group-5" transform="translate(22.285714, 0.436548)">
                                    <mask id="mask-2" fill="white">
                                        <use xlink:href="#path-1"></use>
                                    </mask>
                                    <g id="Clip-4"></g>
                                    <path d="M25.4797524,13.0107774 C18.9327048,-1.12231935 8.38784762,0.287970968 5.1428,1.74103548 C3.24108571,2.59274516 1.92375238,4.25716452 1.02365714,6.30529355 L1.02489524,6.30529355 L1.02984762,6.30529355 C-0.152533333,10.0065194 0.161942857,14.0059065 0.161942857,14.6689065 C0.161942857,15.7684548 0.138419048,17.3787774 2.53660952,17.0919387 C2.58118095,17.0818742 2.62699048,17.0793581 2.6740381,17.0705516 C4.43832381,16.786229 5.12175238,16.825229 5.22699048,15.1281 C5.26537143,14.4663581 5.20718095,12.7063258 5.34089524,11.3312613 C5.68137143,7.82000323 6.24470476,5.74042258 8.79270476,4.21942258 C11.2849905,2.73616452 14.3950857,3.35261613 17.0235619,3.63190645 C17.0235619,3.63190645 15.7223238,9.92977742 16.1209905,16.4704548 C16.1816571,17.5071 16.2423238,18.4041 16.3166095,19.2885194 C16.9430857,26.3349387 14.3950857,29.3744226 8.51041905,30.2450032 C8.51041905,30.2450032 6.3140381,30.4639065 4.35537143,30.2148097 C9.37460952,35.7502935 16.5902286,38.4375194 22.4476571,34.8633581 C27.8048952,31.5936484 29.8452762,22.441229 25.4797524,13.0107774" id="Fill-3" fill="#E5002D" mask="url(#mask-2)"></path>
                                </g>
                                <path d="M79.3397429,15.1225645 L79.3397429,11.9950161 L83.5480286,11.9950161 L83.5480286,7.54524194 L85.7815524,7.54524194 L85.7815524,11.9950161 L89.9861238,11.9950161 L89.9861238,15.1225645 L85.7815524,15.1225645 L85.7815524,19.7245645 L83.5480286,19.7245645 L83.5480286,15.1225645 L79.3397429,15.1225645 Z M77.6051714,21.684629 L92.7706,21.684629 L92.7706,20.7071129 C92.7532667,20.1598548 92.316219,19.7295968 91.770219,19.7245645 L87.6857429,19.7245645 L87.6857429,17.0071452 L90.8701238,17.004629 C91.4346952,17.004629 91.8915524,16.5542419 91.8915524,15.9994355 L91.8915524,11.114371 C91.8915524,10.568371 91.4408857,10.1167258 90.8874571,10.1104355 L87.6857429,10.1104355 L87.6857429,7.54775806 L91.7553619,7.54775806 C92.3038381,7.53769355 92.7483143,7.09108065 92.7520286,6.54130645 L92.7520286,5.65814516 L77.6336476,5.65814516 C77.080219,5.65814516 76.6307905,6.10224194 76.6208857,6.64824194 L76.6208857,7.54775806 L81.6401238,7.54775806 L81.6401238,10.1104355 L78.4346952,10.1104355 C77.8886952,10.1167258 77.4504095,10.5457258 77.4343143,11.0917258 L77.4343143,16.0245968 C77.4504095,16.574371 77.8936476,17.004629 78.4433619,17.004629 L81.6401238,17.0071452 L81.6401238,19.7245645 L76.5986,19.7245645 L76.5986,20.709629 C76.6221238,21.2531129 77.0628857,21.684629 77.6051714,21.684629 L77.6051714,21.684629 Z" id="Fill-6" fill="#E5002D"></path>
                                <path d="M74.475019,19.7591613 C73.0400667,17.6141613 72.2439714,15.4955806 72.2241619,14.877871 C72.2241619,14.877871 70.9551143,15.2401935 70.7322571,15.7610323 C70.5898762,16.0566774 70.6121619,16.4529677 70.8015905,16.9800968 C71.0962571,17.862 71.847781,19.266 72.1387333,19.7855806 L65.8021619,19.7855806 C65.8133048,19.7654516 66.9585429,17.4179032 67.767019,13.7267419 L65.7972095,13.7267419 C65.2128286,16.0642258 64.3523524,18.4696452 63.5463524,20.0120323 C63.5203524,20.0623548 63.1353048,20.7341613 63.4832095,21.2877097 C63.6466381,21.5368065 63.9512095,21.6814839 64.3362571,21.684 L73.0413048,21.684 C73.8312095,21.684 74.345019,21.4915161 74.5691143,21.119129 C74.9071143,20.5781613 74.475019,19.7591613 74.475019,19.7591613" id="Fill-8" fill="#E5002D"></path>
                                <path d="M58.2345524,20.0097677 C58.4846476,21.0703161 58.7867429,21.8088 60.0694095,21.8088 C62.1902667,21.7723161 64.2046476,16.0594452 64.8113143,13.0325419 L73.7243619,13.0325419 C74.2777905,13.0325419 74.725981,12.5871871 74.7346476,12.0437032 L74.7346476,11.1366387 L65.2198857,11.1366387 C65.3288381,10.5617032 65.5603619,9.3854129 65.7720762,8.97528387 C65.7720762,8.97528387 64.7271238,8.97025161 64.7345524,8.97528387 C63.729219,9.01050968 63.389981,9.28225161 63.1894095,10.5491226 L63.0841714,11.1366387 L59.7784571,11.1366387 C59.231219,11.1366387 58.7916952,11.5555742 58.7681714,12.0902516 L58.7681714,13.0325419 L62.7375048,13.0325419 C61.9228381,16.8558 60.3157905,19.6122194 58.6753143,19.9468645 C58.6753143,19.9468645 58.4400762,20.0286387 58.2345524,20.0097677" id="Fill-10" fill="#E5002D"></path>
                                <path d="M58.7679238,10.3581484 L60.8590667,10.3581484 L60.8590667,8.26976129 L72.6383048,8.26976129 L72.6383048,10.3581484 L74.7269714,10.3581484 L74.7244952,7.37024516 C74.7244952,6.82172903 74.2775429,6.36882581 73.7228762,6.36882581 L68.0041143,6.36882581 C68.0041143,6.36882581 67.5584,5.37243871 66.7350667,5.37243871 L65.1973524,5.37243871 L65.6641143,6.36882581 L59.7683048,6.36882581 C59.2322095,6.36882581 58.7926857,6.79153548 58.7679238,7.32495484 L58.7679238,10.3581484 Z" id="Fill-12" fill="#E5002D"></path>
                                <path d="M103.630552,9.4809 L103.569886,9.32741613 C103.358171,8.79525484 102.772552,8.33102903 102.298362,8.32096452 L100.844838,8.32096452 L101.371029,9.4809 L97.5180762,9.4809 C97.7855048,8.90344839 98.075219,8.19515806 98.2881714,7.61770645 L106.733219,7.61770645 C106.946171,8.19515806 107.240838,8.90344839 107.50579,9.4809 L103.630552,9.4809 Z M97.4945524,12.3392226 L107.381981,12.3392226 L107.381981,11.1742548 L97.4945524,11.1742548 L97.4945524,12.3392226 Z M97.4945524,15.2843516 L107.381981,15.2843516 L107.381981,14.1068032 L97.4945524,14.1068032 L97.4945524,15.2843516 Z M108.569314,6.64773871 C108.283314,5.9885129 107.672933,5.65764194 107.123219,5.65764194 L97.919219,5.65764194 C97.3496952,5.65764194 96.7108381,6.01115806 96.437219,6.69680323 C95.811981,8.42538387 95.0976,9.78409355 94.1863619,10.9805129 L93.8409333,11.4434806 L95.4430286,11.4434806 L95.4430286,20.6663516 C95.4430286,21.2324806 95.8924571,21.6853839 96.4508381,21.6853839 L101.430457,21.6853839 L101.430457,20.7669968 C101.423029,20.2184806 100.9736,19.7743839 100.422648,19.7743839 L97.4945524,19.7794161 L97.4945524,17.0544484 L100.314933,17.0544484 C101.824171,21.4060935 106.376648,21.6275129 108.748838,21.8086742 C109.688552,21.8086742 110.094648,21.6249968 110.399219,21.2651903 C110.707505,20.8827387 110.774362,20.2977387 110.609695,19.4686742 C110.4116,19.6246742 110.254362,19.6334806 110.213505,19.6498355 C109.554838,19.8611903 108.497505,19.9467387 107.430267,19.8611903 L107.296552,19.8523839 C107.296552,19.8523839 107.459981,19.7077065 107.4736,19.6951258 C108.196648,19.0220613 108.674552,18.7201258 109.043505,18.5276419 C108.235029,17.4494806 107.472362,17.2330935 106.780267,17.9124484 C106.703505,17.9778677 106.585886,18.0936097 106.436076,18.2345129 C105.899981,18.7641581 105.39979,19.1956742 105.11379,19.3856419 C103.655314,18.8471903 102.8976,18.0533516 102.57941,17.0544484 L108.414552,17.0544484 C108.979124,17.0544484 109.432267,16.599029 109.432267,16.0454806 L109.433505,11.4434806 L111.181695,11.4434806 L110.831314,10.9805129 C109.918838,9.77906129 109.199505,8.39896452 108.569314,6.64773871 L108.569314,6.64773871 Z" id="Fill-14" fill="#E5002D"></path>
                                <mask id="mask-4" fill="white">
                                    <use xlink:href="#path-3"></use>
                                </mask>
                                <g id="Clip-17"></g>
                                <path d="M122.763333,19.7792903 L126.477619,19.7792903 L126.477619,15.542129 L122.763333,15.542129 L122.763333,19.7792903 Z M128.493238,20.6725161 L128.493238,14.6602258 C128.493238,14.0940968 128.036381,13.6374194 127.48419,13.6374194 L121.750571,13.6361613 C121.204571,13.6374194 120.752667,14.0940968 120.752667,14.6489032 L120.757619,20.6762903 C120.758857,21.2285806 121.182286,21.6852581 121.704762,21.6852581 L127.547333,21.6852581 C128.06981,21.6852581 128.493238,21.2285806 128.493238,20.6725161 L128.493238,20.6725161 Z" id="Fill-16" fill="#E5002D" mask="url(#mask-4)"></path>
                                <path d="M116.088762,11.055871 L124.678667,11.055871 L124.678667,7.55593548 L116.088762,7.55593548 L116.088762,11.055871 Z M114.026095,12.0270968 C114.033524,12.5793871 114.486667,13.026 115.038857,13.026 L125.721143,13.026 C126.278286,13.026 126.732667,12.5730968 126.732667,12.0182903 L126.732667,6.67780645 C126.732667,6.11041935 126.283238,5.65751613 125.72981,5.65751613 L115.027714,5.65751613 C114.482952,5.66254839 114.036,6.10412903 114.026095,6.6476129 L114.026095,12.0270968 Z" id="Fill-18" fill="#E5002D" mask="url(#mask-4)"></path>
                                <path d="M114.352952,19.7792903 L118.064762,19.7792903 L118.064762,15.542129 L114.352952,15.542129 L114.352952,19.7792903 Z M119.129524,21.6852581 C119.644571,21.6852581 120.066762,21.2336129 120.077905,20.6850968 L120.077905,14.6187097 C120.06181,14.0739677 119.621048,13.6449677 119.075048,13.6374194 L113.341429,13.6374194 C112.797905,13.6374194 112.343524,14.0852903 112.338571,14.6400968 L112.338571,20.6825806 C112.343524,21.2323548 112.76819,21.6852581 113.291905,21.6852581 L119.129524,21.6852581 Z" id="Fill-19" fill="#E5002D" mask="url(#mask-4)"></path>
                                <path d="M128.58201,31.6001903 C128.801152,31.2089323 128.911343,30.7749 128.911343,30.3031258 C128.809819,28.5581903 127.576676,28.2549968 126.537914,27.9367065 C126.338581,27.8725452 125.391438,27.7744161 125.18839,27.2510613 C125.094295,27.0170613 125.180962,26.700029 125.327057,26.5515774 C125.469438,26.3980935 125.660105,26.3301581 125.939914,26.3301581 C126.48839,26.3301581 127.32039,26.6572548 127.720295,27.1831258 C128.007533,26.9780613 128.397533,26.6648032 128.564676,26.232029 C128.624105,26.0898677 128.612962,25.959029 128.531248,25.8307065 C128.261343,25.3891258 127.249819,25.1085774 126.183819,25.1060613 C125.880486,25.1060613 125.116581,25.1337387 124.575533,25.3991903 C124.215248,25.5702871 123.937914,25.8332226 123.749724,26.1754161 C123.567724,26.5062871 123.473629,26.8598032 123.473629,27.2233839 C123.473629,27.7869968 123.655629,28.2549968 124.009724,28.6122871 C124.345248,28.9582548 125.07201,29.2954161 126.004295,29.5269 C126.6642,29.6879323 127.077724,30.0074806 127.166867,30.4226419 C127.228771,30.7308677 127.098771,31.0479 126.811533,31.2894484 C126.649343,31.4114806 126.443819,31.4706097 126.198676,31.4706097 C125.4422,31.4706097 124.357629,30.8692548 124.043152,30.2918032 C123.812867,30.5069323 123.357248,31.0089 123.352295,31.5096097 C123.347343,31.7612226 123.464962,31.9914484 123.69401,32.1889645 C124.181819,32.6053839 124.934581,32.8066742 125.993152,32.8066742 C126.649343,32.8066742 127.289438,32.6859 127.662105,32.4946742 C128.055819,32.2908677 128.362867,31.9914484 128.58201,31.6001903" id="Fill-20" fill="#E5002D" mask="url(#mask-4)"></path>
                                <path d="M119.637514,31.0621161 L118.861229,31.0621161 C118.728752,31.0495355 118.627229,30.9388258 118.621038,30.805471 L118.621038,27.0966968 C118.627229,26.9482452 118.734943,26.8375355 118.872371,26.8375355 L119.637514,26.8375355 C119.654848,26.8375355 121.31761,26.8601806 121.31761,28.934729 C121.31761,30.6809226 119.969324,31.0621161 119.637514,31.0621161 M120.048562,25.228471 L117.503038,25.228471 C117.146467,25.2662129 116.872848,25.5845032 116.872848,25.969471 L116.872848,26.0034387 L116.872848,31.9792452 C116.898848,32.3604387 117.193514,32.6573419 117.558752,32.6686645 L120.047324,32.6686645 C120.090657,32.6636323 122.939514,32.3629548 122.939514,28.9221484 C122.939514,25.2737613 120.078276,25.228471 120.048562,25.228471" id="Fill-21" fill="#E5002D" mask="url(#mask-4)"></path>
                                <path d="M104.696676,31.060229 C103.276581,31.060229 102.901438,29.6889387 102.901438,28.9642935 C102.901438,27.9930677 103.366962,26.8608097 104.67439,26.8608097 C106.111819,26.8608097 106.491914,28.174229 106.491914,28.8711968 C106.491914,29.6826484 106.111819,31.060229 104.696676,31.060229 M104.686771,25.0970032 L104.64839,25.0970032 C101.943152,25.0970032 101.220105,27.5212935 101.220105,28.9554871 C101.220105,30.3808742 101.966676,32.7976161 104.770962,32.7976161 C107.930581,32.7976161 108.174486,29.8084548 108.174486,28.8900677 C108.174486,27.1539387 107.259533,25.1158742 104.686771,25.0970032" id="Fill-22" fill="#E5002D" mask="url(#mask-4)"></path>
                                <path d="M71.6728381,25.2288484 L70.5486476,25.2288484 C70.2217905,25.2640742 69.9556,25.5433645 69.9258857,25.8893323 L69.9258857,30.0698806 C69.9258857,30.544171 69.4888381,31.1971065 68.6704571,31.1971065 C67.8929333,31.1971065 67.4113143,30.6095903 67.4113143,30.0698806 L67.4113143,25.8893323 C67.3778857,25.5433645 67.1116952,25.2640742 66.7786476,25.2288484 L65.6631238,25.2288484 L65.6631238,29.6886871 C65.6631238,31.5468484 66.9334095,32.7986226 68.8289333,32.7986226 C70.4000762,32.7986226 71.6728381,31.403429 71.6728381,29.6886871 L71.6728381,25.2288484 Z" id="Fill-23" fill="#E5002D" mask="url(#mask-4)"></path>
                                <path d="M78.6705524,32.0037774 L78.6705524,25.2291 L77.6615048,25.2291 C77.3049333,25.2655839 77.0300762,25.5851323 77.0300762,25.9701 L77.0300762,29.8726161 L76.9743619,29.771971 L74.7111238,25.8568742 C74.465981,25.4781968 74.1663619,25.2605516 73.841981,25.2291 L73.295981,25.2291 C72.9493143,25.2655839 72.6781714,25.5700355 72.6670286,25.9436806 L72.6670286,32.6692935 L73.6426476,32.6692935 C74.0091238,32.6479065 74.2988381,32.3195516 74.2988381,31.9295516 L74.2988381,28.0584871 L76.5843619,32.0000032 C76.8394095,32.4151645 77.1563619,32.6479065 77.5005524,32.6692935 L78.0118857,32.6692935 C78.3548381,32.6479065 78.6321714,32.3673581 78.6705524,32.0037774" id="Fill-24" fill="#E5002D" mask="url(#mask-4)"></path>
                                <path d="M83.6859524,31.9491774 L83.6859524,29.5324355 L83.6909048,29.5261452 L86.1299524,25.2285968 L84.7655714,25.2285968 C84.4288095,25.2638226 84.1168095,25.5015968 83.863,25.9217903 L82.809381,27.9938226 L81.7854762,25.9809194 C81.5254762,25.5242419 81.1998571,25.2650806 80.8445238,25.2285968 L79.4764286,25.2285968 L81.925381,29.5324355 L81.925381,32.6687903 L83.0235714,32.6687903 C83.382619,32.6486613 83.6735714,32.331629 83.6859524,31.9491774" id="Fill-25" fill="#E5002D" mask="url(#mask-4)"></path>
                                <path d="M64.6598952,31.9688032 L64.6598952,25.2293516 L63.5270381,25.2293516 C63.1791333,25.2658355 62.9104667,25.5728032 62.9005619,25.9464484 L62.9005619,27.9341903 L60.4107524,27.9341903 L60.4107524,25.2293516 L59.2853238,25.2293516 C58.936181,25.2658355 58.6625619,25.5753194 58.651419,25.9514806 L58.651419,32.6695452 L59.7545619,32.6695452 C60.0975143,32.6481581 60.3736095,32.3663516 60.4107524,32.0015129 L60.4107524,29.5432548 L62.9005619,29.5432548 L62.9005619,32.6695452 L64.0012286,32.6695452 C64.3578,32.6481581 64.6388476,32.3449645 64.6598952,31.9688032" id="Fill-26" fill="#E5002D" mask="url(#mask-4)"></path>
                                <path d="M87.3758476,30.0079839 L87.3869905,29.9677258 L88.2697524,26.7747581 L89.1748,30.0079839 L87.3758476,30.0079839 Z M88.6065143,25.2285968 L87.9887048,25.2285968 C87.6110857,25.233629 87.2248,25.545629 87.0502286,25.9834355 L87.0477524,25.9809194 C87.0229905,26.0664677 86.8063238,26.7470806 84.9145143,32.6687903 L86.0609905,32.6687903 C86.4398476,32.6461452 86.7679429,32.3555323 86.8719429,31.9466613 L87.0093714,31.3905968 L89.5214667,31.3905968 L89.526419,31.4132419 C89.5722286,31.589371 89.6378476,31.8422419 89.6527048,31.902629 L89.6576571,31.9152097 C89.7728,32.3555323 90.0872762,32.6461452 90.4797524,32.6687903 L91.6769905,32.6687903 L89.5449905,25.9809194 C89.3778476,25.4890161 88.9482286,25.2285968 88.6065143,25.2285968 L88.6065143,25.2285968 Z" id="Fill-27" fill="#E5002D" mask="url(#mask-4)"></path>
                                <path d="M112.523667,31.060229 C111.10481,31.060229 110.729667,29.6889387 110.729667,28.9642935 C110.729667,27.9930677 111.193952,26.8608097 112.505095,26.8608097 C113.937571,26.8608097 114.317667,28.174229 114.317667,28.8711968 C114.317667,29.6826484 113.93881,31.060229 112.523667,31.060229 M112.510048,25.0970032 L112.477857,25.0970032 C109.768905,25.0970032 109.043381,27.5212935 109.043381,28.9554871 C109.043381,30.3808742 109.793667,32.7976161 112.596714,32.7976161 C115.753857,32.7976161 116.000238,29.8084548 116.000238,28.8900677 C116.000238,27.1539387 115.086524,25.1158742 112.510048,25.0970032" id="Fill-28" fill="#E5002D" mask="url(#mask-4)"></path>
                                <path d="M100.328552,28.5287516 L97.3546476,28.5287516 L97.3546476,26.8580419 L99.6463619,26.8530097 C100.01779,26.8530097 100.314933,26.5523323 100.332267,26.1484935 L100.332267,25.2288484 L96.2255048,25.2288484 C95.8850286,25.2640742 95.6126476,25.5672677 95.5940762,25.9295903 L95.5940762,32.6690419 L96.6922667,32.6690419 C97.059981,32.6476548 97.3496952,32.3268484 97.3546476,31.9381065 L97.3546476,30.1441065 L99.6253143,30.1441065 C100.007886,30.1441065 100.3236,29.8157516 100.328552,29.413171 L100.328552,28.5287516 Z" id="Fill-29" fill="#E5002D" mask="url(#mask-4)"></path>
                            </g>
                        </g>
                    </g>
                </g>
            </g>
        </g>
    </g>
</svg>