<?xml version="1.0" encoding="UTF-8"?>
<svg width="339px" height="7632px" viewBox="0 0 339 7632" version="1.1" xmlns="http://www.w3.org/2000/svg" xmlns:xlink="http://www.w3.org/1999/xlink">
    <title>2-1_dotted line_m</title>
    <g id="Page-1" stroke="none" stroke-width="1" fill="none" fill-rule="evenodd" stroke-dasharray="15,30" stroke-linecap="round">
        <g id="2-1-prodiuct-advantage-mb" transform="translate(-18.000000, -429.000000)" stroke="#F9EED6" stroke-width="10">
            <g id="2-1_dotted-line_m" transform="translate(23.000000, 434.000000)">
                <path d="M166.088195,0 L166.088195,25.5 C166.088195,39.5832611 154.671456,51 140.588195,51 L30,51 C13.4314575,51 -5.58177493e-15,64.4314575 0,81 L0,720 C2.02906125e-15,736.568542 13.4314575,750 30,750 L299,750 C315.568542,750 329,763.431458 329,780 L329,1169 C329,1185.56854 315.568542,1199 299,1199 L30,1199 C13.4314575,1199 -2.02906125e-15,1212.43146 0,1229 L0,2227 C2.02906125e-15,2243.56854 13.4314575,2257 30,2257 L299,2257 C315.568542,2257 329,2270.43146 329,2287 L329,2973.16317 C329,2989.73171 315.568542,3003.16317 299,3003.16317 L30,3003.16317 C13.4314575,3003.16317 2.43108183e-13,3016.59463 0,3033.16317 L0,3352.22798 C-2.51692625e-13,3368.79652 13.4314575,3382.22798 30,3382.22798 L299,3382.22798 C315.568542,3382.22798 329,3395.65943 329,3412.22798 L329,3486.27475 C329,3502.84329 315.568542,3516.27475 299,3516.27475 L30,3516.27475 C13.4314575,3516.27475 3.29852325e-13,3529.70621 0,3546.27475 L0,4659.43593 C-1.52365243e-15,4676.00447 13.4314575,4689.43593 30,4689.43593 L299,4689.43593 C315.568542,4689.43593 329,4702.86738 329,4719.43593 L329,5357.12569 C329,5373.69423 315.568542,5387.12569 299,5387.12569 L30,5387.12569 C13.4314575,5387.12569 -2.1980836e-13,5400.55715 0,5417.12569 L0,6377.97708 C1.72559318e-13,6394.54562 13.4314575,6407.97708 30,6407.97708 L299,6407.97708 C315.568542,6407.97708 329,6421.40854 329,6437.97708 L329,7406.21012 C329,7422.77866 315.568542,7436.21012 299,7436.21012 L196.088195,7436.21012 C179.519652,7436.21012 166.088195,7449.64158 166.088195,7466.21012 L166.088195,7622" id="Path-2"></path>
            </g>
        </g>
    </g>
</svg>